<?xml version="1.0" standalone="no"?>
<!DOCTYPE svg PUBLIC "-//W3C//DTD SVG 1.1//EN" "http://www.w3.org/Graphics/SVG/1.1/DTD/svg11.dtd" >
<svg xmlns="http://www.w3.org/2000/svg">
<metadata>
This is a custom SVG webfont generated by Font Squirrel.
Copyright   :  1996 2003 Adobe Systems Incorporated All rights reserved
Designer    : Robert Slimbach
Foundry URL : httpwwwadobecomtype
</metadata>
<defs>
<font id="KeplerStdMediumItalic" horiz-adv-x="978" >
<font-face units-per-em="2048" ascent="1434" descent="-614" />
<missing-glyph horiz-adv-x="421" />
<glyph unicode=" "  horiz-adv-x="421" />
<glyph unicode="&#x09;" horiz-adv-x="421" />
<glyph unicode="&#xa0;" horiz-adv-x="421" />
<glyph unicode="!" horiz-adv-x="442" d="M81 205q42 45 99 45q53 0 83 -37q26 -32 26 -81v-13q-2 -66 -44 -106t-104 -40h-2q-47 0 -76 34q-27 32 -26 82q0 69 44 116zM207 426q68 262 74 547q4 121 18 178q16 66 75.5 116t108.5 50h2q51 0 82 -62q20 -40 20 -80q0 -21 -5 -42q-10 -41 -80 -166 q-156 -270 -234 -541h-61z" />
<glyph unicode="&#x22;" horiz-adv-x="647" d="M270 963q77 233 77 378q0 14 -1 27q23 16 78 37.5t80 21.5q31 0 39 -43q3 -17 3 -31q0 -21 -7 -36q-18 -70 -88 -176.5t-138 -188.5zM567 963q37 113 59 230q18 99 18 155q0 11 -1 20q27 16 80 37.5t80 21.5q31 0 38 -44q3 -18 3 -32q0 -21 -6 -34q-29 -115 -224 -365z " />
<glyph unicode="#" horiz-adv-x="915" d="M92 434q33 61 58 148q16 0 38.5 -1t62.5 -2t75 -1l98 239q-29 1 -62 1q-65 0 -141 -3q39 82 58 143q14 0 81.5 -1t116.5 -1q25 55 60.5 147.5t44.5 110.5l82 7l-117 -265h198l103 258l86 7q-70 -150 -117 -265q55 0 112.5 1t69.5 1q-45 -86 -63 -145q-12 0 -68.5 1 t-107.5 1l-92 -235q188 4 198 4q-35 -70 -59 -148h-197q-25 -63 -110 -301l-88 -6l127 307h-199q-78 -188 -117 -301l-88 -12l50 116l83 197q-106 0 -176 -2zM395 578h201l96 239h-200z" />
<glyph unicode="$" d="M23 139q59 135 110 344l60 11q-25 -82 -27 -146q-1 -14 -1 -28q0 -186 183 -226q18 51 148 459q-113 76 -140 96q-123 92 -123 236q0 170 142 276q102 80 266 80q43 0 68 -4l45 147l82 11l-60 -170q47 -10 96.5 -37t69.5 -51q8 0 59 77l39 -22q-82 -180 -125 -365l-49 9 q14 65 15 118q0 157 -127 207l-138 -428q137 -92 177 -129q106 -86 106 -217q0 -139 -100 -240q-131 -125 -365 -124q-27 0 -37 2l-53 -177l-82 -14l66 197q-147 16 -305 108zM406 973q0 -66 37.5 -111t117.5 -96l131 412q-20 6 -57 6q-104 0 -166.5 -59.5t-62.5 -149.5v-2z M416 82q10 -2 33 -2q115 0 193.5 55t78.5 158v2q0 70 -38 115t-134 108z" />
<glyph unicode="%" horiz-adv-x="1511" d="M211 795q0 180 119 332.5t293 152.5q63 0 122 -33l27 21q90 -98 227 -99q178 0 285 91q12 10 78 86l111 12l-1162 -1397l-61 53l969 1147q-115 -59 -252 -59q-94 0 -154 26q10 -27 10 -86q0 -178 -111.5 -328.5t-279.5 -150.5q-102 0 -161.5 59.5t-59.5 172.5zM377 762 q0 -131 94 -131q80 0 143.5 78.5t92 177t28.5 182.5q0 145 -108 145h-2q-49 0 -90 -38q-68 -61 -113 -185.5t-45 -228.5zM838 250q0 170 117.5 327.5t287.5 157.5h2q104 0 155.5 -61.5t51.5 -167.5q0 -113 -44 -223.5t-136 -188.5t-211 -78q-102 0 -162.5 58.5t-60.5 175.5z M1006 215q0 -129 98 -129q78 0 141.5 79t92 175t28.5 174q0 156 -109 156h-2q-47 0 -92 -39q-66 -59 -111.5 -183t-45.5 -233z" />
<glyph unicode="&#x26;" horiz-adv-x="1351" d="M90 317q0 172 143 289q115 86 287 105l2 10q-174 47 -174 215q0 158 120 248t290 90q168 0 239.5 -66.5t71.5 -144.5q0 -59 -30.5 -90t-71.5 -31q-39 0 -58.5 22.5t-11.5 53.5q14 39 14 67q0 57 -33.5 93t-103.5 36q-106 0 -165.5 -96t-59.5 -207q0 -137 84 -170 q45 0 119 9l8 -23l-60 -63q-45 8 -79 8q-131 0 -212 -92.5t-81 -227.5q0 -141 80.5 -217t216.5 -76q172 0 277.5 115t121.5 291h37l31 -117q-66 -176 -214.5 -278.5t-353.5 -102.5q-186 0 -310 87t-124 263zM657 414q49 109 128 177t165 68q35 0 260 -10h16q105 0 111 78 q3 18 4 35q0 26 -8 51l19 14q20 -4 38.5 -24.5t18.5 -48.5q-2 -63 -47 -124t-100 -93q-65 -43 -137 -44q-3 0 -7 1q-35 0 -119 5t-116 5q-115 0 -187 -123z" />
<glyph unicode="'" horiz-adv-x="350" d="M270 963q77 231 77 377q0 14 -1 28q25 16 78 37.5t80 21.5q31 0 39 -44q4 -20 3 -34q0 -19 -5 -32q-29 -113 -228 -365z" />
<glyph unicode="(" horiz-adv-x="684" d="M102 203q0 295 126 596t345 487q135 117 299 184l21 -55q-209 -90 -371 -368q-119 -205 -184.5 -459t-65.5 -506q0 -315 142 -432q-6 -10 -21.5 -26.5t-21.5 -26.5q-269 184 -269 606z" />
<glyph unicode=")" horiz-adv-x="684" d="M-115 -348q209 88 373 368q119 203 184.5 457t65.5 508q0 317 -141 432q4 8 20 26.5t21 26.5q268 -182 268 -606q0 -297 -126 -597t-343 -486q-143 -121 -301 -184z" />
<glyph unicode="*" horiz-adv-x="811" d="M235 969.5q0 24.5 14 56.5q15 37 48 43h4q18 0 93 -11q49 -8 88 -8q30 0 53 5l2 -43q-51 -14 -124 -68.5t-87 -56.5q-5 -1 -11 -1q-25 0 -48 24q-32 35 -32 59.5zM331 1275q9 34 25 52q20 16 53 25q7 2 14 2q24 0 46 -21q8 -10 39 -96t61 -127l-32 -31q-35 37 -113 76 t-88 53q-9 20 -9 41q0 13 4 26zM414 793q4 12 62.5 82.5t80.5 123.5l37 -14q-11 -38 -11 -104q0 -19 1 -39q2 -38 1 -63q0 -37 -3 -44q-12 -31 -52 -41q-24 -6 -41 -6q-10 0 -18 2q-23 6 -46 38q-15 21 -16 42q1 12 5 23zM590 1116q13 46 13 132v13v34q0 63 3 71 q12 31 49 39q21 5 38 5q12 0 22 -3q20 -4 45 -35q16 -19 15 -39q0 -12 -5 -24q-4 -10 -62.5 -82t-80.5 -123zM618 997l33 29q31 -39 111 -79t88 -48q10 -18 10 -38q0 -14 -5 -30q-11 -37 -28 -53q-20 -16 -52 -24q-7 -2 -15 -2q-24 0 -45 20q-4 6 -33 94t-64 131zM649 1090 q49 14 125 67t92 57l10 2q23 0 45 -24q26 -29 29 -51q1 -5 1 -11q0 -22 -13 -53q-16 -39 -49 -43h-5q-20 0 -93 10q-52 7 -91 8q-26 0 -47 -3z" />
<glyph unicode="+" horiz-adv-x="1069" d="M100 428v111h371v368h115v-368h366v-111h-366v-408h-115v408h-371z" />
<glyph unicode="," horiz-adv-x="411" d="M-68 -182q88 16 156 72.5t84 125.5q0 14 -16 4q-25 -14 -54 -14q-37 0 -61 30q-23 27 -23 68q0 66 43 110q41 42 101 42q53 0 85 -43q30 -40 30 -104q0 -135 -103 -234q-98 -94 -225 -111z" />
<glyph unicode="-" horiz-adv-x="618" d="M82 387l47 131q213 -6 451 0l-45 -131q-234 6 -453 0z" />
<glyph unicode="." horiz-adv-x="419" d="M68 204q41 44 98 44q53 0 83 -37q26 -32 26 -81q0 -7 -1 -13q-4 -66 -45 -106t-102 -40h-2q-47 0 -76 34q-27 32 -27 82q1 68 46 117z" />
<glyph unicode="/" horiz-adv-x="718" d="M-55 -176q90 154 426 782l415 787l99 -33q-35 -53 -175 -307l-261 -484l-404 -772z" />
<glyph unicode="0" d="M96 332q0 236 107.5 497t285.5 377q113 74 244 74h4q156 0 227.5 -99.5t71.5 -260.5q0 -236 -100 -497t-268 -376q-113 -76 -260 -76q-160 0 -236 99.5t-76 261.5zM291 236q0 -203 131 -203q94 0 176 114q98 141 174 417t76 462q0 193 -123 193h-2q-86 0 -168 -109 q-109 -141 -186.5 -408t-77.5 -466z" />
<glyph unicode="1" d="M74 -6l20 57l148 15q41 2 57 11t27 36q47 125 159 516l140 504q4 14 -1.5 21t-19.5 5q-23 -2 -99.5 -3t-111.5 -1l31 59q365 39 440 66l10 -6q-47 -133 -188 -643q-115 -412 -137 -520q-4 -23 4 -32t33 -13l178 -15l-19 -57q-82 0 -194.5 3t-149.5 3q-47 0 -152 -3 t-175 -3z" />
<glyph unicode="2" d="M-31 12q41 63 72 117q231 139 402 289.5t243 271.5q96 160 96 314q0 211 -159 210q-98 0 -152.5 -77.5t-69.5 -198.5q-10 -100 -90 -100q-88 0 -88 110q0 51 37 116.5t100 117.5q125 98 295 98q174 0 267 -96q80 -80 79 -213q0 -213 -219 -398q-86 -70 -561 -407 q381 4 492 16q39 2 69 43q53 63 99 140l45 -27q-90 -168 -156 -346q-172 8 -573 8q-166 0 -220 -4z" />
<glyph unicode="3" d="M35 215q0 47 28.5 78t75.5 31q63 0 76 -99q29 -193 186 -192q127 0 205 119.5t78 271.5q0 209 -205 209q-57 0 -112 -17l-23 39l23 35q57 4 133 19q127 25 201.5 108.5t74.5 214.5q0 78 -41 123t-112 45q-203 0 -285 -260h-23l-45 76q35 92 150 178t272 86 q133 0 214 -65.5t81 -180.5q0 -162 -170 -264q-78 -47 -207 -84v-8q172 -23 246 -115q57 -63 57 -162q0 -203 -180 -333q-135 -96 -352 -97q-145 0 -245.5 66.5t-100.5 177.5z" />
<glyph unicode="4" d="M55 442q299 338 750 789q125 18 196 49l13 -8q-51 -156 -232 -834q131 2 219 37l-14 -59q-78 -49 -227 -58l-94 -366q-129 0 -213 -25l-13 10q12 33 113 373q-137 0 -296 12.5t-200 26.5zM186 465q27 -10 148 -20.5t244 -10.5l202 686q-354 -350 -594 -655z" />
<glyph unicode="5" d="M47 209q0 47 27.5 78.5t75.5 31.5q63 0 75 -98q25 -188 183 -188q129 0 207.5 131t78.5 295q0 98 -41 153q-45 66 -139 66q-168 0 -278 -164l-41 53q63 127 139 368t92 333q49 -18 131 -31q115 -12 180 -12q135 0 209 16t121 64l29 -37q-72 -125 -170 -176 q-92 -47 -242 -48q-141 0 -231 23q-127 -356 -150 -408q139 109 309 109q143 0 228 -79q82 -77 82 -219q0 -228 -172 -374q-145 -125 -363 -125q-143 0 -241.5 66t-98.5 172z" />
<glyph unicode="6" d="M94 352q0 217 104.5 428t284.5 346q209 154 457 154q63 0 94 -12l-4 -60q-37 4 -65 4q-197 0 -367 -157.5t-242 -409.5q178 160 342 160q117 0 190 -80t73 -219q0 -258 -195 -420q-131 -115 -324 -115q-170 0 -259 102.5t-89 278.5zM297 268q0 -111 42 -172t120 -61 q100 0 172 90q55 70 86 176.5t31 208.5q0 84 -34 140.5t-108 56.5h-2q-152 0 -246 -166q-61 -105 -61 -273z" />
<glyph unicode="7" d="M223 76q20 84 150 248q82 115 300 378t292 367q-66 6 -312 6q-170 0 -216 -14t-79 -66q-59 -96 -79 -133l-52 19q41 74 88 206t56 183q27 -12 100 -15q59 -4 317 -4q299 0 347 2l6 -16q-74 -156 -207 -332q-223 -289 -352 -499.5t-189 -430.5l-8 -6q-86 0 -133 31 q-30 20 -30 58q0 9 1 18z" />
<glyph unicode="8" d="M61 254q0 133 123 229q49 37 236 144q-143 143 -144 276q0 152 115 260q123 117 309 117h2q127 0 212 -69.5t85 -188.5q0 -129 -122 -219q-39 -29 -189 -115q123 -106 170 -178t47 -160q0 -174 -160 -287q-125 -92 -321 -92q-160 0 -261.5 76t-101.5 207zM227 268 q0 -106 63.5 -170.5t168.5 -64.5h4q102 0 174 64.5t72 170.5q0 78 -56.5 148.5t-185.5 173.5q-240 -146 -240 -322zM455 995q0 -133 190 -270q209 131 209 299q0 88 -50 141.5t-136 53.5h-2q-92 0 -151.5 -64t-59.5 -160z" />
<glyph unicode="9" d="M123 -14l2 59q27 -3 50.5 -3t43.5 3q211 10 355.5 171t207.5 398q-154 -156 -329 -155q-119 0 -196 76.5t-77 222.5q0 225 164 385q133 137 338 137q164 0 254 -109.5t90 -283.5q0 -236 -101.5 -453t-281.5 -344q-172 -119 -410 -119q-61 1 -110 15zM385 764 q0 -96 43 -153.5t117 -57.5q133 0 221 149q66 113 65 285q0 104 -39.5 169t-115.5 65h-2q-100 0 -176 -101q-113 -151 -113 -356z" />
<glyph unicode=":" horiz-adv-x="419" d="M71 198q40 44 97 44q51 0 81 -36q26 -31 26 -80q0 -7 -1 -13q-2 -63 -43 -102.5t-102 -39.5h-2q-45 0 -74 34q-27 32 -27 80q1 64 45 113zM220 785q40 44 97 44q51 0 81 -35q26 -31 26 -80v-14q-2 -66 -43 -104.5t-102 -38.5h-3q-45 0 -73 34q-27 32 -27 80q0 65 44 114z " />
<glyph unicode=";" horiz-adv-x="419" d="M-68 -180q86 16 153 70.5t83 123.5q2 8 -2 8.5t-12 -4.5q-25 -14 -54 -14q-37 0 -61 29q-23 26 -23 67q0 64 44 109q42 43 100 43q53 0 84 -42q29 -39 29 -103q0 -134 -103 -231q-98 -93 -221 -109zM226 783q40 44 98 44q51 0 80 -35q26 -31 27 -80q0 -7 -1 -14 q-2 -63 -43 -102t-102 -39h-2q-45 0 -74 34q-27 32 -27 80q0 63 44 112z" />
<glyph unicode="&#x3c;" horiz-adv-x="1030" d="M137 422v125l733 393v-129l-618 -324v-6l618 -321v-131z" />
<glyph unicode="=" horiz-adv-x="1069" d="M98 240v110h854v-110h-854zM98 612v109h854v-109h-854z" />
<glyph unicode="&#x3e;" horiz-adv-x="1030" d="M137 31v129l617 323v6l-617 324v129l733 -393v-125z" />
<glyph unicode="?" horiz-adv-x="825" d="M251 201q42 43 99 43q53 0 82 -36q25 -31 25 -79v-14q-2 -66 -43 -105t-103 -39h-2q-47 0 -76 34q-27 32 -26 82q0 69 44 114zM262 1040q0 113 111.5 194t259.5 81q135 0 218 -75q81 -73 81 -203q0 -163 -180 -279q-129 -80 -242 -164q-51 -39 -69 -80q-11 -26 -11 -59 q0 -19 4 -41l-49 -17q-66 93 -66 178q0 100 95 173q31 25 138 104.5t138 105.5q76 57 76 152q0 65 -39 103q-41 40 -108 40q-76 0 -124.5 -42t-48.5 -115q0 -23 9 -60q2 -9 2 -18q0 -26 -19 -47q-29 -33 -80 -33q-41 0 -68.5 28.5t-27.5 73.5z" />
<glyph unicode="@" horiz-adv-x="1513" d="M84 213q0 246 109.5 452.5t310.5 330.5t450 124q254 0 391.5 -137t137.5 -346q0 -227 -137.5 -403.5t-354.5 -176.5q-100 0 -117 65q-4 17 -4 38q0 56 33 137q-70 -100 -163 -170t-183 -70q-119 0 -119 148q0 139 87 292.5t206 229.5q96 59 189 59q90 0 116 -73l21 49 h149q-119 -293 -182 -549q-5 -21 -5 -37q0 -45 40 -45q106 0 187 84t116 192.5t35 213.5q0 199 -121 314.5t-340 115.5q-293 0 -469 -222q-213 -266 -213 -620q0 -205 94 -318q115 -137 311 -137q250 0 424 185l25 -54q-197 -211 -516 -211q-236 0 -372 145.5t-136 393.5z M606 215q0 -61 41 -61q82 0 177.5 117.5t142.5 240.5q27 66 37 109q1 10 1 20q0 34 -17 56q-22 30 -66 30q-82 0 -160 -106q-68 -92 -112 -203t-44 -201v-2z" />
<glyph unicode="A" horiz-adv-x="1204" d="M-106 -6l12 57q88 8 128 31.5t93 105.5l343 521l306 473q31 47 39 75l4 21h18q106 0 167 47l14 -8q-9 -175 -9 -498q0 -108 1 -231q2 -373 14 -473q4 -27 15.5 -37t33.5 -15l111 -12l-10 -57q-23 0 -118 3t-151 3q-43 0 -264 -6l16 57q92 8 114 21.5t24 60.5q8 197 8 387 q-233 0 -383 -22q-152 -246 -197 -342q-13 -30 -13 -49.5t13 -28.5q27 -18 144 -27l-13 -57q-33 0 -112.5 3t-116.5 3q-59 0 -137 -3t-94 -3zM471 578q74 8 332 16q0 8 12 528z" />
<glyph unicode="B" horiz-adv-x="1179" d="M-47 -6l18 57q94 6 125 17.5t41 37.5q70 190 176 564q117 414 142 518q6 27 -24 35t-144 16l20 57q154 -6 246 -6q45 0 134 3t149 3q219 0 294 -82q55 -59 56 -157q0 -227 -221 -318q-68 -27 -179 -41l-2 -8q178 -25 256 -102q63 -66 64 -180q0 -246 -246 -359 q-113 -55 -326 -55q-57 0 -166.5 3t-162.5 3q-66 0 -250 -6zM364 89q0 -9 6 -14q7 -7 34.5 -12.5t78.5 -5.5q180 0 283.5 107.5t105.5 284.5v2q0 80 -32 129q-57 84 -240 84q-39 0 -84 -5l-51.5 -187.5l-43.5 -154.5l-30.5 -109t-20.5 -80.5t-6 -38.5zM535 725q16 -4 81 -4 q154 0 255.5 95t101.5 251v2q0 61 -27 100q-45 63 -186 64q-72 0 -82 -33z" />
<glyph unicode="C" horiz-adv-x="1210" d="M150 449q0 195 83.5 390t231.5 326q188 158 438 158q106 0 187 -34t120 -89l74 109l45 -19q-92 -227 -133 -434l-53 -2q13 73 13 133q0 101 -38 162q-61 109 -198 108q-170 0 -297 -145q-115 -135 -176.5 -320.5t-61.5 -371.5q0 -180 70 -268q78 -104 217 -105 q156 0 259 77t173 232h35q4 -66 4 -114q-78 -127 -223.5 -201t-311.5 -74q-223 0 -340.5 126.5t-117.5 355.5z" />
<glyph unicode="D" horiz-adv-x="1351" d="M-51 -6l22 57l95 8q35 4 50 16.5t29 51.5q31 86 156 508q98 332 148 536q6 29 -2.5 41.5t-36.5 14.5l-127 14l24 55q14 0 101.5 -3t134.5 -3q35 0 141 4q102 4 170 4q248 0 373 -108q131 -113 131 -354q-2 -256 -128 -475.5t-353 -313.5q-137 -57 -355 -57q-78 0 -157 6 q-102 4 -156 4q-45 0 -144.5 -3t-115.5 -3zM372 94q0 -20 18 -29q22 -11 97 -12q174 0 271 53q164 88 267 320.5t105 464.5q0 164 -63 244q-76 100 -262 100h-2q-109 0 -121 -33q-35 -84 -164 -545l-36.5 -128.5l-33 -115l-26 -93.5l-22 -82.5l-15 -61t-10.5 -50.5t-3 -32z " />
<glyph unicode="E" horiz-adv-x="1130" d="M-53 -6l16 55l113 12q31 4 45 17.5t26 50.5q57 162 168 553q98 336 136 498q6 25 -2.5 36t-38.5 13l-119 10l18 57q33 0 141.5 -3t163.5 -3h318q207 0 289 13q-31 -59 -109 -363h-49q9 87 8 160v28q-2 61 -41 80t-174 19h-135q-31 0 -43 -35q-63 -174 -143 -483 q16 -4 143 -4q100 0 142 32.5t93 132.5h52q-74 -193 -131 -460l-50 2q6 56 6 96q0 58 -12 85q-20 46 -125 46q-119 0 -141 -4q-113 -408 -137 -518q-8 -20 -1 -32.5t37.5 -18t104.5 -5.5q152 0 218.5 13.5t115.5 54.5q80 63 182 236l49 -21q-6 -16 -70.5 -172t-80.5 -186 q-27 4 -162 10q-156 4 -330 4h-198q-29 0 -86.5 -1t-81.5 -1q-102 -4 -125 -4z" />
<glyph unicode="F" horiz-adv-x="1062" d="M-47 -6l18 57l103 12q49 4 67 50q41 111 170 557q117 403 140 518q6 33 -29 37l-133 14l20 57q33 0 152 -3t174 -3h229q240 0 393 17q-70 -178 -116 -373h-56q16 102 17 188q-2 63 -44 84t-184 21h-149q-37 0 -47 -29q-49 -133 -150 -516q16 -4 148 -4q121 0 169 31.5 t101 144.5l51 -2q-31 -80 -74.5 -239.5t-60.5 -239.5h-53q9 68 9 114q0 56 -13 80q-25 45 -150 45q-129 0 -149 -2q-86 -303 -127 -491q-2 -8 -2 -16q0 -31 37 -35q66 -8 153 -17l-18 -57q-35 0 -145.5 3t-153.5 3q-59 0 -166.5 -3t-130.5 -3z" />
<glyph unicode="G" horiz-adv-x="1314" d="M152 440q0 258 125.5 488.5t343.5 331.5q145 63 309 63q123 0 208 -37t122 -88l79 115l45 -21q-106 -248 -149 -444h-57q15 75 14 136q0 102 -40 168q-65 105 -216 105q-145 0 -266 -108q-135 -127 -211 -334t-76 -420q0 -188 72 -268q76 -94 209 -94q92 0 140 29.5 t70 87.5q45 119 82 276q10 40 10 64q0 15 -3 23q-10 22 -58 26l-125 12l19 57q23 0 133 -3t153 -3q88 0 248 6l-12 -55q-68 -8 -91.5 -19.5t-35.5 -41.5q-45 -111 -88 -291q-23 -92 -25 -146q-53 -12 -196 -55q-135 -33 -246 -33q-231 0 -359 124t-128 349z" />
<glyph unicode="H" horiz-adv-x="1376" d="M-43 -6l18 57q90 4 124 18.5t48 53.5q53 150 164 541q125 442 138 499q2 11 1 20q0 29 -20 39q-27 13 -131 17l20 57q166 -6 259 -6q35 0 130 3t140 3l-17 -59q-84 -2 -114.5 -16.5t-46.5 -55.5q-68 -197 -135 -456q35 -2 235 -2q215 0 277 2q102 348 124 465 q8 37 -16.5 49t-114.5 14l19 59q31 0 86 -2t97 -3t71 -1q113 0 260 6l-14 -59q-88 -2 -118 -16.5t-46 -55.5q-37 -92 -152 -508q-121 -451 -137 -530q-2 -10 -2 -18q0 -28 21 -38q28 -13 139 -20l-23 -57q-33 0 -131 3t-147 3q-37 0 -265 -6l19 57q92 8 122.5 24.5 t47.5 69.5q4 16 141 490q-106 4 -272 4q-160 0 -242 -4q-90 -301 -137 -512q-10 -41 16.5 -54.5t122.5 -17.5l-16 -57q-240 6 -281 6q-47 0 -262 -6z" />
<glyph unicode="I" horiz-adv-x="651" d="M-45 -6l20 57l88 8q37 4 54.5 17.5t32.5 54.5q37 109 157 520q102 352 144 512q8 35 -1.5 49.5t-41.5 16.5l-105 10l21 57q41 0 129 -3t133 -3q59 0 149 3t117 3l-18 -57l-89 -10q-31 -4 -46 -16.5t-27 -47.5q-45 -119 -156 -516q-125 -449 -141 -528q-6 -35 3 -46.5 t40 -15.5l108 -8l-18 -57q-31 0 -135.5 3t-155.5 3q-63 0 -150 -3t-112 -3z" />
<glyph unicode="J" horiz-adv-x="624" d="M-195 -217l15 18q49 -25 102 -24q59 0 97 38t81 154q55 145 148 473q178 639 196 732q6 27 -2 39t-34 16q-66 8 -113 10l24 57q33 0 112 -3t132 -3q55 0 149.5 3t123.5 3l-17 -57l-98 -12q-37 -6 -51 -51q-25 -68 -201 -715q-55 -203 -109 -357q-55 -176 -165 -280 q-131 -123 -299 -123q-55 0 -72 27q-15 22 -19 55z" />
<glyph unicode="K" horiz-adv-x="1245" d="M-37 -6l19 57l86 8q59 8 77 64q55 156 166 541q117 406 140 510q8 31 -1.5 43t-43.5 14l-99 8l21 57q203 -6 258 -6q61 0 146 3t114 3l-17 -57l-79 -8q-59 -6 -76 -47q-51 -141 -152 -498q113 41 324 224.5t289 281.5q29 31 -15 35l-104 12l20 55q29 0 106 -2t122 -2 q59 0 213 6l-19 -57q-88 -8 -129 -22.5t-90 -49.5q-39 -31 -216 -184l-278 -235q57 -137 161 -359.5t147 -282.5q16 -27 48 -38t122 -17l-21 -57q-45 2 -96.5 2t-110.5 -2q-86 -6 -147 -17q-16 51 -127 290t-143 321q-12 35 -27.5 44t-42.5 1q-121 -451 -137 -527 q-4 -25 5 -35t42 -12l96 -8l-20 -57q-20 0 -123 3t-158 3q-53 0 -140 -3t-110 -3z" />
<glyph unicode="L" horiz-adv-x="1067" d="M-49 -6l16 57q8 2 48 5t61 7q51 6 65 50q45 123 174 569q78 264 136 500q6 23 -2.5 34t-38.5 13l-109 10l21 57q18 0 118.5 -3t149.5 -3q18 0 276 6l-16 -57l-107 -12q-33 -2 -46 -13.5t-23 -39.5q-49 -131 -152 -502q-125 -449 -153 -578q-4 -18 14 -25.5t82 -7.5 q160 0 223.5 14.5t110.5 63.5q76 74 178 252l57 -8q-16 -37 -153 -393q-80 10 -652 10q-112 0 -278 -6z" />
<glyph unicode="M" horiz-adv-x="1669" d="M-84 -6l18 57q92 12 109 17q57 10 88 82q125 301 358 1030q6 23 -1 32t-33 13l-140 14l25 57q203 -6 240 -6q117 0 163 6q2 -53 21 -234l43 -406q25 -224 33 -316q578 911 602 956q66 -6 162 -6q37 0 117.5 3t117.5 3l-14 -57q-27 -2 -71 -8t-52 -6q-41 -6 -55 -51 q-168 -645 -238 -1045q-8 -37 4 -49t55 -17l105 -12l-21 -57q-70 6 -288 6q-166 0 -273 -6l19 57q100 10 127.5 25.5t42.5 62.5q25 82 65 234l107 403l116 438h-2l-735 -1212q-18 -2 -51 -8t-45 -8q-4 135 -38 598t-42 587h-2l-128 -408l-122 -393q-41 -134 -59 -206 q-6 -23 -6 -41q0 -30 18 -43q29 -20 156 -29l-21 -57q-31 0 -110.5 3t-124.5 3t-136.5 -3t-103.5 -3z" />
<glyph unicode="N" horiz-adv-x="1310" d="M-49 -6l20 57q16 0 103 15q49 12 82 86q59 150 288 993q3 13 4 24q0 49 -67 58l-115 12l21 57q16 0 90 -3t123 -3q78 0 147 6l379 -1024q209 772 223 893q4 33 -8 45.5t-53 16.5l-111 12l25 57q13 1 30 1q34 0 83 -3q75 -4 100 -4q31 0 117 4q57 3 89 3q16 0 25 -1 l-20 -57q-39 -2 -101 -14q-45 -6 -65 -58q-43 -104 -148.5 -477t-177.5 -692q-70 0 -145 -23q-33 109 -102 303l-158 444l-131 370q-205 -784 -232 -928q-5 -22 -4 -38q0 -50 41 -56q66 -12 137 -19l-18 -57q-39 0 -127 3t-127 3q-125 0 -217 -6z" />
<glyph unicode="O" horiz-adv-x="1325" d="M143 416q0 215 101.5 438t265.5 344q170 125 385 125h2q213 0 327.5 -121t114.5 -340q0 -178 -69.5 -371.5t-186.5 -318.5q-195 -205 -487 -205q-211 0 -332 112t-121 337zM371 330q0 -150 61.5 -224.5t163.5 -74.5q160 0 272 143q111 143 180.5 372.5t69.5 428.5 q0 129 -54 209t-169 80h-2q-147 0 -266 -148q-111 -143 -183.5 -370.5t-72.5 -415.5z" />
<glyph unicode="P" horiz-adv-x="1126" d="M-47 -6l16 57l88 8q41 2 59.5 18.5t33.5 55.5q55 154 163 535q96 332 140 503q6 29 -2.5 40.5t-36.5 13.5l-129 12l24 57q9 1 29 1q30 0 86 -2q92 -3 125 -3t119 4q20 0 70 1t81 1q238 0 322 -106q70 -76 69 -217q0 -236 -172 -377q-129 -106 -327 -107q-96 0 -148 23 l17 59q39 -12 94 -12q98 0 174 68q143 135 143 381q0 100 -45 155q-49 68 -174 68q-78 0 -94 -43q-45 -123 -172 -574q-117 -426 -127 -485q-6 -35 3 -48t46 -18l133 -12l-22 -57q-33 0 -138.5 3t-177.5 3q-66 0 -162 -3t-108 -3z" />
<glyph unicode="Q" horiz-adv-x="1323" d="M143 418q0 213 101.5 436t261.5 340q174 129 389 129q213 0 327.5 -120t114.5 -341q0 -178 -69.5 -372.5t-184.5 -313.5q-154 -166 -383 -203v-6q29 -12 127.5 -60t159.5 -73q129 -56 255 -56q29 0 58 3v-49q-39 -35 -116.5 -58.5t-151.5 -23.5q-72 0 -147.5 34.5 t-126.5 75.5t-137 117q-84 74 -183 111q-150 49 -222.5 151.5t-72.5 278.5zM371 328q0 -147 59 -223t168 -76q154 0 270 147q111 145 179.5 371.5t68.5 427.5q0 289 -225 289h-2q-145 0 -264 -152q-111 -143 -182.5 -369.5t-71.5 -414.5z" />
<glyph unicode="R" horiz-adv-x="1177" d="M-43 -6l23 59l71 8q47 4 64.5 17.5t31.5 50.5q47 125 166 543q90 303 140 499q8 33 -2.5 43.5t-47.5 14.5l-116 12l24 55q16 0 109.5 -3t136.5 -3q31 0 126 3t165 3q205 0 285 -73q66 -57 65 -183q-2 -166 -121 -260t-319 -114v-11q156 -27 218 -88q54 -53 54 -140 q0 -14 -2 -30q1 -10 1 -21q0 -59 -25 -167q-9 -36 -9 -65q0 -94 95 -95q45 0 61 4l-25 -59q-53 -12 -139 -12q-145 0 -190 65q-28 40 -28 103q0 40 11 90q23 88 37 166q7 36 7 65q0 64 -33 97q-49 48 -158 53q-48 6 -81 5q-27 0 -44 -3q-111 -387 -135 -498q-8 -35 2 -47 t43 -17l106 -10l-20 -57q-20 0 -120.5 3t-158.5 3q-53 0 -147 -3t-121 -3zM528 692q20 -2 62 -2q180 0 283.5 105.5t103.5 261.5q0 82 -39 125q-43 51 -145 51h-45q-51 0 -70 -41q-9 -23 -150 -500z" />
<glyph unicode="S" horiz-adv-x="968" d="M35 88q55 125 112 361l62 10q-23 -94 -27 -183q0 -123 71 -183t193 -60q111 0 185 68.5t74 183.5q0 94 -72 161q-47 50 -234 216q-133 113 -133 270q0 188 148 307q106 84 270 84q92 0 163 -30.5t105 -75.5l68 98l45 -27q-76 -170 -135 -393l-53 8q14 64 14 118 q0 84 -35 142q-57 96 -180 97q-109 0 -166 -65t-57 -165q0 -111 92 -190q43 -41 237 -215q125 -102 125 -242q0 -158 -102 -272q-137 -143 -383 -144q-215 0 -387 121z" />
<glyph unicode="T" horiz-adv-x="1163" d="M160 -6l16 57q20 2 59 5t62 5q68 8 86 60q66 178 182 584q127 444 148 526q-168 0 -223.5 -18.5t-104.5 -84.5q-57 -78 -129 -210l-49 20q55 117 143 379q39 -14 129 -21q98 -6 289 -6h139q254 0 332 4t131 23q-78 -184 -123 -379l-59 -16q20 116 20 192q0 24 -2 43 q-4 47 -52 62q-42 13 -182 12h-42q-57 -180 -158 -543q-117 -420 -147 -565q-6 -31 3 -42t36 -15q88 -12 147 -15l-20 -57q-27 0 -144 3t-176 3q-41 0 -311 -6z" />
<glyph unicode="U" horiz-adv-x="1282" d="M213 418q23 90 113 400t102 364q2 9 2 15q0 28 -33 32l-108 12l20 55q39 0 128 -3t138 -3q53 0 134.5 3t113.5 3l-16 -55l-92 -12q-47 -6 -62 -47q-43 -111 -118.5 -377t-112.5 -432q-11 -52 -11 -96q0 -93 50 -150q63 -74 196 -74q152 0 239 83t155 306q127 422 182 705 q8 47 -2 62.5t-49 19.5l-107 12l19 55q29 0 103.5 -3t105.5 -3q37 0 109.5 3t107.5 3l-15 -57q-96 -6 -123.5 -23.5t-50.5 -80.5q-31 -98 -107 -369l-102 -352q-45 -154 -99 -241t-151 -144q-102 -63 -297 -64q-109 0 -198.5 35t-132.5 94q-51 74 -52 179q0 66 21 145z" />
<glyph unicode="V" horiz-adv-x="1187" d="M197 1239l18 57q23 0 105.5 -3t132.5 -3q18 0 276 6l-14 -57q-94 -6 -117 -17.5t-25 -47.5q-6 -162 -2 -969l199 310l230 365q85 140 159 277q33 59 -12 68q-41 6 -127 14l16 57q10 0 93 -3t126 -3q29 0 106 3t120 3l-13 -57q-92 -8 -130 -29.5t-87 -89.5l-342 -511 q-215 -331 -381 -615q-90 0 -155 -27l-8 8q4 811 -17 1203q-2 47 -55 51z" />
<glyph unicode="W" horiz-adv-x="1716" d="M203 1239l18 57q172 -6 240 -6q4 0 274 6l-16 -57q-94 -6 -118.5 -18.5t-29.5 -55.5q-8 -100 -47 -911l223 443q173 341 257 526q12 31 20 63q70 -8 184 17q-2 -47 -6 -203t-9 -415l-9 -454q420 729 510 922q18 41 12 55.5t-39 18.5l-111 12l17 57q23 0 100.5 -3 t114.5 -3q43 0 114.5 3t106.5 3l-12 -57q-86 -8 -122 -24.5t-69 -65.5q-131 -199 -338.5 -556t-334.5 -597q-94 -8 -146 -27l-12 8q6 127 14 524.5t12 565.5l-216 -433l-193 -389q-72 -146 -117 -249q-106 -12 -147 -27l-13 8q45 825 39 1192q-2 33 -10 44.5t-35 13.5 q-53 8 -106 12z" />
<glyph unicode="X" horiz-adv-x="1208" d="M-109 -6l15 57q86 6 131 24.5t96 65.5q125 117 461 525q-104 381 -154 518q-18 41 -75 47l-113 10l16 55q190 -6 254 -6q133 0 273 6l-13 -55q-78 -6 -97 -18.5t-11 -46.5q51 -168 96 -353q211 249 283 351q11 18 11 29q0 22 -36 26l-90 12l14 55q18 0 96 -3t127.5 -3 t127 3t106.5 3l-12 -55q-115 -10 -161 -30.5t-114 -88.5q-86 -84 -329 -370q129 -467 188 -627q16 -53 98 -62l105 -12l-15 -57q-33 0 -128 3t-144 3q-43 0 -92 -1t-108.5 -3t-94.5 -2l12 57q86 8 110 22.5t15 49.5q-113 426 -123 469q-297 -367 -352 -453q-20 -28 -20 -46 q0 -25 39 -30l110 -12l-14 -57q-84 6 -246 6q-119 0 -242 -6z" />
<glyph unicode="Y" horiz-adv-x="1058" d="M111 -6l18 57q16 2 61.5 6t65.5 9q39 4 56.5 19t33.5 58q53 141 123 406q5 25 5 50q0 19 -3 40q-6 57 -51 240.5t-76 271.5q-20 55 -47 68.5t-131 21.5l18 55q23 0 110 -3t142 -3q141 0 264 6l-16 -57q-82 -6 -102.5 -17.5t-16.5 -39.5q14 -78 111 -498l145 192l138 184 q46 62 75 109q12 21 13 35q0 20 -27 23q-57 8 -111 12l21 57q27 0 95.5 -3t111.5 -3q27 0 102.5 3t120.5 3l-19 -57q-86 -6 -123.5 -22.5t-91.5 -73.5q-168 -176 -397 -500q-37 -51 -55 -117q-74 -252 -101 -405q-1 -6 0 -11q0 -37 37 -42q33 -6 150 -17l-17 -57 q-174 6 -329 6q-127 0 -303 -6z" />
<glyph unicode="Z" horiz-adv-x="1200" d="M-18 31l535 608l495 588h-228q-180 0 -241.5 -23.5t-112.5 -99.5q-45 -63 -119 -217l-51 16q90 225 109 410q43 -16 125 -21q49 -2 262 -2h313q43 0 122 3t107 3q-45 -92 -79 -137l-410 -481l-518 -615h92q196 0 295 8q121 9 173 28.5t93 68.5q76 86 156 264l51 -24 q-88 -272 -125 -420q-72 6 -172 10q-70 2 -225 2h-406q-168 0 -229 -6z" />
<glyph unicode="[" horiz-adv-x="684" d="M12 -356l248 893q184 670 234 882q36 -9 131 -9t249 9l-24 -61q-84 0 -178 -15q-31 -6 -43 -38q-51 -129 -223 -768q-184 -692 -199 -785q-2 -14 9 -22.5t36 -10.5l164 -6l-31 -61q-96 3 -170 3q-147 0 -203 -11z" />
<glyph unicode="\" horiz-adv-x="792" d="M365 1354l100 43q27 -403 65 -826q10 -96 35 -376.5t37 -368.5l-100 -37q-16 317 -64 811q-53 635 -73 754z" />
<glyph unicode="]" horiz-adv-x="684" d="M-98 -354l24 61q78 0 176 17q31 2 43 38q45 106 226 768l50 186l44.5 165.5l35.5 134.5l30 115.5l21 84.5t14 66t4 37q0 28 -48 31l-162 4l29 61q96 -3 170 -3q147 0 203 11l-248 -893q-164 -612 -231 -884q-31 7 -139 7h-28q-132 -1 -214 -7z" />
<glyph unicode="^" horiz-adv-x="1034" d="M182 580l344 729h119l344 -729h-129l-278 600l-267 -600h-133z" />
<glyph unicode="_" horiz-adv-x="1024" d="M-100 -227h1024v-119h-1024v119z" />
<glyph unicode="`" horiz-adv-x="894" d="M424 1352q12 74 74 73q63 -2 94 -79q23 -53 113 -324l-46 -29l-81 102l-78 96q-31 38 -39 50q-38 48 -38 97q0 7 1 14z" />
<glyph unicode="a" horiz-adv-x="1067" d="M74 186q0 172 95 359.5t241 281.5q115 76 235 76q137 0 176 -92l21 68h184q-160 -467 -213 -727q-5 -23 -5 -39q0 -35 26 -35q39 0 92 56t92 134l41 -39q-49 -102 -133 -180t-193 -78q-80 0 -100 66q-9 27 -9 57q0 41 17 86q12 49 16 62h-4q-74 -113 -179 -192t-230 -79 q-86 0 -128 58.5t-42 156.5zM276 193q0 -113 74 -113q143 0 289 254q43 70 90 194.5t47 180.5q0 63 -30.5 94t-77.5 31q-98 0 -187 -103q-88 -104 -146.5 -256.5t-58.5 -279.5v-2z" />
<glyph unicode="b" horiz-adv-x="1019" d="M89 100q-3 13 -3 29q0 35 14 82l150 508q129 453 145 541q6 29 -22 30l-125 2l20 56q246 8 367 34q-63 -166 -227 -723q203 244 401 244q186 0 186 -227q-2 -172 -94 -347t-229 -263q-150 -94 -314 -95q-141 0 -213 56q-47 30 -56 73zM281 145q0 -111 112 -110h2 q80 0 160 74q86 78 161 250.5t77 324.5v11q0 111 -78 112q-68 0 -151 -74t-140 -182q-57 -100 -100 -220t-43 -186z" />
<glyph unicode="c" horiz-adv-x="872" d="M88 272q0 152 72.5 299.5t199.5 237.5q135 94 281 94q115 0 176.5 -52t61.5 -136q0 -61 -35 -96t-80 -35q-43 0 -62 26q-14 14 -13 34q0 13 5 28q23 49 23 82q0 88 -94 88q-131 0 -238 -201q-94 -182 -94 -377q0 -98 42 -152.5t118 -54.5q203 0 315 258h31l6 -100 q-59 -102 -173 -173t-251 -71q-291 0 -291 301z" />
<glyph unicode="d" horiz-adv-x="1091" d="M76 207q0 166 87 339t230 271q117 86 260 86q139 0 189 -78q100 315 121 424q4 23 -0.5 31t-20.5 8q-57 4 -131 4l23 56q240 4 374 34q-98 -248 -270 -870q-72 -246 -96 -360q-5 -25 -6 -43q0 -34 22 -33q39 0 96.5 59.5t92.5 134.5l43 -43q-59 -117 -144.5 -187.5 t-187.5 -70.5q-105 0 -105 113q0 45 17 108q4 10 9 30l7 28q-182 -276 -416 -277q-96 0 -145 65t-49 171zM283 205v-2q0 -55 22.5 -91t63.5 -36q127 0 272 229q51 78 102.5 208t51.5 200q0 53 -29 89t-86 36q-100 0 -188 -95q-86 -94 -147.5 -245.5t-61.5 -292.5z" />
<glyph unicode="e" horiz-adv-x="870" d="M82 258q0 154 70.5 305.5t197.5 247.5q129 92 277 92q123 0 179 -59.5t56 -153.5q0 -117 -143 -180q-156 -74 -416 -107q-16 -74 -16 -141q0 -201 153 -201q102 0 186.5 66t135.5 190h31l8 -102q-74 -113 -193 -178.5t-256 -65.5q-131 0 -200.5 75t-69.5 212zM315 471 q162 18 263 68q115 55 114 188q0 115 -88 115h-4q-70 0 -150 -86t-135 -285z" />
<glyph unicode="f" horiz-adv-x="544" d="M-397 -367q0 31 23.5 63t54.5 44q13 6 24 5q27 0 47 -30q59 -102 125 -102q51 0 85 47t67 154q76 229 252 979l-154 14l25 61h147q78 283 205 410q117 111 264 111q88 0 139 -41t51 -109q0 -53 -32.5 -81t-69.5 -28q-35 0 -54.5 16.5t-13.5 43.5q8 41 9 63q0 74 -66 74 q-82 0 -141 -158q-47 -125 -90 -301h200l-24 -63l-195 -12q-152 -625 -239 -861q-102 -252 -299 -370q-84 -51 -187 -51q-59 0 -106 36.5t-47 85.5z" />
<glyph unicode="g" horiz-adv-x="899" d="M-102 -227q0 86 67.5 137t159.5 51q31 0 65 -10l17 -41q-70 0 -113 -35t-43 -94q0 -90 97.5 -152.5t234.5 -62.5q121 0 188.5 50t67.5 126q0 98 -117 135q-23 6 -124 39t-150 47q-184 55 -185 189q0 63 47.5 113t127.5 73q-68 61 -68 168q0 160 115.5 278.5t279.5 118.5 h2q129 0 203 -65q106 78 182 77q33 0 55.5 -17t22.5 -35.5t-24.5 -47.5t-44.5 -41q-47 30 -98 30q-29 0 -58 -9q37 -57 37 -138q0 -164 -108.5 -278.5t-284.5 -114.5q-92 0 -164 41q-70 -23 -70 -76t92 -82q31 -10 287 -81q213 -57 213 -232q0 -117 -78 -197.5 t-182.5 -111.5t-222.5 -31q-98 0 -192.5 27.5t-164 94.5t-69.5 157zM348 455q0 -68 28.5 -99.5t72.5 -31.5q66 0 116 57q47 57 78 155.5t31 178.5q0 129 -99 129h-2q-74 0 -122 -68q-45 -57 -74 -151t-29 -170z" />
<glyph unicode="h" horiz-adv-x="1069" d="M25 -18q176 567 233 768q127 446 139 499q6 35 -30 35l-123 2l22 57q246 8 373 39q-68 -172 -242 -772q227 293 457 293q68 0 107 -39q34 -31 34 -92q0 -56 -28 -137l-93 -264q-61 -172 -81 -234q-8 -23 -8 -37q0 -24 22 -24q43 0 101.5 58.5t95.5 137.5l40 -45 q-61 -125 -149 -191.5t-186 -66.5q-109 0 -110 110q0 59 32 150q160 451 166 469q10 20 10 42q0 14 -4 28q-10 37 -53 37q-59 0 -138.5 -57.5t-158.5 -172.5q-86 -121 -152 -321l-80 -258q-42 0 -196 -14z" />
<glyph unicode="i" horiz-adv-x="561" d="M99 36q-5 20 -5 43q0 53 27 124q164 516 174 557q6 23 3 30t-22 7q-84 0 -126 -2l20 59q252 18 362 49l7 -8q-45 -102 -129 -364.5t-119 -397.5q-5 -19 -5 -32q0 -28 21 -27q43 0 103.5 60.5t97.5 135.5l41 -45q-68 -123 -157 -188.5t-187 -65.5q-89 0 -106 65zM416 1264 q39 35 86 34h2q45 0 69 -29q21 -25 22 -65q0 -7 -1 -14q-2 -57 -40 -91t-87 -34q-41 0 -68 28q-25 26 -24 69q0 65 41 102z" />
<glyph unicode="j" horiz-adv-x="512" d="M-379 -385q0 33 27.5 64.5t58.5 35.5q6 1 13 2q28 0 47 -32q53 -91 106 -91q70 0 117 132q51 135 149 491q115 414 144 541q4 23 -2.5 32t-24.5 7h-133l22 55q242 20 367 51l6 -8q-217 -815 -282 -995q-76 -209 -211 -301q-137 -92 -254 -93q-66 0 -108 34t-42 75z M389 1266q39 35 88 34h2q88 0 88 -99v-9q-2 -57 -40 -91t-87 -34q-41 0 -67 29q-25 27 -25 69q0 64 41 101z" />
<glyph unicode="k" horiz-adv-x="976" d="M25 -14q80 233 223 725q119 399 151 540q10 37 -28 37l-117 2l20 56q268 14 367 34q-63 -168 -274 -880q115 31 237 174l68 84q20 25 63 68.5t81 61t79 17.5q47 0 70.5 -23.5t23.5 -58.5q0 -39 -21.5 -61.5t-47.5 -26.5q-23 -6 -41 10q-25 25 -54 25q-57 0 -149 -106 q-66 -76 -125 -119q55 -12 94 -68.5t49 -142.5l23 -176q10 -74 49 -74q31 0 76 47t86 141l43 -39q-57 -139 -140 -203.5t-169 -64.5q-119 0 -138 180l-6 100q-4 67 -8 97q-10 121 -84 121q-35 0 -78 -37q-84 -281 -121 -426q-122 -4 -202 -14z" />
<glyph unicode="l" horiz-adv-x="528" d="M76 43q-3 18 -3 37t3 39q6 39 20 94l160 528q115 399 141 508q6 23 0 31t-26 8l-119 2l20 58q238 4 371 34q-78 -201 -203 -630q-158 -545 -172 -615q-4 -19 -4 -31q0 -30 23 -30q39 0 99 57t99 137l41 -43q-63 -125 -155 -191.5t-189 -66.5q-47 0 -73.5 18.5t-32.5 55.5 z" />
<glyph unicode="m" horiz-adv-x="1632" d="M45 -20q76 203 146.5 435t93.5 343q4 25 -2.5 33t-26.5 8h-119l19 55q268 29 350 49q-8 -27 -44 -160t-52 -184q233 344 467 344q66 0 98 -35q30 -32 30 -78q0 -47 -18 -120l-31 -103q231 336 471 336q68 0 107 -39q30 -32 30 -89.5t-30 -141.5l-63 -168l-73 -199 q-32 -86 -46 -131q-6 -21 -7 -34q0 -25 23 -25q43 0 101.5 57t97.5 137l41 -45q-61 -123 -154.5 -189.5t-189.5 -66.5q-110 0 -111 104q0 58 35 148l174 461q11 29 11 54q0 15 -4 28q-11 35 -50 35q-111 0 -240 -172t-196 -359q-68 -176 -97 -272q-86 -2 -202 -16 q152 406 231 706q9 32 9 56q0 57 -54 57q-96 0 -224 -159t-204 -366q-55 -141 -98 -278q-115 -6 -199 -16z" />
<glyph unicode="n" horiz-adv-x="1093" d="M45 -20q70 188 142.5 429.5t93.5 350.5q8 37 -19 37l-125 -2l23 57q207 14 342 51q-63 -233 -96 -344q227 344 471 344q63 0 104 -33q39 -34 39 -102q0 -58 -29 -141q-150 -406 -174 -492q-8 -22 -7 -36q0 -24 21 -23q41 0 99.5 57t99.5 135l39 -43 q-61 -123 -152.5 -189.5t-187.5 -66.5q-110 0 -110 106q0 57 32 146l170 465q11 27 12 50q0 14 -5 28q-11 35 -52 35q-117 0 -240.5 -165t-191.5 -349q-72 -186 -100 -287q-68 -4 -199 -18z" />
<glyph unicode="o" horiz-adv-x="985" d="M84 270q0 154 74.5 307.5t197.5 239.5q125 86 275 86h4q147 0 226 -80t79 -229q0 -154 -72.5 -307.5t-191.5 -235.5q-125 -80 -285 -80q-307 0 -307 299zM274 209q0 -178 132 -178q88 0 161 88q74 90 129.5 261t55.5 296q0 168 -121 168h-2q-104 0 -191 -119 q-66 -94 -115 -248.5t-49 -267.5z" />
<glyph unicode="p" horiz-adv-x="1056" d="M-231 -479l18 57l88 14q61 12 82 62q111 319 309 1016q-82 -59 -166 -86q-12 27 -24 49q154 74 227 184q18 51 55 193q135 27 191 53l8 -10q-31 -90 -135 -430q209 281 412 280q96 0 147 -67.5t51 -171.5q0 -188 -106.5 -379t-270.5 -269q-90 -45 -194 -45 q-137 0 -195 78q-66 -223 -102 -381q-8 -35 0 -47t37 -16l129 -13l-17 -57h-215q-179 0 -329 -14zM315 174q0 -68 38 -101.5t96 -33.5q104 0 192 113q78 96 133 246.5t55 275.5q0 55 -22.5 93t-63.5 38h-2q-70 0 -148.5 -78t-146.5 -192q-49 -78 -90 -188t-41 -173z" />
<glyph unicode="q" horiz-adv-x="1030" d="M70 190q0 176 102 364.5t270 287.5q102 61 211 61q152 0 189 -115l28 91h181q-106 -313 -199 -648q-137 -498 -154 -579q-2 -8 -2 -15q0 -29 35 -32l111 -17l-17 -57q-59 4 -252 4q-152 0 -282 -12l14 57q57 8 121 21q51 8 72 59q31 80 176 563q-201 -252 -418 -252 q-90 0 -138 58.5t-48 160.5zM274 186q0 -51 21.5 -83.5t58.5 -32.5q133 0 287 227q53 80 101.5 203t48.5 186q0 61 -28 103t-85 42h-2q-92 0 -178 -94q-100 -113 -162 -265.5t-62 -285.5z" />
<glyph unicode="r" horiz-adv-x="780" d="M51 -18q70 190 138.5 429.5t78.5 344.5q2 37 -28 37h-115l22 57q205 12 334 53q-6 -35 -19 -95t-32 -135l-27 -108h9q86 176 164.5 257t166.5 81q53 0 80 -34.5t27 -77.5q0 -66 -36 -103t-77 -37q-45 0 -57 41q-12 47 -45 47q-49 0 -116.5 -100t-121.5 -231 q-78 -182 -141 -410q-105 -6 -205 -16z" />
<glyph unicode="s" horiz-adv-x="780" d="M23 55q37 92 96 299l53 6q-18 -55 -18 -133q0 -6 -1 -12q0 -79 49 -128q52 -52 152 -52q72 0 120 35.5t48 101.5q0 63 -59 111q-49 43 -170 133q-111 78 -111 198q0 131 105 220q84 70 219 69q63 0 117.5 -21.5t76.5 -50.5l56 78l43 -22q-72 -160 -111 -322l-49 -2 q9 50 9 92q0 68 -24 113q-40 74 -137 74q-66 0 -104.5 -40t-38.5 -97q0 -68 59 -117l107 -78l88 -64q96 -68 96 -182q0 -125 -100 -207q-102 -86 -275 -86q-169 0 -296 84z" />
<glyph unicode="t" horiz-adv-x="630" d="M103 39q-10 28 -10 59q0 46 22 101l180 594l-143 14l26 61h139q20 61 74 248q143 18 217 45q-16 -41 -100 -293h221l-31 -61l-213 -14q-133 -412 -192 -660q-4 -17 -4 -30q0 -44 43 -44q61 0 132 71t103 153l31 -72q-57 -113 -156.5 -176.5t-197.5 -63.5q-115 0 -141 68z " />
<glyph unicode="u" horiz-adv-x="1077" d="M103 44q-11 28 -10 64q0 55 26 125l96 296q68 206 76 235q4 18 -1 25.5t-28 5.5l-117 -2l29 59q256 25 358 51q-37 -63 -119.5 -317t-117.5 -402q-6 -27 -6 -46q0 -60 55 -60q104 0 217 128t174 290q53 145 86 266q10 33 -26 33l-113 -2l25 59q229 16 356 51 q-59 -141 -137 -382.5t-111 -383.5q-4 -20 -4 -34q0 -32 23 -31q39 0 97 58t99 140l39 -47q-55 -109 -142 -181.5t-194 -72.5q-105 0 -105 102q0 45 21 111q18 61 21 68q-86 -127 -195.5 -203t-224.5 -76q-119 0 -147 73z" />
<glyph unicode="v" horiz-adv-x="888" d="M84 797l20 55q209 14 338 51q-29 -139 -39 -467q-6 -150 -6 -284q147 147 254 321t111 293v19q0 46 -8 85q115 49 135 50q6 0 14 -14.5t14.5 -41t6.5 -53.5q0 -80 -62 -180q-68 -113 -235.5 -314.5t-280.5 -322.5q-51 -2 -141 -21q22 502 22 702q0 57 -2 89q0 35 -32 35z " />
<glyph unicode="w" horiz-adv-x="1353" d="M98 797l21 57q227 12 350 49q-37 -109 -92 -708l190 277q119 177 152 237q8 31 24 159q35 0 195 27q-35 -156 -47 -502q-5 -115 -5 -198q0 -28 1 -52q334 373 344 621q1 10 0 21q0 34 -4 83q90 50 123 50q6 0 15 -15.5t16.5 -44.5t7.5 -57q-4 -80 -56 -178 q-53 -96 -215 -298t-280 -331q-86 -10 -144 -21q6 385 25 615l-84 -121l-163 -239l-153 -234l-141 -21q68 596 68 787q-2 39 -37 39z" />
<glyph unicode="x" horiz-adv-x="964" d="M-45 66q0 47 30.5 77.5t69.5 30.5q35 0 54 -37q18 -39 43 -39q74 0 282 326q-61 268 -78 317q-8 33 -19 42.5t-34 9.5q-66 0 -127 -11l10 58q252 39 334 65q8 -49 68 -317l88 118q31 40 82 96t98 80.5t96 24.5q61 0 86 -24q-2 -6 -7 -24.5t-7 -24.5h-5q-100 0 -196 -79 q-98 -81 -217 -241q29 -164 66 -297q33 -121 73 -121q70 0 162 164l37 -41q-125 -250 -305 -250q-63 0 -95 49.5t-61 165.5l-30 158q-141 -221 -201 -287q-90 -102 -186 -102q-49 0 -80 31t-31 82z" />
<glyph unicode="y" horiz-adv-x="892" d="M-172 -358q0 49 30.5 79.5t69.5 30.5q45 0 66 -49q23 -68 63 -68q57 0 118 74t140 238q-29 27 -36 121q-14 391 -54 684q-6 35 -32 42q-21 6 -86 5h-41l16 57q223 14 344 53q-1 -24 -1 -54q0 -61 3 -146q4 -129 14 -305l13 -211q158 307 213 403q86 156 169 235.5 t199 81.5l6 -51q-121 -33 -297 -309q-170 -268 -376 -662q-119 -217 -204 -302t-188 -85q-74 0 -111.5 41.5t-37.5 96.5z" />
<glyph unicode="z" horiz-adv-x="862" d="M-25 25q43 70 111 131q111 94 304.5 273t305.5 302q-313 -2 -381 -16q-35 -8 -68.5 -51t-80.5 -138l-43 23q133 299 145 358q23 -18 76 -24q53 -9 338 -9q158 0 201 21l16 -18q-55 -109 -133 -183q-102 -104 -557 -528h8q40 0 137 -16q174 -33 219 -33q80 0 116 34.5 t36 81.5q0 29 -6 57.5t6 47.5q10 18 33.5 37.5t40.5 19.5h2q23 0 22 -49q0 -182 -198 -334q-76 -55 -158 -55q-72 0 -234 47q-94 25 -135 25q-49 0 -102 -37z" />
<glyph unicode="{" horiz-adv-x="684" d="M123 500l16 61q96 0 152.5 42t83.5 149q12 55 34.5 180t32.5 172q23 100 71 173t111.5 109.5t127.5 51.5q49 11 100 11q14 0 29 -1l-23 -64q-117 -4 -172 -57t-74 -178q-6 -39 -15 -106.5t-17.5 -120t-18.5 -95.5q-33 -131 -102.5 -198.5t-202.5 -98.5q104 -43 142 -113 q21 -39 21 -94q0 -45 -13 -100q-16 -59 -99 -278q-44 -111 -44 -175q0 -22 5 -37q20 -62 142 -71l-19 -61q-55 0 -106.5 14t-99.5 52t-60 104q-5 25 -5 53q0 49 13 110q12 47 64.5 197t64.5 203q8 34 8 60q0 42 -20 65q-33 37 -127 41z" />
<glyph unicode="|" horiz-adv-x="614" d="M238 -512v2048h145v-2048h-145z" />
<glyph unicode="}" horiz-adv-x="684" d="M-104 -397l18 63q117 4 173 57.5t75 178.5l13 105q9 73 17.5 123t18.5 95q31 127 102.5 193.5t204.5 103.5q-104 41 -143 112t-8 191q18 66 98 275q41 109 46 166t-28.5 86.5t-117.5 36.5l18 59q55 2 106.5 -13.5t98.5 -53.5t60.5 -102.5t-7.5 -162.5 q-12 -45 -64.5 -195.5t-64.5 -205.5q-20 -86 13.5 -123t125.5 -41l-14 -62q-96 0 -153.5 -40.5t-82.5 -139.5q-14 -59 -37.5 -191t-31.5 -173q-29 -131 -107 -214t-159.5 -108.5t-169.5 -19.5z" />
<glyph unicode="~" horiz-adv-x="1073" d="M94 311q16 371 248 371q111 0 221 -143q102 -133 162 -133q49 0 82 52t45 212l109 -19q-16 -369 -242 -368q-66 0 -120 39.5t-118 121.5l-53 63.5t-44 37t-52 18.5q-106 0 -129 -266z" />
<glyph unicode="&#xa1;" horiz-adv-x="436" d="M-100 -276q10 43 80 165q156 268 233 541h61q-70 -270 -75 -547q-4 -131 -17 -178q-14 -59 -71.5 -112.5t-114.5 -53.5h-2q-39 0 -77 55q-25 36 -25 80q1 24 8 50zM193 735q2 66 42.5 107t100.5 41h2q51 0 80 -34q27 -32 27 -84q0 -69 -46 -116q-41 -43 -98 -43 q-53 0 -83 36q-26 31 -26 80q1 6 1 13z" />
<glyph unicode="&#xa2;" d="M147 535q2 139 70 261t189 199q131 84 321 84l45 148l82 16l-57 -168q102 -10 162.5 -63.5t60.5 -132.5q0 -57 -33 -87t-74 -30q-35 2 -51 24.5t-8 57.5q14 33 14 67q0 87 -92 107l-227 -729q240 6 356 239h35l-10 -108q-55 -78 -163 -136.5t-241 -66.5l-49 -168l-86 -16 l62 184q-143 10 -224.5 91.5t-81.5 226.5zM356 518q0 -82 32 -143.5t93 -75.5l230 723q-156 -14 -254.5 -168t-100.5 -336z" />
<glyph unicode="&#xa3;" d="M-57 16l77 113q78 43 131.5 95t79.5 143q33 115 45 251q-102 0 -200 -4l39 74q33 -2 168 -2q23 199 65 297q63 164 197 242q104 55 217 55q139 0 201.5 -62.5t62.5 -148.5q0 -53 -31.5 -89t-70.5 -36q-43 0 -60.5 22.5t-9.5 57.5q14 47 14 80q0 119 -123 119 q-145 0 -198 -238q-20 -100 -45 -299q190 0 323 6l-45 -80q-129 6 -288 6q-29 -170 -101 -270q-76 -104 -223 -190q561 10 592 24q27 14 43 43q35 59 74 144l61 2q-92 -219 -125 -373l-18 -10q-78 6 -295 10q-111 2 -307 2q-74 0 -240 -6z" />
<glyph unicode="&#xa4;" d="M68 229l161 127q-47 66 -47 181v18q4 88 44 177t106 149l-117 127l94 90l99 -158q102 68 229 68h2q125 0 195 -68l143 152l70 -88l-166 -132q45 -68 45 -176v-18q-6 -197 -144 -324l121 -133l-94 -88l-102 164q-96 -68 -232 -68q-127 0 -199 68l-145 -156zM326 535 q0 -9 -1 -18q0 -94 43 -148q46 -59 126 -60q139 0 213.5 128t78.5 274q0 9 1 17q0 87 -38 142q-42 61 -133 62h-2q-125 0 -203.5 -125t-84.5 -272z" />
<glyph unicode="&#xa5;" d="M72 -6l18 57q29 2 77 8.5t50 6.5q59 12 76 63q35 96 86 281q-184 0 -244 -4l31 73q18 0 95 -2t136 -2l45 160q-211 0 -258 -4l37 74q10 0 37 -2l79 -3q52 -2 114 -2q-49 274 -105 420q-18 53 -44 67.5t-97 16.5l18 58q29 0 104.5 -3.5t116.5 -3.5q59 0 140.5 3.5 t105.5 3.5l-16 -56l-96 -12q-29 -4 -23 -37q6 -43 38 -191.5t42 -205.5q213 270 291 379q12 18 15 28.5t-8 18.5t-36 11t-70 7l23 58q25 0 89.5 -3.5t95 -3.5t92 3.5t90.5 3.5l-15 -58q-66 -4 -102.5 -21.5t-91.5 -72.5q-109 -106 -349 -412q119 0 261 6l-37 -73 q-14 0 -51 1t-93.5 3t-105.5 2l-45 -162q160 0 258 4l-37 -74q-10 0 -48 1.5t-94.5 3.5t-95.5 2q-55 -190 -75 -299q-3 -9 -3 -17q0 -27 35 -31q59 -6 142 -12l-21 -57q-276 6 -313 6z" />
<glyph unicode="&#xa6;" horiz-adv-x="614" d="M238 -358v716h145v-716h-145zM238 666v716h145v-716h-145z" />
<glyph unicode="&#xa7;" horiz-adv-x="956" d="M72 24q32 36 78 35q49 0 67 -43q14 -27 -4 -53q-23 -27 -23 -57q0 -41 33 -70t92 -29q70 0 115 40t47 106v5q0 70 -53 151q-166 264 -199 329q-49 98 -49 201q0 147 77 280.5t200 231.5q150 117 282 117h4q88 0 147.5 -43t59.5 -121q0 -51 -29.5 -85t-68.5 -34 q-41 0 -60 25q-18 20 -2 55q10 27 11 53q0 37 -28 61.5t-85 24.5t-95 -40t-40 -97q-1 -8 -1 -16q0 -52 23 -97q12 -25 108.5 -174t131.5 -217q43 -80 43 -182q0 -123 -65.5 -250t-163.5 -217q-182 -170 -355 -170q-96 0 -165 48q-67 47 -66 135q0 59 33 97zM301 758 q0 -121 72 -240l88 -144t80 -132q59 -96 59 -193q0 -47 -14 -94q139 117 139 311q0 92 -39 170q-31 63 -118 201.5t-99 161.5q-45 84 -45 166q0 53 18 104q-141 -127 -141 -309v-2z" />
<glyph unicode="&#xa8;" horiz-adv-x="894" d="M416 1265q37 34 84 33h2q45 0 68 -28q22 -26 22 -72v-8q-2 -53 -40 -87t-83 -34q-41 0 -68 28q-25 26 -24 71q0 61 39 97zM770 1265q37 34 82 33h2q93 0 93 -96q0 -6 -1 -12q-2 -55 -39 -88t-84 -33q-41 0 -67 28q-25 26 -25 71q0 61 39 97z" />
<glyph unicode="&#xa9;" horiz-adv-x="1497" d="M180 659q0 276 179.5 466t445.5 190h2q270 0 445 -188.5t175 -467.5q0 -281 -178 -467t-444 -186q-270 0 -447.5 185t-177.5 468zM266 659q0 -256 153.5 -421.5t389.5 -165.5q229 0 381.5 165.5t152.5 421.5q0 254 -147 421t-391 167h-2q-231 0 -384 -166t-153 -422z M471 662q0 168 113 268q96 86 258 86q113 0 182 -47q10 -6 18 4l17 39l41 -6q-11 -69 -11 -151q0 -55 5 -116h-43q-14 106 -60 160q-51 63 -135 64q-88 0 -139 -64q-59 -78 -60 -219q0 -145 58 -213q59 -70 153 -70q152 0 213 166l43 -22q-29 -113 -113.5 -164t-187.5 -51 q-182 0 -274 104q-78 85 -78 232z" />
<glyph unicode="&#xaa;" horiz-adv-x="768" d="M152 692q0 98 63.5 213t161.5 180q90 61 182 62q88 0 113 -68l14 39h156q-111 -268 -152 -450q-6 -35 10 -35q29 0 69 38t71 97l32 -33q-96 -186 -251 -186q-81 0 -81 76q0 28 11 67q4 8 8 22.5t6 18.5q-147 -184 -291 -184q-61 0 -91.5 38.5t-30.5 104.5zM319 698 q0 -63 39 -63q90 0 193 160q31 45 57.5 112.5t26.5 104.5q0 35 -16.5 57.5t-43.5 22.5h-2q-61 0 -118 -72q-57 -66 -95.5 -156t-40.5 -166z" />
<glyph unicode="&#xab;" horiz-adv-x="952" d="M113 422l28 47q94 35 204 132t198 233l49 -29q-70 -154 -256 -371q68 -158 76 -371l-52 -34q-37 147 -107 258.5t-140 134.5zM502 422l26 45q109 45 207.5 141.5t167.5 198.5l41 -35q-37 -78 -109.5 -179t-132.5 -163q29 -72 51.5 -177.5t24.5 -168.5l-53 -31 q-33 129 -93 226.5t-130 142.5z" />
<glyph unicode="&#xac;" horiz-adv-x="1073" d="M102 610v111h848v-522h-114v411h-734z" />
<glyph unicode="&#xad;" horiz-adv-x="618" d="M82 387l47 131q213 -6 451 0l-45 -131q-234 6 -453 0z" />
<glyph unicode="&#xae;" horiz-adv-x="538" d="M215 1087q0 98 65.5 166t159.5 68h2q96 0 160 -67.5t64 -166.5q0 -96 -65.5 -163.5t-162.5 -67.5q-94 0 -158.5 67.5t-64.5 163.5zM264 1087q0 -80 51.5 -135t127 -55t127 55.5t51.5 134.5q0 82 -51.5 138.5t-131.5 56.5h-2q-72 0 -122 -55.5t-50 -139.5zM324 1167l2 25 q4 0 25.5 -1t29.5 -1t32.5 1t45.5 1q72 0 71 -49q0 -37 -55 -47v-2q41 -4 53 -29q6 -18 9 -31q2 -20 18 -20q8 0 12 2l-2 -25q-33 -4 -47 -4q-41 0 -45 43q0 18 -2 25q-2 18 -27 22h-28q0 -10 1 -27.5t1 -23.5q0 -8 8 -8l20 -4v-25h-116v25l14 2q12 0 14 8q2 14 2 72 q0 53 -2 61q0 8 -8 8zM416 1102q14 0 24 2q29 0 29 31v2q0 33 -33 32q-18 0 -20 -6v-61z" />
<glyph unicode="&#xaf;" horiz-adv-x="899" d="M416 1090l45 127h434l-43 -127h-436z" />
<glyph unicode="&#xb0;" horiz-adv-x="657" d="M276 1075q6 121 83 188.5t192 67.5h2q102 0 165 -66q59 -62 58 -160v-13q-4 -115 -81 -182.5t-185 -67.5q-106 0 -172 61q-62 58 -62 159v13zM412 1092q-1 -15 -1 -29q0 -67 24 -107q30 -47 79 -47q119 0 131 189v17q0 151 -102 153h-2q-47 0 -78 -34t-40 -69.5 t-11 -72.5z" />
<glyph unicode="&#xb1;" horiz-adv-x="1069" d="M100 10v109h854v-109h-854zM100 567v109h369v348h117v-348h368v-109h-368v-370h-117v370h-369z" />
<glyph unicode="&#xb2;" horiz-adv-x="716" d="M145 879l50 88q295 150 395 290q59 82 59 173q0 117 -94 116q-106 0 -133 -170q-14 -68 -72 -67q-72 0 -71 80q0 72 82.5 142.5t218.5 70.5q104 0 171.5 -52.5t67.5 -150.5q0 -117 -141 -213q-31 -20 -322 -191q199 4 303 13q25 2 46 26q25 31 61 88l41 -20 q-92 -182 -111 -240q-6 0 -49 1l-132 3q-89 2 -210 2q-115 0 -155 -2z" />
<glyph unicode="&#xb3;" horiz-adv-x="716" d="M176 1010q0 35 22.5 59.5t61.5 24.5q51 0 55 -70q14 -119 119 -119q72 0 118 56.5t46 136.5q0 121 -129 121q-27 0 -72 -9l-22 35l14 23q76 4 125 24q137 35 137 146q0 100 -100 100q-61 0 -111.5 -43t-74.5 -123h-23l-41 62q23 57 108 112.5t193 55.5q102 0 159.5 -42 t57.5 -116q0 -88 -102 -137q-45 -23 -146 -45v-9q117 -8 170 -59q43 -37 43 -107q-4 -109 -112 -176q-100 -59 -244 -59q-104 0 -178 43t-74 115z" />
<glyph unicode="&#xb4;" horiz-adv-x="894" d="M524 1026q25 33 108 162t99 151q55 74 115 74q63 -4 59 -72q0 -57 -69 -118q-16 -16 -55 -48l-100 -84l-116 -98z" />
<glyph unicode="&#xb5;" horiz-adv-x="1056" d="M-111 -440l82 229l90 249q35 97 43 126q16 63 110.5 366.5t107.5 350.5q102 0 221 20q-41 -63 -129 -328.5t-113 -394.5q-5 -25 -5 -43q0 -55 46 -55q96 0 203.5 130t169.5 290q70 182 119 381q76 0 217 22q-63 -141 -146.5 -393t-116.5 -401q-10 -49 15 -50 q41 0 99.5 55.5t107.5 153.5l28 -67q-47 -96 -135 -165t-194 -69q-61 0 -93 31q-19 18 -19 50q0 19 7 44l53 166q-84 -129 -184 -207q-98 -76 -180 -76h-4q-53 0 -84 39q-66 -238 -117 -508l-16 -12q-66 2 -118.5 25t-64.5 41z" />
<glyph unicode="&#xb6;" horiz-adv-x="1058" d="M109 -195q0 61 40.5 107.5t96.5 46.5q66 0 90 -51q14 -25 -6 -29q-47 -2 -75 -27.5t-28 -64.5q0 -47 31 -76.5t92 -29.5q102 0 163.5 96t139.5 397l25 94q-137 -39 -178 -39q-117 0 -197 100q-78 97 -78 249q0 164 84 298q82 130 215 195q88 45 209 45q117 0 248 -4 q14 -1 34 0q59 0 167 4l-21 -57l-123 -12q-20 -4 -31.5 -9.5t-21.5 -23t-20 -53.5l-189 -685q-59 -215 -82.5 -292.5t-65.5 -161.5t-98 -133q-84 -76 -202 -76q-98 0 -158.5 47t-60.5 145z" />
<glyph unicode="&#xb7;" horiz-adv-x="401" d="M145 553q41 45 99 45q55 0 85 -37q26 -32 26 -82q0 -7 -1 -14q-4 -66 -46 -106t-103 -40h-2q-47 0 -76 34q-27 32 -27 84q0 66 45 116z" />
<glyph unicode="&#xb8;" horiz-adv-x="915" d="M166 -387l24 57q49 -27 99 -26q88 0 88 71q0 37 -34 58.5t-91 21.5l-6 23l166 196h67q-23 -25 -92 -114q47 -12 85 -48t38 -96q0 -94 -61.5 -140t-149.5 -46q-82 0 -133 43z" />
<glyph unicode="&#xb9;" horiz-adv-x="716" d="M223 864l19 51l86 13q45 6 55 33q25 68 84 262q70 254 72 260q2 10 -1 16t-12 4q-39 0 -133 -4l25 53q240 29 303 47l8 -6q-63 -209 -104 -362q-53 -190 -70 -273q-4 -29 25 -30l102 -10l-18 -54q-41 0 -119 2t-109 2q-35 0 -106.5 -2t-106.5 -2z" />
<glyph unicode="&#xba;" horiz-adv-x="735" d="M174 758q0 160 117 274.5t278 114.5h2q106 0 173 -55.5t67 -159.5q0 -164 -116.5 -273.5t-280.5 -109.5q-94 0 -167 48t-73 161zM336 713q0 -55 25.5 -82t64.5 -27q66 0 119 60q49 55 79.5 149t30.5 168q0 111 -92 111h-2q-68 0 -127 -78q-41 -53 -69.5 -141t-28.5 -160z " />
<glyph unicode="&#xbb;" horiz-adv-x="948" d="M47 90q37 80 109.5 181.5t134.5 162.5q-33 74 -55 178q-21 96 -21 156v10l49 31q68 -266 228 -367l-29 -47q-106 -45 -205.5 -141t-171.5 -199zM399 57q76 166 254 371q-66 160 -73 371l51 35q37 -147 107.5 -258t140.5 -136l-29 -47q-96 -35 -204.5 -131t-199.5 -233z " />
<glyph unicode="&#xbc;" horiz-adv-x="1579" d="M172 561l18 51l86 13q43 6 54 32q29 70 84 263l73 260q2 10 -1 16t-11 4q-37 0 -135 -4l25 53q242 29 305 47l8 -6q-63 -209 -105 -362q-53 -190 -69 -273q-6 -29 22 -30l105 -11l-19 -53q-41 0 -118.5 2t-108.5 2q-35 0 -107.5 -2t-105.5 -2zM242 -8l1157 1378l63 -47 l-1161 -1386zM784 305l480 440q100 16 157 35l13 -8q-14 -47 -127 -471q84 2 149 31l-10 -47q-53 -37 -156 -47q-23 -82 -47 -189q-100 0 -166 -18l-12 8q31 82 59 194q-240 0 -336 31zM897 326q61 -27 248 -27l106 367q-192 -170 -354 -340z" />
<glyph unicode="&#xbd;" horiz-adv-x="1579" d="M137 561l19 51l86 13q45 6 55 32q25 70 84 265q66 233 72 258q2 10 -1 16t-12 4q-39 0 -133 -4l25 53q250 29 303 47l8 -6q-63 -209 -104 -362q-57 -215 -70 -273q-6 -29 25 -30l102 -11l-18 -53q-41 0 -119 2t-109 2q-35 0 -106.5 -2t-106.5 -2zM209 -8l1157 1376 l61 -47l-1161 -1384zM827 57l50 88q295 150 395 291q59 82 59 170q0 119 -94 119q-106 0 -135 -172q-8 -68 -70 -68q-72 0 -71 80q0 72 82.5 143.5t218.5 71.5q104 0 171.5 -53t67.5 -152q0 -117 -141 -213q-20 -14 -324 -188q201 4 305 12q25 2 45 27q31 35 62 88l41 -20 q-90 -174 -111 -240q-6 0 -49 2t-132 3t-208 1q-117 0 -158 -2z" />
<glyph unicode="&#xbe;" horiz-adv-x="1579" d="M150 707q0 35 22.5 59.5t60.5 24.5q51 0 58 -70q14 -119 117 -119q72 0 117.5 56.5t45.5 136.5q0 121 -127 120q-29 0 -73 -8l-23 35l14 23q76 4 125 24q137 35 138 146q0 100 -103 100q-59 0 -109.5 -43t-74.5 -123h-23l-41 62q23 57 108 112t193 55q102 0 160 -42 t58 -115q0 -88 -103 -137q-45 -23 -145 -46v-8q117 -8 170 -59q43 -37 43 -107q0 -106 -113 -176q-96 -59 -244 -59q-104 0 -177.5 43t-73.5 115zM287 -8l1155 1376l63 -47l-1159 -1384zM815 305l481 438q139 29 158 35l10 -8l-39 -142l-46 -177l-40 -150q84 2 150 31 l-10 -47q-53 -37 -156 -47q-23 -82 -47 -189q-98 0 -168 -18l-10 8q18 49 59 194q-236 0 -338 31zM928 324q74 -25 248 -25q35 111 108 365q-172 -147 -356 -340z" />
<glyph unicode="&#xbf;" horiz-adv-x="823" d="M139 109q156 94 244 163q79 62 79 145q0 16 -3 34l49 18q66 -93 65 -177v-5q-2 -94 -94 -166q-35 -29 -142.5 -108t-135.5 -103q-76 -61 -76 -148v-6q0 -65 40 -103q42 -40 109 -40q78 0 126.5 41t48.5 117q0 23 -9 59q-4 10 -3 21q0 24 20 45q29 33 82 32 q39 0 65.5 -28.5t26.5 -73.5q0 -115 -111.5 -195t-261.5 -80q-135 0 -217 75q-80 73 -80 204q0 165 178 279zM438 752q2 66 43 104.5t103 38.5h2q48 0 76 -33q27 -31 26 -81q0 -68 -45 -115q-41 -43 -98 -43q-53 0 -82 35q-25 31 -25 80q-1 7 0 14z" />
<glyph unicode="&#xc0;" horiz-adv-x="1204" d="M-106 -6l12 57q88 8 128 31.5t93 105.5l343 521l306 473q31 47 39 75l4 21h18q106 0 167 47l14 -8q-9 -175 -9 -498q0 -108 1 -231q2 -373 14 -473q4 -27 15.5 -37t33.5 -15l111 -12l-10 -57q-23 0 -118 3t-151 3q-43 0 -264 -6l16 57q92 8 114 21.5t24 60.5q8 197 8 387 q-233 0 -383 -22q-152 -246 -197 -342q-13 -30 -13 -49.5t13 -28.5q27 -18 144 -27l-13 -57q-33 0 -112.5 3t-116.5 3q-59 0 -137 -3t-94 -3zM471 578q74 8 332 16q0 8 12 528zM592 1585q-2 13 -3 24q0 55 60 70q17 5 34 5q42 0 81 -29q16 -12 118.5 -105.5t125.5 -111.5 l-31 -43q-152 49 -305 106q-27 10 -51.5 34.5t-28.5 49.5z" />
<glyph unicode="&#xc1;" horiz-adv-x="1204" d="M-106 -6l12 57q88 8 128 31.5t93 105.5l343 521l306 473q31 47 39 75l4 21h18q106 0 167 47l14 -8q-9 -175 -9 -498q0 -108 1 -231q2 -373 14 -473q4 -27 15.5 -37t33.5 -15l111 -12l-10 -57q-23 0 -118 3t-151 3q-43 0 -264 -6l16 57q92 8 114 21.5t24 60.5q8 197 8 387 q-233 0 -383 -22q-152 -246 -197 -342q-13 -30 -13 -49.5t13 -28.5q27 -18 144 -27l-13 -57q-33 0 -112.5 3t-116.5 3q-59 0 -137 -3t-94 -3zM471 578q74 8 332 16q0 8 12 528zM817 1442l145 113l140 110q43 31 85 31q16 0 32 -4q51 -11 51 -60q0 -14 -4 -30 q-16 -59 -97 -93q-53 -20 -323 -112z" />
<glyph unicode="&#xc2;" horiz-adv-x="1204" d="M-106 -6l12 57q88 8 128 31.5t93 105.5l343 521l306 473q31 47 39 75l4 21h18q106 0 167 47l14 -8q-9 -175 -9 -498q0 -108 1 -231q2 -373 14 -473q4 -27 15.5 -37t33.5 -15l111 -12l-10 -57q-23 0 -118 3t-151 3q-43 0 -264 -6l16 57q92 8 114 21.5t24 60.5q8 197 8 387 q-233 0 -383 -22q-152 -246 -197 -342q-13 -30 -13 -49.5t13 -28.5q27 -18 144 -27l-13 -57q-33 0 -112.5 3t-116.5 3q-59 0 -137 -3t-94 -3zM471 578q74 8 332 16q0 8 12 528zM651 1436q205 119 310 241l51 8q16 -49 69.5 -120.5t132.5 -128.5l-38 -50q-121 45 -224 117 q-135 -70 -280 -117z" />
<glyph unicode="&#xc3;" horiz-adv-x="1204" d="M-106 -6l12 57q88 8 128 31.5t93 105.5l343 521l306 473q31 47 39 75l4 21h18q106 0 167 47l14 -8q-9 -175 -9 -498q0 -108 1 -231q2 -373 14 -473q4 -27 15.5 -37t33.5 -15l111 -12l-10 -57q-23 0 -118 3t-151 3q-43 0 -264 -6l16 57q92 8 114 21.5t24 60.5q8 197 8 387 q-233 0 -383 -22q-152 -246 -197 -342q-13 -30 -13 -49.5t13 -28.5q27 -18 144 -27l-13 -57q-33 0 -112.5 3t-116.5 3q-59 0 -137 -3t-94 -3zM471 578q74 8 332 16q0 8 12 528zM662 1405q4 104 46 177t126 73q59 0 137 -66q63 -55 94 -55q55 0 68 127l65 -12 q-4 -109 -43 -178.5t-117 -69.5q-57 0 -145 76q-61 47 -90 47q-27 0 -48.5 -36t-25.5 -91z" />
<glyph unicode="&#xc4;" horiz-adv-x="1204" d="M-106 -6l12 57q88 8 128 31.5t93 105.5l343 521l306 473q31 47 39 75l4 21h18q106 0 167 47l14 -8q-9 -175 -9 -498q0 -108 1 -231q2 -373 14 -473q4 -27 15.5 -37t33.5 -15l111 -12l-10 -57q-23 0 -118 3t-151 3q-43 0 -264 -6l16 57q92 8 114 21.5t24 60.5q8 197 8 387 q-233 0 -383 -22q-152 -246 -197 -342q-13 -30 -13 -49.5t13 -28.5q27 -18 144 -27l-13 -57q-33 0 -112.5 3t-116.5 3q-59 0 -137 -3t-94 -3zM471 578q74 8 332 16q0 8 12 528zM631 1522q6 53 42 86.5t83 33.5h2q47 0 71 -31q21 -27 22 -66q0 -6 -1 -13q-6 -53 -45 -87 t-82 -34t-71 28q-23 23 -22 63q0 10 1 20zM1018 1522q6 53 42 86.5t83 33.5h2q47 0 72 -31q21 -27 21 -66q0 -6 -1 -13q-6 -53 -45 -87t-82 -34t-71 28q-23 23 -22 63q0 10 1 20z" />
<glyph unicode="&#xc5;" horiz-adv-x="1204" d="M-106 -6l12 57q88 8 128 31.5t93 105.5l343 521l306 473q31 47 39 75l4 21h18q106 0 167 47l14 -8q-9 -175 -9 -498q0 -108 1 -231q2 -373 14 -473q4 -27 15.5 -37t33.5 -15l111 -12l-10 -57q-23 0 -118 3t-151 3q-43 0 -264 -6l16 57q92 8 114 21.5t24 60.5q8 197 8 387 q-233 0 -383 -22q-152 -246 -197 -342q-13 -30 -13 -49.5t13 -28.5q27 -18 144 -27l-13 -57q-33 0 -112.5 3t-116.5 3q-59 0 -137 -3t-94 -3zM471 578q74 8 332 16q0 8 12 528zM745 1554q12 90 77 140.5t157 50.5h2q84 0 129 -48q35 -38 35 -98q0 -16 -2 -34 q-10 -88 -74.5 -137.5t-153.5 -49.5q-84 0 -132 47q-40 39 -39 102q-1 13 1 27zM866 1559q-3 -19 -2 -36q0 -34 12 -55q17 -31 52 -30q80 0 98 137q2 14 2 26q0 28 -9 53q-13 36 -54 36h-2q-43 0 -67 -41t-30 -90z" />
<glyph unicode="&#xc6;" horiz-adv-x="1687" d="M-127 -6l14 57q88 8 132 37t120 131q297 416 733 973q29 31 -10 35l-170 12l19 57q49 0 183 -3t191 -3h375q203 0 301 15q-25 -55 -102 -361h-53q8 67 8 126q0 29 -2 56q-6 61 -44 81t-165 20h-143q-33 0 -43 -33q-61 -205 -136 -524h131h13q101 0 145 32q47 35 88 136 h53q-66 -193 -122 -465l-52 4q7 64 8 110v12q-1 50 -36 75.5t-115 25.5h-131q-90 -375 -111 -485q-6 -33 16.5 -42.5t125.5 -9.5q145 0 213.5 14.5t115.5 55.5q90 74 179 234l49 -19q-113 -303 -142 -360q-43 4 -161 8q-156 4 -328 4h-195q-86 0 -295 -6l19 57l110 12 q49 6 68 70q63 209 127 467q-170 0 -340 -6q-209 -285 -297 -438q-20 -31 -20 -51q0 -15 11 -23q26 -20 146 -31l-16 -57q-39 0 -112.5 3t-110.5 3q-39 0 -121 -3t-121 -3zM571 672q127 -3 219 -3q46 0 82 1l142 555h-29q-152 -184 -414 -553z" />
<glyph unicode="&#xc7;" horiz-adv-x="1193" d="M150 444q0 199 83.5 394.5t233.5 326.5q184 158 438 158q104 0 187.5 -34t119.5 -89l72 109l45 -19q-96 -250 -133 -434l-53 -2q12 72 12 132q0 100 -35 163q-66 109 -200 108q-174 0 -297 -145q-117 -137 -177.5 -322.5t-60.5 -375.5q0 -176 70 -264q76 -104 215 -105 q154 0 258 78t176 233h35q4 -57 4 -114q-68 -115 -193 -186.5t-272 -84.5l-55 -69q123 -35 122 -148q0 -94 -60 -139t-150 -45q-80 0 -136 41l27 57q49 -27 98 -26q88 0 88 73q0 37 -34.5 58.5t-90.5 21.5l-6 23l127 149h-12q-217 4 -331.5 129t-114.5 348z" />
<glyph unicode="&#xc8;" horiz-adv-x="1130" d="M-53 -6l16 55l113 12q31 4 45 17.5t26 50.5q57 162 168 553q98 336 136 498q6 25 -2.5 36t-38.5 13l-119 10l18 57q33 0 141.5 -3t163.5 -3h318q207 0 289 13q-31 -59 -109 -363h-49q9 87 8 160v28q-2 61 -41 80t-174 19h-135q-31 0 -43 -35q-63 -174 -143 -483 q16 -4 143 -4q100 0 142 32.5t93 132.5h52q-74 -193 -131 -460l-50 2q6 56 6 96q0 58 -12 85q-20 46 -125 46q-119 0 -141 -4q-113 -408 -137 -518q-8 -20 -1 -32.5t37.5 -18t104.5 -5.5q152 0 218.5 13.5t115.5 54.5q80 63 182 236l49 -21q-6 -16 -70.5 -172t-80.5 -186 q-27 4 -162 10q-156 4 -330 4h-198q-29 0 -86.5 -1t-81.5 -1q-102 -4 -125 -4zM543 1585q-2 13 -3 24q0 55 60 70q17 5 34 5q42 0 81 -29q16 -12 118.5 -105.5t124.5 -111.5l-30 -43q-152 49 -305 106q-27 10 -51.5 34.5t-28.5 49.5z" />
<glyph unicode="&#xc9;" horiz-adv-x="1130" d="M-53 -6l16 55l113 12q31 4 45 17.5t26 50.5q57 162 168 553q98 336 136 498q6 25 -2.5 36t-38.5 13l-119 10l18 57q33 0 141.5 -3t163.5 -3h318q207 0 289 13q-31 -59 -109 -363h-49q9 87 8 160v28q-2 61 -41 80t-174 19h-135q-31 0 -43 -35q-63 -174 -143 -483 q16 -4 143 -4q100 0 142 32.5t93 132.5h52q-74 -193 -131 -460l-50 2q6 56 6 96q0 58 -12 85q-20 46 -125 46q-119 0 -141 -4q-113 -408 -137 -518q-8 -20 -1 -32.5t37.5 -18t104.5 -5.5q152 0 218.5 13.5t115.5 54.5q80 63 182 236l49 -21q-6 -16 -70.5 -172t-80.5 -186 q-27 4 -162 10q-156 4 -330 4h-198q-29 0 -86.5 -1t-81.5 -1q-102 -4 -125 -4zM705 1442l144 113l140 110q43 31 85 31q16 0 32 -4q51 -11 51 -60q0 -14 -4 -30q-16 -59 -96 -93q-53 -20 -324 -112z" />
<glyph unicode="&#xca;" horiz-adv-x="1130" d="M-53 -6l16 55l113 12q31 4 45 17.5t26 50.5q57 162 168 553q98 336 136 498q6 25 -2.5 36t-38.5 13l-119 10l18 57q33 0 141.5 -3t163.5 -3h318q207 0 289 13q-31 -59 -109 -363h-49q9 87 8 160v28q-2 61 -41 80t-174 19h-135q-31 0 -43 -35q-63 -174 -143 -483 q16 -4 143 -4q100 0 142 32.5t93 132.5h52q-74 -193 -131 -460l-50 2q6 56 6 96q0 58 -12 85q-20 46 -125 46q-119 0 -141 -4q-113 -408 -137 -518q-8 -20 -1 -32.5t37.5 -18t104.5 -5.5q152 0 218.5 13.5t115.5 54.5q80 63 182 236l49 -21q-6 -16 -70.5 -172t-80.5 -186 q-27 4 -162 10q-156 4 -330 4h-198q-29 0 -86.5 -1t-81.5 -1q-102 -4 -125 -4zM559 1446q205 119 309 242l52 8q16 -49 69 -121t133 -129l-39 -49q-121 45 -223 116q-135 -70 -280 -116z" />
<glyph unicode="&#xcb;" horiz-adv-x="1130" d="M-53 -6l16 55l113 12q31 4 45 17.5t26 50.5q57 162 168 553q98 336 136 498q6 25 -2.5 36t-38.5 13l-119 10l18 57q33 0 141.5 -3t163.5 -3h318q207 0 289 13q-31 -59 -109 -363h-49q9 87 8 160v28q-2 61 -41 80t-174 19h-135q-31 0 -43 -35q-63 -174 -143 -483 q16 -4 143 -4q100 0 142 32.5t93 132.5h52q-74 -193 -131 -460l-50 2q6 56 6 96q0 58 -12 85q-20 46 -125 46q-119 0 -141 -4q-113 -408 -137 -518q-8 -20 -1 -32.5t37.5 -18t104.5 -5.5q152 0 218.5 13.5t115.5 54.5q80 63 182 236l49 -21q-6 -16 -70.5 -172t-80.5 -186 q-27 4 -162 10q-156 4 -330 4h-198q-29 0 -86.5 -1t-81.5 -1q-102 -4 -125 -4zM551 1524q6 53 42 87t83 34h2q47 0 72 -32q21 -27 21 -66q0 -6 -1 -13q-6 -53 -45 -87t-82 -34t-71 28q-23 23 -22 64q0 9 1 19zM938 1524q6 53 42 87t83 34h2q47 0 72 -32q21 -27 21 -66 q0 -6 -1 -13q-6 -53 -45 -87t-82 -34t-71 28q-23 23 -22 64q0 9 1 19z" />
<glyph unicode="&#xcc;" horiz-adv-x="651" d="M-45 -6l20 57l88 8q37 4 54.5 17.5t32.5 54.5q37 109 157 520q102 352 144 512q8 35 -1.5 49.5t-41.5 16.5l-105 10l21 57q41 0 129 -3t133 -3q59 0 149 3t117 3l-18 -57l-89 -10q-31 -4 -46 -16.5t-27 -47.5q-45 -119 -156 -516q-125 -449 -141 -528q-6 -35 3 -46.5 t40 -15.5l108 -8l-18 -57q-31 0 -135.5 3t-155.5 3q-63 0 -150 -3t-112 -3zM309 1585q-2 13 -2 24q0 55 60 70q17 5 33 5q42 0 81 -29q16 -12 118.5 -105.5t125.5 -111.5l-31 -43q-152 49 -305 106q-27 10 -51.5 34.5t-28.5 49.5z" />
<glyph unicode="&#xcd;" horiz-adv-x="651" d="M-45 -6l20 57l88 8q37 4 54.5 17.5t32.5 54.5q37 109 157 520q102 352 144 512q8 35 -1.5 49.5t-41.5 16.5l-105 10l21 57q41 0 129 -3t133 -3q59 0 149 3t117 3l-18 -57l-89 -10q-31 -4 -46 -16.5t-27 -47.5q-45 -119 -156 -516q-125 -449 -141 -528q-6 -35 3 -46.5 t40 -15.5l108 -8l-18 -57q-31 0 -135.5 3t-155.5 3q-63 0 -150 -3t-112 -3zM485 1438l145 113l140 110q43 31 85 31q16 0 32 -4q51 -11 51 -60q0 -14 -4 -31q-16 -59 -96 -92q-53 -20 -324 -112z" />
<glyph unicode="&#xce;" horiz-adv-x="651" d="M-45 -6l20 57l88 8q37 4 54.5 17.5t32.5 54.5q37 109 157 520q102 352 144 512q8 35 -1.5 49.5t-41.5 16.5l-105 10l21 57q41 0 129 -3t133 -3q59 0 149 3t117 3l-18 -57l-89 -10q-31 -4 -46 -16.5t-27 -47.5q-45 -119 -156 -516q-125 -449 -141 -528q-6 -35 3 -46.5 t40 -15.5l108 -8l-18 -57q-31 0 -135.5 3t-155.5 3q-63 0 -150 -3t-112 -3zM336 1442q205 119 309 241l51 9q16 -49 69.5 -121t133.5 -129l-39 -49q-121 45 -223 116q-135 -70 -281 -116z" />
<glyph unicode="&#xcf;" horiz-adv-x="651" d="M-45 -6l20 57l88 8q37 4 54.5 17.5t32.5 54.5q37 109 157 520q102 352 144 512q8 35 -1.5 49.5t-41.5 16.5l-105 10l21 57q41 0 129 -3t133 -3q59 0 149 3t117 3l-18 -57l-89 -10q-31 -4 -46 -16.5t-27 -47.5q-45 -119 -156 -516q-125 -449 -141 -528q-6 -35 3 -46.5 t40 -15.5l108 -8l-18 -57q-31 0 -135.5 3t-155.5 3q-63 0 -150 -3t-112 -3zM336 1520q6 53 42 86.5t83 33.5h2q47 0 72 -31q21 -27 21 -66q0 -6 -1 -13q-6 -53 -45 -87t-82 -34t-71 28q-23 23 -22 63q0 10 1 20zM723 1520q6 53 42 86.5t83 33.5h2q47 0 72 -31q21 -27 21 -66 q0 -6 -1 -13q-6 -53 -45 -87t-82 -34t-71 28q-23 23 -22 63q0 10 1 20z" />
<glyph unicode="&#xd0;" horiz-adv-x="1372" d="M-27 -6l19 57l92 8q37 4 55.5 19.5t30.5 54.5q55 158 156 510q-23 1 -54 1q-61 0 -151 -3l31 76q14 0 194 -4q94 334 125 463q6 27 -5 37t-44 14l-121 12l23 57q12 0 95 -3t140 -3q55 0 159.5 3t160.5 3q248 0 368 -104q133 -115 133 -354q0 -262 -135 -479.5 t-346 -309.5q-135 -57 -346 -57q-49 0 -156 5q-76 4 -128 4q-21 0 -38 -1q-55 0 -148.5 -3t-109.5 -3zM395 95q0 -10 4 -17q6 -10 33 -16.5t74 -6.5q180 0 272 51q160 84 267.5 317.5t107.5 479.5q0 154 -63 232q-76 98 -250 98q-78 0 -103.5 -7t-31.5 -26 q-37 -86 -150 -489q213 4 309 8l-35 -82q-20 0 -121.5 2t-172.5 4l-45.5 -158.5l-40 -140.5l-28 -104t-20.5 -89t-6 -56z" />
<glyph unicode="&#xd1;" horiz-adv-x="1310" d="M-49 -6l20 57q16 0 103 15q49 12 82 86q59 150 288 993q3 13 4 24q0 49 -67 58l-115 12l21 57q16 0 90 -3t123 -3q78 0 147 6l379 -1024q209 772 223 893q4 33 -8 45.5t-53 16.5l-111 12l25 57q13 1 30 1q34 0 83 -3q75 -4 100 -4q31 0 117 4q57 3 89 3q16 0 25 -1 l-20 -57q-39 -2 -101 -14q-45 -6 -65 -58q-43 -104 -148.5 -477t-177.5 -692q-70 0 -145 -23q-33 109 -102 303l-158 444l-131 370q-205 -784 -232 -928q-5 -22 -4 -38q0 -50 41 -56q66 -12 137 -19l-18 -57q-39 0 -127 3t-127 3q-125 0 -217 -6zM690 1405q4 104 46 177 t126 73q59 0 137 -66q63 -55 95 -55q55 0 67 127l66 -12q-4 -109 -43 -178.5t-117 -69.5q-57 0 -145 76q-61 47 -91 47q-27 0 -48 -36t-25 -91z" />
<glyph unicode="&#xd2;" horiz-adv-x="1325" d="M143 416q0 215 101.5 438t265.5 344q170 125 385 125h2q213 0 327.5 -121t114.5 -340q0 -178 -69.5 -371.5t-186.5 -318.5q-195 -205 -487 -205q-211 0 -332 112t-121 337zM371 330q0 -150 61.5 -224.5t163.5 -74.5q160 0 272 143q111 143 180.5 372.5t69.5 428.5 q0 129 -54 209t-169 80h-2q-147 0 -266 -148q-111 -143 -183.5 -370.5t-72.5 -415.5zM633 1591q-2 13 -3 24q0 55 60 71q17 5 34 4q42 0 81 -29q16 -12 118.5 -105.5t125.5 -111.5l-31 -43q-152 49 -305 106q-27 10 -51.5 34.5t-28.5 49.5z" />
<glyph unicode="&#xd3;" horiz-adv-x="1325" d="M143 416q0 215 101.5 438t265.5 344q170 125 385 125h2q213 0 327.5 -121t114.5 -340q0 -178 -69.5 -371.5t-186.5 -318.5q-195 -205 -487 -205q-211 0 -332 112t-121 337zM371 330q0 -150 61.5 -224.5t163.5 -74.5q160 0 272 143q111 143 180.5 372.5t69.5 428.5 q0 129 -54 209t-169 80h-2q-147 0 -266 -148q-111 -143 -183.5 -370.5t-72.5 -415.5zM780 1446l145 114q118 93 140 109q43 31 85 31q16 0 32 -4q51 -11 51 -60q0 -14 -4 -30q-16 -59 -96 -93q-53 -20 -324 -112z" />
<glyph unicode="&#xd4;" horiz-adv-x="1325" d="M143 416q0 215 101.5 438t265.5 344q170 125 385 125h2q213 0 327.5 -121t114.5 -340q0 -178 -69.5 -371.5t-186.5 -318.5q-195 -205 -487 -205q-211 0 -332 112t-121 337zM371 330q0 -150 61.5 -224.5t163.5 -74.5q160 0 272 143q111 143 180.5 372.5t69.5 428.5 q0 129 -54 209t-169 80h-2q-147 0 -266 -148q-111 -143 -183.5 -370.5t-72.5 -415.5zM618 1446q205 119 310 242l51 8q16 -49 69.5 -121t133.5 -129l-39 -49q-121 45 -223 116q-135 -70 -281 -116z" />
<glyph unicode="&#xd5;" horiz-adv-x="1325" d="M143 416q0 215 101.5 438t265.5 344q170 125 385 125h2q213 0 327.5 -121t114.5 -340q0 -178 -69.5 -371.5t-186.5 -318.5q-195 -205 -487 -205q-211 0 -332 112t-121 337zM371 330q0 -150 61.5 -224.5t163.5 -74.5q160 0 272 143q111 143 180.5 372.5t69.5 428.5 q0 129 -54 209t-169 80h-2q-147 0 -266 -148q-111 -143 -183.5 -370.5t-72.5 -415.5zM641 1409q4 104 46 177t126 73q59 0 137 -66q63 -55 94 -55q55 0 68 127l66 -12q-4 -109 -43 -178.5t-117 -69.5q-57 0 -146 76q-61 47 -90 47q-27 0 -48 -36t-25 -91z" />
<glyph unicode="&#xd6;" horiz-adv-x="1325" d="M143 416q0 215 101.5 438t265.5 344q170 125 385 125h2q213 0 327.5 -121t114.5 -340q0 -178 -69.5 -371.5t-186.5 -318.5q-195 -205 -487 -205q-211 0 -332 112t-121 337zM371 330q0 -150 61.5 -224.5t163.5 -74.5q160 0 272 143q111 143 180.5 372.5t69.5 428.5 q0 129 -54 209t-169 80h-2q-147 0 -266 -148q-111 -143 -183.5 -370.5t-72.5 -415.5zM616 1524q6 53 42 87t83 34h2q47 0 72 -32q21 -27 21 -66v-13q-6 -53 -45 -87t-82 -34t-71 28q-23 23 -23 64q0 9 1 19zM1004 1524q6 53 41.5 87t82.5 34h2q47 0 72 -32q21 -27 21 -66 v-13q-6 -53 -45 -87t-82 -34t-71 28q-23 23 -23 64q1 9 2 19z" />
<glyph unicode="&#xd7;" horiz-adv-x="1069" d="M111 127l338 344l-338 340l77 84l336 -346l338 350l78 -84l-340 -344l340 -344l-78 -84l-338 348l-336 -348z" />
<glyph unicode="&#xd8;" horiz-adv-x="1325" d="M125 -55l127 151q-109 109 -109 320q2 219 101.5 441t263.5 341q174 125 389 125q174 0 274 -78l103 125l63 -43l-110 -129q111 -117 110 -328q0 -190 -69.5 -383.5t-186.5 -314.5q-197 -205 -489 -205q-180 0 -285 80l-117 -143zM383 248l700 897q-49 119 -188 119h-2 q-150 0 -272 -146q-121 -150 -195 -407q-52 -182 -52 -338q0 -65 9 -125zM401 158q53 -127 185 -127h2q164 0 282 143q123 150 195 409q50 181 50 343q0 69 -9 135z" />
<glyph unicode="&#xd9;" horiz-adv-x="1282" d="M213 418q23 90 113 400t102 364q2 9 2 15q0 28 -33 32l-108 12l20 55q39 0 128 -3t138 -3q53 0 134.5 3t113.5 3l-16 -55l-92 -12q-47 -6 -62 -47q-43 -111 -118.5 -377t-112.5 -432q-11 -52 -11 -96q0 -93 50 -150q63 -74 196 -74q152 0 239 83t155 306q127 422 182 705 q8 47 -2 62.5t-49 19.5l-107 12l19 55q29 0 103.5 -3t105.5 -3q37 0 109.5 3t107.5 3l-15 -57q-96 -6 -123.5 -23.5t-50.5 -80.5q-31 -98 -107 -369l-102 -352q-45 -154 -99 -241t-151 -144q-102 -63 -297 -64q-109 0 -198.5 35t-132.5 94q-51 74 -52 179q0 66 21 145z M643 1585q-2 13 -2 24q0 55 59 70q17 5 34 5q42 0 81 -29q16 -12 118.5 -105.5t125.5 -111.5l-31 -43q-152 49 -305 106q-27 10 -51.5 34.5t-28.5 49.5z" />
<glyph unicode="&#xda;" horiz-adv-x="1282" d="M213 418q23 90 113 400t102 364q2 9 2 15q0 28 -33 32l-108 12l20 55q39 0 128 -3t138 -3q53 0 134.5 3t113.5 3l-16 -55l-92 -12q-47 -6 -62 -47q-43 -111 -118.5 -377t-112.5 -432q-11 -52 -11 -96q0 -93 50 -150q63 -74 196 -74q152 0 239 83t155 306q127 422 182 705 q8 47 -2 62.5t-49 19.5l-107 12l19 55q29 0 103.5 -3t105.5 -3q37 0 109.5 3t107.5 3l-15 -57q-96 -6 -123.5 -23.5t-50.5 -80.5q-31 -98 -107 -369l-102 -352q-45 -154 -99 -241t-151 -144q-102 -63 -297 -64q-109 0 -198.5 35t-132.5 94q-51 74 -52 179q0 66 21 145z M813 1442l144 113q118 93 141 110q43 31 85 31q16 0 31 -4q51 -11 52 -60q0 -14 -4 -30q-16 -59 -97 -93q-53 -20 -323 -112z" />
<glyph unicode="&#xdb;" horiz-adv-x="1282" d="M213 418q23 90 113 400t102 364q2 9 2 15q0 28 -33 32l-108 12l20 55q39 0 128 -3t138 -3q53 0 134.5 3t113.5 3l-16 -55l-92 -12q-47 -6 -62 -47q-43 -111 -118.5 -377t-112.5 -432q-11 -52 -11 -96q0 -93 50 -150q63 -74 196 -74q152 0 239 83t155 306q127 422 182 705 q8 47 -2 62.5t-49 19.5l-107 12l19 55q29 0 103.5 -3t105.5 -3q37 0 109.5 3t107.5 3l-15 -57q-96 -6 -123.5 -23.5t-50.5 -80.5q-31 -98 -107 -369l-102 -352q-45 -154 -99 -241t-151 -144q-102 -63 -297 -64q-109 0 -198.5 35t-132.5 94q-51 74 -52 179q0 66 21 145z M664 1440q205 119 309 241l51 9q16 -49 69.5 -121t133.5 -129l-39 -49q-121 45 -223 116q-135 -70 -281 -116z" />
<glyph unicode="&#xdc;" horiz-adv-x="1282" d="M213 418q23 90 113 400t102 364q2 9 2 15q0 28 -33 32l-108 12l20 55q39 0 128 -3t138 -3q53 0 134.5 3t113.5 3l-16 -55l-92 -12q-47 -6 -62 -47q-43 -111 -118.5 -377t-112.5 -432q-11 -52 -11 -96q0 -93 50 -150q63 -74 196 -74q152 0 239 83t155 306q127 422 182 705 q8 47 -2 62.5t-49 19.5l-107 12l19 55q29 0 103.5 -3t105.5 -3q37 0 109.5 3t107.5 3l-15 -57q-96 -6 -123.5 -23.5t-50.5 -80.5q-31 -98 -107 -369l-102 -352q-45 -154 -99 -241t-151 -144q-102 -63 -297 -64q-109 0 -198.5 35t-132.5 94q-51 74 -52 179q0 66 21 145z M653 1524q6 53 42 87t83 34h2q47 0 72 -32q21 -27 21 -66q0 -6 -1 -13q-6 -53 -45 -87t-82 -34t-70 28q-23 23 -23 64q0 9 1 19zM1040 1524q6 53 42 87t83 34h2q47 0 72 -32q21 -27 21 -66v-13q-6 -53 -45 -87t-82 -34t-71 28q-23 23 -23 64q0 9 1 19z" />
<glyph unicode="&#xdd;" horiz-adv-x="1058" d="M111 -6l18 57q16 2 61.5 6t65.5 9q39 4 56.5 19t33.5 58q53 141 123 406q5 25 5 50q0 19 -3 40q-6 57 -51 240.5t-76 271.5q-20 55 -47 68.5t-131 21.5l18 55q23 0 110 -3t142 -3q141 0 264 6l-16 -57q-82 -6 -102.5 -17.5t-16.5 -39.5q14 -78 111 -498l145 192l138 184 q46 62 75 109q12 21 13 35q0 20 -27 23q-57 8 -111 12l21 57q27 0 95.5 -3t111.5 -3q27 0 102.5 3t120.5 3l-19 -57q-86 -6 -123.5 -22.5t-91.5 -73.5q-168 -176 -397 -500q-37 -51 -55 -117q-74 -252 -101 -405q-1 -6 0 -11q0 -37 37 -42q33 -6 150 -17l-17 -57 q-174 6 -329 6q-127 0 -303 -6zM711 1442l144 113l140 110q43 31 85 31q16 0 32 -4q51 -11 51 -60q0 -14 -4 -30q-16 -59 -96 -93q-53 -20 -324 -112z" />
<glyph unicode="&#xde;" horiz-adv-x="1126" d="M-37 -6l19 57q98 8 126.5 21.5t43.5 58.5q31 82 157 524q113 393 142 516q8 41 -16.5 51.5t-133.5 16.5l23 57q135 -6 249 -6q57 0 149.5 3t123.5 3l-15 -57q-92 -2 -119.5 -14.5t-39.5 -46.5q-20 -55 -45 -140q106 8 176 9q207 0 287 -107q57 -74 57 -199 q0 -121 -50 -227t-145 -174q-129 -90 -323 -90q-131 0 -213 39q-31 -109 -41 -164q-8 -43 17.5 -54.5t146.5 -19.5l-17 -57q-31 0 -132 3t-167 3q-76 0 -260 -6zM438 365q51 -47 164 -48q109 0 180 64q68 66 107 175.5t39 217.5v2q0 84 -35 131q-51 74 -184 74 q-98 0 -109 -37q-62 -200 -162 -579z" />
<glyph unicode="&#xdf;" horiz-adv-x="1140" d="M-397 -369q0 33 22.5 63t52.5 42q14 6 27 6q27 0 45 -31q61 -98 127 -98q51 0 83 43t65 145q90 289 254 992l-154 14l25 61h149q74 256 233 398q145 121 332 120q160 0 234 -72q76 -71 76 -184q0 -74 -29 -120q-147 -41 -224 -107.5t-77 -146.5q0 -59 37 -113 q53 -80 88 -125q84 -106 84 -213q-2 -145 -113 -239.5t-268 -94.5q-135 0 -238 60q20 55 53 245l52 7q0 -8 -1 -17q0 -231 171 -231q70 0 115.5 48t45.5 124q0 72 -47 141q-35 53 -80 115q-72 96 -71 186q0 111 85 203t228 147q33 55 33 142q0 78 -42 131t-126 53 q-133 0 -217 -132t-154 -405q-176 -692 -239 -856q-98 -252 -295 -370q-86 -51 -191 -51q-57 0 -104 35.5t-47 84.5z" />
<glyph unicode="&#xe0;" horiz-adv-x="1067" d="M74 186q0 172 95 359.5t241 281.5q115 76 235 76q137 0 176 -92l21 68h184q-160 -467 -213 -727q-5 -23 -5 -39q0 -35 26 -35q39 0 92 56t92 134l41 -39q-49 -102 -133 -180t-193 -78q-80 0 -100 66q-9 27 -9 57q0 41 17 86q12 49 16 62h-4q-74 -113 -179 -192t-230 -79 q-86 0 -128 58.5t-42 156.5zM276 193q0 -113 74 -113q143 0 289 254q43 70 90 194.5t47 180.5q0 63 -30.5 94t-77.5 31q-98 0 -187 -103q-88 -104 -146.5 -256.5t-58.5 -279.5v-2zM510 1352q12 74 74 73q63 -2 94 -79q23 -53 113 -324l-46 -29l-81 102l-78 96q-31 38 -39 50 q-38 48 -38 97q0 7 1 14z" />
<glyph unicode="&#xe1;" horiz-adv-x="1067" d="M74 186q0 172 95 359.5t241 281.5q115 76 235 76q137 0 176 -92l21 68h184q-160 -467 -213 -727q-5 -23 -5 -39q0 -35 26 -35q39 0 92 56t92 134l41 -39q-49 -102 -133 -180t-193 -78q-80 0 -100 66q-9 27 -9 57q0 41 17 86q12 49 16 62h-4q-74 -113 -179 -192t-230 -79 q-86 0 -128 58.5t-42 156.5zM276 193q0 -113 74 -113q143 0 289 254q43 70 90 194.5t47 180.5q0 63 -30.5 94t-77.5 31q-98 0 -187 -103q-88 -104 -146.5 -256.5t-58.5 -279.5v-2zM618 1028q25 33 108 162t99 151q55 74 115 74q63 -4 59 -72q0 -57 -69 -118q-16 -16 -54 -48 l-101 -84l-116 -98z" />
<glyph unicode="&#xe2;" horiz-adv-x="1067" d="M74 186q0 172 95 359.5t241 281.5q115 76 235 76q137 0 176 -92l21 68h184q-160 -467 -213 -727q-5 -23 -5 -39q0 -35 26 -35q39 0 92 56t92 134l41 -39q-49 -102 -133 -180t-193 -78q-80 0 -100 66q-9 27 -9 57q0 41 17 86q12 49 16 62h-4q-74 -113 -179 -192t-230 -79 q-86 0 -128 58.5t-42 156.5zM276 193q0 -113 74 -113q143 0 289 254q43 70 90 194.5t47 180.5q0 63 -30.5 94t-77.5 31q-98 0 -187 -103q-88 -104 -146.5 -256.5t-58.5 -279.5v-2zM473 1036q176 182 297 371l53 12q29 -184 129 -387l-47 -37q-78 86 -147 213 q-94 -98 -250 -213z" />
<glyph unicode="&#xe3;" horiz-adv-x="1067" d="M74 186q0 172 95 359.5t241 281.5q115 76 235 76q137 0 176 -92l21 68h184q-160 -467 -213 -727q-5 -23 -5 -39q0 -35 26 -35q39 0 92 56t92 134l41 -39q-49 -102 -133 -180t-193 -78q-80 0 -100 66q-9 27 -9 57q0 41 17 86q12 49 16 62h-4q-74 -113 -179 -192t-230 -79 q-86 0 -128 58.5t-42 156.5zM276 193q0 -113 74 -113q143 0 289 254q43 70 90 194.5t47 180.5q0 63 -30.5 94t-77.5 31q-98 0 -187 -103q-88 -104 -146.5 -256.5t-58.5 -279.5v-2zM487 1044q2 102 42 175t122 73q59 0 131 -65q66 -57 92 -58q57 0 66 127l61 -10 q0 -111 -36.5 -179.5t-114.5 -68.5q-57 0 -139 74q-59 49 -86 49q-29 0 -49.5 -32.5t-24.5 -92.5z" />
<glyph unicode="&#xe4;" horiz-adv-x="1067" d="M74 186q0 172 95 359.5t241 281.5q115 76 235 76q137 0 176 -92l21 68h184q-160 -467 -213 -727q-5 -23 -5 -39q0 -35 26 -35q39 0 92 56t92 134l41 -39q-49 -102 -133 -180t-193 -78q-80 0 -100 66q-9 27 -9 57q0 41 17 86q12 49 16 62h-4q-74 -113 -179 -192t-230 -79 q-86 0 -128 58.5t-42 156.5zM276 193q0 -113 74 -113q143 0 289 254q43 70 90 194.5t47 180.5q0 63 -30.5 94t-77.5 31q-98 0 -187 -103q-88 -104 -146.5 -256.5t-58.5 -279.5v-2zM487 1267q37 34 84 33h2q45 0 69 -28q22 -26 22 -72v-8q-2 -53 -40 -87t-83 -34 q-41 0 -68 28q-25 26 -25 71q0 61 39 97zM842 1267q37 34 82 33h2q93 0 92 -96v-12q-2 -55 -39 -88t-84 -33q-41 0 -68 28q-25 26 -24 71q0 61 39 97z" />
<glyph unicode="&#xe5;" horiz-adv-x="1067" d="M74 186q0 172 95 359.5t241 281.5q115 76 235 76q137 0 176 -92l21 68h184q-160 -467 -213 -727q-5 -23 -5 -39q0 -35 26 -35q39 0 92 56t92 134l41 -39q-49 -102 -133 -180t-193 -78q-80 0 -100 66q-9 27 -9 57q0 41 17 86q12 49 16 62h-4q-74 -113 -179 -192t-230 -79 q-86 0 -128 58.5t-42 156.5zM276 193q0 -113 74 -113q143 0 289 254q43 70 90 194.5t47 180.5q0 63 -30.5 94t-77.5 31q-98 0 -187 -103q-88 -104 -146.5 -256.5t-58.5 -279.5v-2zM549 1184q10 92 73.5 143t155.5 51h2q82 0 126 -48q36 -39 36 -102q0 -15 -2 -30 q-10 -88 -74.5 -139t-152.5 -51q-82 0 -127 47q-38 40 -38 104q0 12 1 25zM664 1182q-2 -19 -3 -35q0 -84 64 -84q47 0 71.5 46t30.5 101q3 16 3 32q0 26 -9 48q-14 35 -55 35h-2q-43 0 -68.5 -45t-31.5 -98z" />
<glyph unicode="&#xe6;" horiz-adv-x="1417" d="M63 164q0 164 95.5 336t242.5 276q158 117 340 117q133 0 205 -53q106 63 232 63q121 0 175 -61.5t54 -151.5q0 -82 -57 -131q-33 -29 -99 -57q-74 -31 -196.5 -59.5t-206.5 -36.5q-18 -66 -19 -148q0 -90 41 -143.5t113 -53.5q205 0 326 256h28l6 -106 q-178 -240 -458 -240q-123 0 -186.5 74t-65.5 186h-8q-76 -106 -183.5 -183t-220.5 -77q-158 0 -158 193zM268 164q0 -88 58 -88q66 0 148.5 78.5t152.5 212.5q8 18 61 151q66 166 189 275q-41 35 -123 34q-74 0 -156 -48t-149 -144q-180 -246 -181 -469v-2zM860 471 q129 12 264 70q113 49 113 186q0 113 -94 113h-2q-68 0 -145 -83t-136 -286z" />
<glyph unicode="&#xe7;" horiz-adv-x="874" d="M86 266q0 154 73.5 303.5t202.5 239.5q135 94 279 94q115 0 175.5 -52t60.5 -136q0 -61 -35 -95t-80 -34q-41 0 -60 24q-14 15 -13 35q0 12 5 27q23 59 23 82q0 88 -92 88q-135 0 -238 -201q-96 -180 -96 -377q0 -98 43 -152.5t117 -54.5q205 0 317 256h27l8 -100 q-51 -88 -143.5 -153.5t-206.5 -82.5l-31 -38.5l-31 -38.5q47 -12 85 -48t38 -96q0 -94 -61.5 -140t-149.5 -46q-78 0 -135 43l27 57q49 -27 98 -26q88 0 88 71q0 37 -35 58.5t-92 21.5l-6 23l133 153h-19q-276 6 -276 295z" />
<glyph unicode="&#xe8;" horiz-adv-x="870" d="M82 258q0 154 70.5 305.5t197.5 247.5q129 92 277 92q123 0 179 -59.5t56 -153.5q0 -117 -143 -180q-156 -74 -416 -107q-16 -74 -16 -141q0 -201 153 -201q102 0 186.5 66t135.5 190h31l8 -102q-74 -113 -193 -178.5t-256 -65.5q-131 0 -200.5 75t-69.5 212zM315 471 q162 18 263 68q115 55 114 188q0 115 -88 115h-4q-70 0 -150 -86t-135 -285zM418 1352q12 74 74 73q63 -2 94 -79q23 -53 112 -324l-45 -29l-82 102l-77 96q-31 38 -39 50q-38 48 -38 97q0 7 1 14z" />
<glyph unicode="&#xe9;" horiz-adv-x="870" d="M82 258q0 154 70.5 305.5t197.5 247.5q129 92 277 92q123 0 179 -59.5t56 -153.5q0 -117 -143 -180q-156 -74 -416 -107q-16 -74 -16 -141q0 -201 153 -201q102 0 186.5 66t135.5 190h31l8 -102q-74 -113 -193 -178.5t-256 -65.5q-131 0 -200.5 75t-69.5 212zM315 471 q162 18 263 68q115 55 114 188q0 115 -88 115h-4q-70 0 -150 -86t-135 -285zM539 1026q25 33 107.5 162t98.5 151q55 74 115 74q63 -4 60 -72q0 -57 -70 -118q-16 -16 -54 -48l-101 -84l-115 -98z" />
<glyph unicode="&#xea;" horiz-adv-x="870" d="M82 258q0 154 70.5 305.5t197.5 247.5q129 92 277 92q123 0 179 -59.5t56 -153.5q0 -117 -143 -180q-156 -74 -416 -107q-16 -74 -16 -141q0 -201 153 -201q102 0 186.5 66t135.5 190h31l8 -102q-74 -113 -193 -178.5t-256 -65.5q-131 0 -200.5 75t-69.5 212zM315 471 q162 18 263 68q115 55 114 188q0 115 -88 115h-4q-70 0 -150 -86t-135 -285zM391 1036q176 182 297 371l53 12q29 -184 129 -387l-47 -37q-78 86 -147 213q-94 -98 -250 -213z" />
<glyph unicode="&#xeb;" horiz-adv-x="870" d="M82 258q0 154 70.5 305.5t197.5 247.5q129 92 277 92q123 0 179 -59.5t56 -153.5q0 -117 -143 -180q-156 -74 -416 -107q-16 -74 -16 -141q0 -201 153 -201q102 0 186.5 66t135.5 190h31l8 -102q-74 -113 -193 -178.5t-256 -65.5q-131 0 -200.5 75t-69.5 212zM315 471 q162 18 263 68q115 55 114 188q0 115 -88 115h-4q-70 0 -150 -86t-135 -285zM416 1265q37 34 84 33h2q45 0 68 -28q22 -26 22 -72v-8q-2 -53 -40 -87t-83 -34q-41 0 -68 28q-25 26 -24 71q0 61 39 97zM770 1265q37 34 82 33h2q93 0 93 -96q0 -6 -1 -12q-2 -55 -39 -88 t-84 -33q-41 0 -67 28q-25 26 -25 71q0 61 39 97z" />
<glyph unicode="&#xec;" horiz-adv-x="561" d="M123 203q164 516 174 557q6 23 2 30t-23 7q-82 0 -124 -2l20 59q250 18 363 49l4 -8q-43 -100 -127 -362.5t-119 -399.5q-5 -20 -5 -33q0 -26 19 -26q43 0 103.5 60.5t97.5 135.5l41 -45q-66 -123 -156 -188.5t-188 -65.5q-59 0 -85 31q-23 27 -23 69q0 47 26 132z M225 1352q12 74 74 73q63 -2 94 -79q23 -53 113 -324l-45 -29l-82 102l-78 96q-31 38 -39 50q-38 48 -37 97q-1 7 0 14z" />
<glyph unicode="&#xed;" horiz-adv-x="561" d="M123 203q164 516 174 557q6 23 2 30t-23 7q-82 0 -124 -2l20 59q250 18 363 49l4 -8q-43 -100 -127 -362.5t-119 -399.5q-5 -20 -5 -33q0 -26 19 -26q43 0 103.5 60.5t97.5 135.5l41 -45q-66 -123 -156 -188.5t-188 -65.5q-59 0 -85 31q-23 27 -23 69q0 47 26 132z M352 1026q25 33 108 162t99 151q55 74 115 74q63 -4 59 -72q0 -57 -69 -118q-16 -16 -55 -48l-100 -84l-116 -98z" />
<glyph unicode="&#xee;" horiz-adv-x="561" d="M123 203q164 516 174 557q6 23 2 30t-23 7q-82 0 -124 -2l20 59q250 18 363 49l4 -8q-43 -100 -127 -362.5t-119 -399.5q-5 -20 -5 -33q0 -26 19 -26q43 0 103.5 60.5t97.5 135.5l41 -45q-66 -123 -156 -188.5t-188 -65.5q-59 0 -85 31q-23 27 -23 69q0 47 26 132z M201 1036q176 182 297 371l53 12q29 -184 129 -387l-47 -37q-78 86 -148 213q-94 -98 -249 -213z" />
<glyph unicode="&#xef;" horiz-adv-x="561" d="M123 203q164 516 174 557q6 23 2 30t-23 7q-82 0 -124 -2l20 59q250 18 363 49l4 -8q-43 -100 -127 -362.5t-119 -399.5q-5 -20 -5 -33q0 -26 19 -26q43 0 103.5 60.5t97.5 135.5l41 -45q-66 -123 -156 -188.5t-188 -65.5q-59 0 -85 31q-23 27 -23 69q0 47 26 132z M223 1265q37 34 84 33h2q45 0 69 -28q22 -26 22 -72q0 -4 -1 -8q-2 -53 -39.5 -87t-83.5 -34q-41 0 -67 28q-25 26 -25 71q0 61 39 97zM578 1265q37 34 81 33h3q93 0 92 -96v-12q-2 -55 -39 -88t-84 -33q-41 0 -68 28q-25 26 -25 71q1 61 40 97z" />
<glyph unicode="&#xf0;" horiz-adv-x="985" d="M86 268q0 154 76 309.5t196 241.5q125 84 263 84q104 0 157 -49q2 152 -59 268l-124 -59q-91 -43 -146 -72l-11 74l120 52q83 36 128 59q-37 61 -111.5 102t-156.5 49l35 53q90 -4 184 -43t166 -108q158 76 225 112l8 -75q-53 -23 -188 -88q53 -72 85 -182 q30 -103 30 -217v-15q-4 -221 -86 -421t-222 -294q-117 -78 -268 -78q-76 0 -138.5 21.5t-112.5 92t-50 183.5zM276 209q0 -178 127 -178q96 0 168 94q72 90 132.5 264t64.5 311v13q0 53 -32 89q-36 40 -103 40h-4q-96 0 -180 -109q-72 -92 -122.5 -245.5t-50.5 -278.5z" />
<glyph unicode="&#xf1;" horiz-adv-x="1093" d="M45 -20q70 188 142.5 429.5t93.5 350.5q8 37 -19 37l-125 -2l23 57q207 14 342 51q-63 -233 -96 -344q227 344 471 344q63 0 104 -33q39 -34 39 -102q0 -58 -29 -141q-150 -406 -174 -492q-8 -22 -7 -36q0 -24 21 -23q41 0 99.5 57t99.5 135l39 -43 q-61 -123 -152.5 -189.5t-187.5 -66.5q-110 0 -110 106q0 57 32 146l170 465q11 27 12 50q0 14 -5 28q-11 35 -52 35q-117 0 -240.5 -165t-191.5 -349q-72 -186 -100 -287q-68 -4 -199 -18zM494 1044q2 102 41.5 175t121.5 73q59 0 131 -65q66 -57 93 -58q57 0 65 127 l62 -10q0 -111 -37 -179.5t-115 -68.5q-57 0 -139 74q-59 49 -86 49q-29 0 -49.5 -32.5t-24.5 -92.5z" />
<glyph unicode="&#xf2;" horiz-adv-x="985" d="M84 270q0 154 74.5 307.5t197.5 239.5q125 86 275 86h4q147 0 226 -80t79 -229q0 -154 -72.5 -307.5t-191.5 -235.5q-125 -80 -285 -80q-307 0 -307 299zM274 209q0 -178 132 -178q88 0 161 88q74 90 129.5 261t55.5 296q0 168 -121 168h-2q-104 0 -191 -119 q-66 -94 -115 -248.5t-49 -267.5zM467 1352q12 74 74 73q63 -2 94 -79q23 -53 113 -324l-46 -29l-81 102l-78 96q-31 38 -39 50q-38 48 -38 97q0 7 1 14z" />
<glyph unicode="&#xf3;" horiz-adv-x="985" d="M84 270q0 154 74.5 307.5t197.5 239.5q125 86 275 86h4q147 0 226 -80t79 -229q0 -154 -72.5 -307.5t-191.5 -235.5q-125 -80 -285 -80q-307 0 -307 299zM274 209q0 -178 132 -178q88 0 161 88q74 90 129.5 261t55.5 296q0 168 -121 168h-2q-104 0 -191 -119 q-66 -94 -115 -248.5t-49 -267.5zM578 1026q25 33 107.5 162t98.5 151q55 74 115 74q63 -4 59 -72q0 -57 -69 -118q-16 -16 -54 -48l-101 -84l-116 -98z" />
<glyph unicode="&#xf4;" horiz-adv-x="985" d="M84 270q0 154 74.5 307.5t197.5 239.5q125 86 275 86h4q147 0 226 -80t79 -229q0 -154 -72.5 -307.5t-191.5 -235.5q-125 -80 -285 -80q-307 0 -307 299zM274 209q0 -178 132 -178q88 0 161 88q74 90 129.5 261t55.5 296q0 168 -121 168h-2q-104 0 -191 -119 q-66 -94 -115 -248.5t-49 -267.5zM430 1036q176 182 297 371l53 12q29 -184 129 -387l-47 -37q-78 86 -147 213q-94 -98 -250 -213z" />
<glyph unicode="&#xf5;" horiz-adv-x="985" d="M84 270q0 154 74.5 307.5t197.5 239.5q125 86 275 86h4q147 0 226 -80t79 -229q0 -154 -72.5 -307.5t-191.5 -235.5q-125 -80 -285 -80q-307 0 -307 299zM274 209q0 -178 132 -178q88 0 161 88q74 90 129.5 261t55.5 296q0 168 -121 168h-2q-104 0 -191 -119 q-66 -94 -115 -248.5t-49 -267.5zM434 1044q2 102 42 175t122 73q59 0 131 -65q66 -57 92 -58q57 0 66 127l61 -10q0 -111 -37 -179.5t-114 -68.5q-57 0 -140 74q-59 49 -86 49q-29 0 -49 -32.5t-24 -92.5z" />
<glyph unicode="&#xf6;" horiz-adv-x="985" d="M84 270q0 154 74.5 307.5t197.5 239.5q125 86 275 86h4q147 0 226 -80t79 -229q0 -154 -72.5 -307.5t-191.5 -235.5q-125 -80 -285 -80q-307 0 -307 299zM274 209q0 -178 132 -178q88 0 161 88q74 90 129.5 261t55.5 296q0 168 -121 168h-2q-104 0 -191 -119 q-66 -94 -115 -248.5t-49 -267.5zM444 1265q37 34 84 33h2q45 0 69 -28q22 -26 22 -72v-8q-2 -53 -40 -87t-83 -34q-41 0 -68 28q-25 26 -25 71q0 61 39 97zM799 1265q37 34 82 33h2q93 0 92 -96v-12q-2 -55 -39 -88t-84 -33q-41 0 -68 28q-25 26 -24 71q0 61 39 97z" />
<glyph unicode="&#xf7;" horiz-adv-x="1069" d="M98 432v109h852v-109h-852zM430 180q0 41 29.5 72t66.5 31h2q43 0 72 -29t29 -74q0 -41 -30 -71.5t-71 -30.5q-37 0 -67.5 31.5t-30.5 70.5zM430 793q0 39 31 69.5t69 30.5q41 0 71 -31t30 -69q0 -45 -30 -74t-75 -29h-2q-35 0 -64.5 31t-29.5 72z" />
<glyph unicode="&#xf8;" horiz-adv-x="985" d="M43 -39l102 107q-61 76 -61 204q0 147 73.5 301t192.5 240q129 90 281 90q119 0 192 -55l68 78l78 -25l-95 -102q66 -72 66 -209q0 -156 -76 -309.5t-192.5 -231.5t-274.5 -78q-121 0 -198 52q-51 -55 -78 -89zM279 207l462 549q-25 88 -114 88h-2q-102 0 -189 -117 q-68 -88 -117 -241q-42 -131 -42 -242zM291 123q29 -92 115 -92h2q94 0 167 88q76 90 128 257q47 149 47 267v27z" />
<glyph unicode="&#xf9;" horiz-adv-x="1077" d="M103 44q-11 28 -10 64q0 55 26 125l96 296q68 206 76 235q4 18 -1 25.5t-28 5.5l-117 -2l29 59q256 25 358 51q-37 -63 -119.5 -317t-117.5 -402q-6 -27 -6 -46q0 -60 55 -60q104 0 217 128t174 290q53 145 86 266q10 33 -26 33l-113 -2l25 59q229 16 356 51 q-59 -141 -137 -382.5t-111 -383.5q-4 -20 -4 -34q0 -32 23 -31q39 0 97 58t99 140l39 -47q-55 -109 -142 -181.5t-194 -72.5q-105 0 -105 102q0 45 21 111q18 61 21 68q-86 -127 -195.5 -203t-224.5 -76q-119 0 -147 73zM481 1350q12 74 74 73q63 -2 94 -80 q23 -53 113 -323l-45 -29l-82 102l-78 96q-31 38 -39 50q-38 48 -37 97q-1 7 0 14z" />
<glyph unicode="&#xfa;" horiz-adv-x="1077" d="M103 44q-11 28 -10 64q0 55 26 125l96 296q68 206 76 235q4 18 -1 25.5t-28 5.5l-117 -2l29 59q256 25 358 51q-37 -63 -119.5 -317t-117.5 -402q-6 -27 -6 -46q0 -60 55 -60q104 0 217 128t174 290q53 145 86 266q10 33 -26 33l-113 -2l25 59q229 16 356 51 q-59 -141 -137 -382.5t-111 -383.5q-4 -20 -4 -34q0 -32 23 -31q39 0 97 58t99 140l39 -47q-55 -109 -142 -181.5t-194 -72.5q-105 0 -105 102q0 45 21 111q18 61 21 68q-86 -127 -195.5 -203t-224.5 -76q-119 0 -147 73zM612 1026q25 33 108 162t99 151q55 74 115 74 q63 -4 59 -72q0 -57 -69 -118q-16 -16 -55 -48l-100 -84l-116 -98z" />
<glyph unicode="&#xfb;" horiz-adv-x="1077" d="M103 44q-11 28 -10 64q0 55 26 125l96 296q68 206 76 235q4 18 -1 25.5t-28 5.5l-117 -2l29 59q256 25 358 51q-37 -63 -119.5 -317t-117.5 -402q-6 -27 -6 -46q0 -60 55 -60q104 0 217 128t174 290q53 145 86 266q10 33 -26 33l-113 -2l25 59q229 16 356 51 q-59 -141 -137 -382.5t-111 -383.5q-4 -20 -4 -34q0 -32 23 -31q39 0 97 58t99 140l39 -47q-55 -109 -142 -181.5t-194 -72.5q-105 0 -105 102q0 45 21 111q18 61 21 68q-86 -127 -195.5 -203t-224.5 -76q-119 0 -147 73zM465 1036q176 182 297 371l53 12q29 -184 129 -387 l-47 -37q-78 86 -147 213q-94 -98 -250 -213z" />
<glyph unicode="&#xfc;" horiz-adv-x="1077" d="M103 44q-11 28 -10 64q0 55 26 125l96 296q68 206 76 235q4 18 -1 25.5t-28 5.5l-117 -2l29 59q256 25 358 51q-37 -63 -119.5 -317t-117.5 -402q-6 -27 -6 -46q0 -60 55 -60q104 0 217 128t174 290q53 145 86 266q10 33 -26 33l-113 -2l25 59q229 16 356 51 q-59 -141 -137 -382.5t-111 -383.5q-4 -20 -4 -34q0 -32 23 -31q39 0 97 58t99 140l39 -47q-55 -109 -142 -181.5t-194 -72.5q-105 0 -105 102q0 45 21 111q18 61 21 68q-86 -127 -195.5 -203t-224.5 -76q-119 0 -147 73zM477 1267q37 34 84 33h2q45 0 69 -28q22 -26 21 -72 v-8q-2 -53 -40 -87t-83 -34q-41 0 -67 28q-25 26 -25 71q0 61 39 97zM831 1267q37 34 82 33h2q93 0 93 -96v-12q-2 -55 -39 -88t-84 -33q-41 0 -68 28q-25 26 -25 71q0 61 39 97z" />
<glyph unicode="&#xfd;" horiz-adv-x="892" d="M-172 -358q0 49 30.5 79.5t69.5 30.5q45 0 66 -49q23 -68 63 -68q57 0 118 74t140 238q-29 27 -36 121q-14 391 -54 684q-6 35 -32 42q-21 6 -86 5h-41l16 57q223 14 344 53q-1 -24 -1 -54q0 -61 3 -146q4 -129 14 -305l13 -211q158 307 213 403q86 156 169 235.5 t199 81.5l6 -51q-121 -33 -297 -309q-170 -268 -376 -662q-119 -217 -204 -302t-188 -85q-74 0 -111.5 41.5t-37.5 96.5zM547 1026q25 33 107.5 162t99.5 151q55 74 114 74q63 -4 60 -72q0 -57 -70 -118q-16 -16 -54 -48l-101 -84l-115 -98z" />
<glyph unicode="&#xfe;" horiz-adv-x="1019" d="M-270 -481l18 57l90 14q59 10 80 58q47 111 246 784q190 649 229 815q8 37 -26 37l-127 4l22 55q256 4 373 37q-29 -74 -64.5 -184.5l-92.5 -300.5l-72 -246q207 254 409 254q90 0 136 -62.5t46 -160.5q0 -190 -103 -379.5t-257 -273.5q-106 -55 -215 -56q-133 0 -189 82 q-72 -246 -104 -385q-8 -35 -1 -48t30 -17l139 -15l-16 -55h-242q-159 0 -309 -14zM281 178q2 -66 38.5 -102.5t94.5 -36.5q102 0 194 121q72 90 128.5 238.5t56.5 285.5q0 119 -76 119h-2q-80 0 -177.5 -100.5t-152.5 -225.5q-31 -59 -63.5 -151.5t-40.5 -147.5z" />
<glyph unicode="&#xff;" horiz-adv-x="892" d="M-172 -358q0 49 30.5 79.5t69.5 30.5q45 0 66 -49q23 -68 63 -68q57 0 118 74t140 238q-29 27 -36 121q-14 391 -54 684q-6 35 -32 42q-21 6 -86 5h-41l16 57q223 14 344 53q-1 -24 -1 -54q0 -61 3 -146q4 -129 14 -305l13 -211q158 307 213 403q86 156 169 235.5 t199 81.5l6 -51q-121 -33 -297 -309q-170 -268 -376 -662q-119 -217 -204 -302t-188 -85q-74 0 -111.5 41.5t-37.5 96.5zM412 1267q37 34 84 33h2q45 0 68 -28q22 -26 22 -72v-8q-2 -53 -40 -87t-83 -34q-41 0 -68 28q-25 26 -24 71q0 61 39 97zM766 1267q37 34 82 33h2 q93 0 92 -96v-12q-2 -55 -39 -88t-84 -33q-41 0 -67 28q-25 26 -25 71q0 61 39 97z" />
<glyph unicode="&#x152;" horiz-adv-x="1933" d="M139 401q0 225 113 459t289 352q158 111 358 111q264 0 342 -193q41 154 45 166q53 -6 137 -6h312q221 0 290 13q-33 -72 -110 -361h-51q8 63 8 123q0 30 -2 59q-6 61 -44 82t-169 21h-135q-35 0 -45 -35q-51 -133 -144 -481q18 -4 142 -4q106 0 148 30.5t93 136.5h56 q-53 -133 -138 -462l-51 4q14 61 14 104q0 40 -12 66q-25 53 -135 53q-115 0 -137 -4q-125 -451 -139 -520q-4 -23 1 -33t36.5 -15.5t103.5 -5.5q145 0 212.5 14.5t115.5 55.5q90 72 184 229l49 -16q-16 -45 -72.5 -184.5t-74.5 -173.5q-45 4 -162 8q-227 6 -332 6h-168 q-100 0 -141 -6q2 4 15 53t28 94q-164 -176 -410 -176q-205 0 -312.5 113.5t-107.5 322.5zM367 330v-2q0 -133 59 -213t178 -80q158 0 277 125q115 123 194.5 354t89.5 404q1 20 1 38q0 299 -244 299q-137 0 -246 -108q-137 -137 -223 -372.5t-86 -444.5z" />
<glyph unicode="&#x153;" horiz-adv-x="1464" d="M84 270q0 156 74.5 308.5t197.5 238.5q121 86 277 86q199 0 252 -174q145 174 340 174q119 0 174 -59.5t55 -151.5q0 -70 -49 -123q-33 -33 -92 -59q-74 -35 -200 -65.5t-216 -41.5q-18 -78 -18 -145q0 -197 153 -197q213 0 322 254h30l9 -104q-82 -111 -197 -175.5 t-250 -64.5q-182 0 -227 154q-133 -154 -338 -154q-51 0 -97 11.5t-94.5 41t-77 93t-28.5 153.5zM274 209q0 -178 134 -178q90 0 163 88q72 88 126.5 262t54.5 287q0 176 -119 176h-2q-106 0 -193 -119q-66 -94 -115 -247.5t-49 -268.5zM909 471q150 14 260 68 q115 55 115 186q0 115 -92 115h-2q-68 0 -147 -83t-134 -286z" />
<glyph unicode="&#x178;" horiz-adv-x="1058" d="M111 -6l18 57q16 2 61.5 6t65.5 9q39 4 56.5 19t33.5 58q53 141 123 406q5 25 5 50q0 19 -3 40q-6 57 -51 240.5t-76 271.5q-20 55 -47 68.5t-131 21.5l18 55q23 0 110 -3t142 -3q141 0 264 6l-16 -57q-82 -6 -102.5 -17.5t-16.5 -39.5q14 -78 111 -498l145 192l138 184 q46 62 75 109q12 21 13 35q0 20 -27 23q-57 8 -111 12l21 57q27 0 95.5 -3t111.5 -3q27 0 102.5 3t120.5 3l-19 -57q-86 -6 -123.5 -22.5t-91.5 -73.5q-168 -176 -397 -500q-37 -51 -55 -117q-74 -252 -101 -405q-1 -6 0 -11q0 -37 37 -42q33 -6 150 -17l-17 -57 q-174 6 -329 6q-127 0 -303 -6zM532 1524q6 53 42 87t83 34h2q47 0 72 -32q21 -27 21 -66v-13q-6 -53 -45 -87t-82 -34t-71 28q-23 23 -23 64q0 9 1 19zM920 1524q6 53 41.5 87t82.5 34h3q47 0 71 -32q21 -27 21 -66v-13q-6 -53 -45 -87t-82 -34t-71 28q-23 23 -23 64 q1 9 2 19z" />
<glyph unicode="&#x2c6;" horiz-adv-x="894" d="M383 1036q176 182 297 371l53 12q29 -184 129 -387l-47 -37q-78 86 -147 213q-94 -98 -250 -213z" />
<glyph unicode="&#x2dc;" horiz-adv-x="894" d="M401 1044q2 102 42 175t122 73q59 0 131 -65q66 -57 92 -58q57 0 66 127l61 -10q0 -111 -36.5 -179.5t-114.5 -68.5q-57 0 -139 74q-59 49 -86 49q-29 0 -49.5 -32.5t-24.5 -92.5z" />
<glyph unicode="&#x2013;" horiz-adv-x="1021" d="M84 387l47 129q121 -4 412 -4t426 4l-47 -129q-131 2 -422 2t-416 -2z" />
<glyph unicode="&#x2014;" horiz-adv-x="1851" d="M88 387l47 129q121 -4 823.5 -4t837.5 4l-45 -129q-131 2 -834.5 2t-828.5 -2z" />
<glyph unicode="&#x2018;" horiz-adv-x="389" d="M285 1130q8 123 101 210t208 100l12 -51q-82 -16 -145.5 -68.5t-77.5 -120.5q33 18 67.5 18.5t56.5 -26.5q20 -24 20 -62q0 -62 -43 -107q-38 -40 -93 -40q-53 0 -82 41q-25 36 -25 90q0 8 1 16z" />
<glyph unicode="&#x2019;" horiz-adv-x="389" d="M246 1026q84 16 147.5 69.5t77.5 121.5q-29 -18 -68 -19q-35 0 -57 27q-21 24 -21 62q0 60 44 105q39 40 94 40q51 0 80 -41q25 -36 25 -91q0 -8 -1 -16q-8 -121 -101 -208t-208 -99z" />
<glyph unicode="&#x201a;" horiz-adv-x="391" d="M-78 -166q84 16 150.5 70.5t81.5 126.5q-29 -23 -72 -23q-37 0 -59 28q-21 25 -21 63q0 62 45 109q41 42 96 42q53 0 83 -42q26 -37 26 -94v-16q-8 -127 -104.5 -215t-215.5 -100z" />
<glyph unicode="&#x201c;" horiz-adv-x="718" d="M287 1133q8 121 101 207.5t210 99.5l12 -51q-84 -16 -148.5 -69.5t-78.5 -121.5q31 20 70 21q35 0 57 -27q21 -24 21 -61q0 -62 -45 -107q-40 -41 -95 -41q-51 0 -80 42q-25 37 -25 92q0 8 1 16zM614 1133q8 121 101.5 207.5t208.5 99.5l12 -51q-82 -16 -146.5 -69.5 t-78.5 -121.5q31 20 69 21q35 0 58 -27q21 -24 20 -61q0 -62 -44 -107q-40 -41 -95 -41q-51 0 -80 42q-25 37 -25 92q-1 8 0 16z" />
<glyph unicode="&#x201d;" horiz-adv-x="718" d="M250 1026q84 16 147.5 69.5t77.5 123.5q-27 -20 -69 -21q-35 0 -57 27q-20 24 -19 60q0 62 42 106q40 41 95 41q51 0 80 -40q25 -35 25 -91q0 -8 -1 -17q-8 -121 -101 -208t-210 -99zM575 1026q82 16 147.5 70.5t80.5 122.5q-31 -20 -70 -21q-35 0 -57 27q-21 24 -21 61 q0 60 44 105q40 41 96 41q51 0 78 -41q24 -36 25 -90q0 -8 -1 -17q-8 -123 -101.5 -209t-207.5 -98z" />
<glyph unicode="&#x201e;" horiz-adv-x="731" d="M-78 -164q82 16 147.5 69.5t80.5 123.5q-31 -20 -70 -21q-35 0 -58 27q-22 24 -22 63q0 62 44 108q40 42 95 42q53 0 83 -42q26 -37 26 -94v-16q-8 -123 -103.5 -210t-212.5 -99zM256 -164q84 16 149.5 69.5t79.5 123.5q-31 -20 -71 -21q-35 0 -59 27q-22 24 -21 63 q0 62 45 108q41 42 96 42q53 0 83 -42q26 -37 26 -94v-16q-8 -123 -103.5 -210t-212.5 -99z" />
<glyph unicode="&#x2022;" horiz-adv-x="655" d="M176 434q4 88 61.5 149.5t141.5 61.5q72 0 111 -49q36 -45 37 -113q0 -7 -1 -14q-4 -90 -61 -147.5t-139 -57.5h-2q-70 0 -111 46q-37 42 -37 110v14z" />
<glyph unicode="&#x2026;" horiz-adv-x="1550" d="M113 204q41 44 98 44q51 0 81 -37q26 -32 26 -82q0 -7 -1 -14q-2 -63 -43 -103.5t-102 -40.5h-2q-47 0 -76 34q-27 32 -27 82q1 68 46 117zM627 204q41 44 98 44q53 0 83 -37q26 -32 26 -82v-14q-2 -63 -44 -103.5t-104 -40.5h-2q-47 0 -76 34q-27 32 -27 82q1 68 46 117 zM1144 204q40 44 97 44q53 0 83 -37q26 -32 26 -82v-14q-2 -63 -43 -103.5t-103 -40.5h-2q-47 0 -76 34q-27 32 -26 82q0 68 44 117z" />
<glyph unicode="&#x2039;" horiz-adv-x="587" d="M113 422l28 49q96 35 208 131t200 232l49 -29q-82 -176 -260 -371q72 -166 80 -373l-51 -32q-35 145 -108.5 256.5t-145.5 136.5z" />
<glyph unicode="&#x203a;" horiz-adv-x="585" d="M29 57q80 172 262 371q-31 72 -54.5 178.5t-27.5 192.5l51 35q35 -145 108.5 -257t145.5 -137l-29 -47q-96 -37 -207.5 -133t-199.5 -231z" />
<glyph unicode="&#x20ac;" horiz-adv-x="974" d="M76 522l37 70h94q2 8 6 28.5t9 38.5l9 33h-77l36 68h62q33 92 78 175t114.5 165t169 131t213.5 49q141 0 199 -80l47 76l45 -12q-59 -170 -94 -346l-53 -9q23 141 -12 226.5t-130 85.5q-72 0 -135 -46.5t-109 -122t-76 -146t-54 -146.5h469l-35 -68h-453 q-10 -37 -22 -100h417l-34 -70h-394q-14 -92 -14 -160q0 -299 201 -299q180 0 303 211l39 -41q-80 -135 -174 -197.5t-244 -62.5q-94 0 -161.5 35t-103.5 94.5t-51.5 125t-15.5 143.5q0 70 15 151h-121z" />
<glyph unicode="&#x2122;" horiz-adv-x="829" d="M240 1169q4 29 6 72l4 45q41 -8 108 -8h48q86 0 118 8q0 -2 -1 -17.5t-2 -40t-1 -52.5l-22 -7q-8 49 -21 66q-9 15 -50 15q-5 0 -11 -1v-110q0 -20 1 -49t1 -31q2 -10 51 -15l-2 -28q-4 0 -39 1t-61 1q-14 0 -37 -1t-35 -1v28q47 4 47 15q4 29 4 82v108q-53 0 -61 -16 q-10 -20 -23 -66zM535 1016v28q47 2 49 33q8 106 8 160l-2 6q-2 6 -12 6l-31 4l2 29q43 -2 72 -2q43 0 61 2q4 -18 70 -162q51 109 67 164q12 -2 60 -2q14 0 34.5 1t30.5 1l2 -29q-39 -2 -41 -14v-51q0 -86 4 -127q4 -18 43 -19l-2 -28q-2 0 -28.5 1t-44.5 1q-20 0 -50 -2 h-28v28q37 0 37 21q0 4 1 32.5t2 71.5t1 82h-2l-55 -140q-30 -79 -33 -89l-37 -6q-8 29 -45 117t-47 114h-3v-172q4 -27 25 -28l27 -3v-28q-8 0 -31 1t-35 1q-16 0 -39.5 -1t-29.5 -1z" />
<glyph unicode="&#xe000;" horiz-adv-x="905" d="M0 905h905v-905h-905v905z" />
<glyph unicode="&#xfb01;" horiz-adv-x="1089" d="M-397 -369q0 33 26.5 66t57.5 43q9 3 18 3q28 0 49 -34q57 -96 123 -96q51 0 84 47t68 156q78 236 252 977l-154 16l25 59h147q76 266 207 392q137 129 330 129q121 0 189.5 -51.5t68.5 -131.5q0 -53 -32 -88t-87 -35q-37 0 -60 19q-19 15 -19 38q0 12 5 25q12 41 13 68 q0 94 -113 94q-125 0 -205 -176q-51 -117 -94 -283h44q394 0 519 35l6 -8q-49 -102 -160 -446q-61 -201 -90 -318q-5 -18 -4 -31q0 -27 21 -26q41 0 100 60.5t96 133.5l39 -43q-66 -123 -156 -188.5t-186 -65.5q-90 0 -105 65q-5 19 -5 41q0 53 26 126q12 41 51 158l78 237 q39 119 66 211l-361 -16q-154 -627 -241 -861q-98 -250 -295 -370q-84 -51 -189 -51q-57 0 -105 35.5t-48 84.5z" />
<glyph unicode="&#xfb02;" horiz-adv-x="1089" d="M-397 -369q0 33 24.5 64t55.5 43q12 5 22 5q27 0 47 -34q57 -96 125 -96q49 0 83 46t69 155q84 268 252 979l-152 16l23 59h145q43 152 91 240t120 154q139 127 321 127q125 0 193 -58q33 6 95.5 23.5t90.5 23.5q-74 -182 -200 -614q-152 -496 -179 -627q-4 -18 -3 -30 q0 -29 20 -29q41 0 100.5 55t95.5 135l41 -43q-63 -123 -155 -189.5t-191 -66.5q-61 0 -87 35q-22 30 -22 72q0 7 1 13q4 50 26 126l299 997q-12 47 -52 80t-105 33q-125 0 -201 -164q-45 -96 -96 -293h233l-24 -61l-228 -14q-154 -627 -239 -859q-98 -256 -299 -372 q-86 -51 -187 -51q-57 0 -105 35.5t-48 84.5z" />
<glyph unicode="&#xfb03;" horiz-adv-x="1628" d="M-397 -369q0 35 28.5 70t59.5 39q7 3 14 2q27 0 51 -37q57 -92 121 -92q51 0 85 48t67 157q90 285 250 977l-152 14l23 59h149q68 231 182 342q137 131 326 131q80 0 142.5 -26.5t90.5 -63.5q133 137 334 138q123 0 191.5 -49.5t68.5 -129.5q0 -53 -31.5 -87.5 t-89.5 -34.5q-39 0 -55 14q-22 19 -22 45q0 11 4 22q14 35 14 66q0 94 -115 94q-61 0 -114.5 -48t-89.5 -130q-53 -121 -95 -283h46q380 0 520 33l6 -8q-55 -113 -158 -438q-55 -170 -94 -324q-4 -17 -4 -29q0 -28 20 -28q41 0 100.5 60.5t96.5 135.5l41 -43 q-66 -123 -157 -189.5t-189 -66.5q-88 0 -104 66q-5 19 -4 41q0 53 26 125q12 41 51 158l78 237q39 119 65 211l-358 -12q-150 -621 -227 -817q-102 -250 -301 -363q-98 -57 -185 -57q-43 0 -85 28.5t-42 69.5q0 33 32 66.5t56 39.5l10 2q23 0 52 -30q49 -66 110 -66 q45 0 73 38t56 116q66 174 250 973h-340q-168 -668 -241 -865q-98 -252 -295 -368q-92 -53 -191 -53q-57 0 -104 36.5t-47 83.5zM500 868h338q37 141 108 271q-12 59 -55 100t-113 41q-133 0 -207 -184q-34 -87 -71 -228z" />
<glyph unicode="&#xfb04;" horiz-adv-x="1630" d="M-399 -369q0 33 27.5 66t58.5 43q8 3 15 3q27 0 52 -34q59 -96 123 -96q49 0 83 47t69 156q74 231 250 979l-152 14l20 59h152q63 227 180 340q139 133 330 133q76 0 138.5 -24.5t88.5 -59.5q135 131 330 132q127 0 195 -58q33 6 94 23.5t92 23.5q-66 -160 -203 -614 q-152 -514 -176 -627q-4 -18 -4 -30q0 -29 20 -29q41 0 100.5 56t96.5 134l41 -43q-63 -123 -155.5 -189.5t-190.5 -66.5q-61 0 -87 35q-22 30 -22 72v13q4 50 27 126q233 770 297 999q-10 45 -51 79t-105 34q-125 0 -200 -168q-45 -100 -97 -291h234l-27 -59l-223 -12 q-147 -598 -227 -817q-106 -250 -301 -363q-102 -57 -187 -57q-43 0 -84 28.5t-41 67.5q0 33 30 67.5t54 40.5q6 1 11 2l51 -30q49 -66 112 -66q47 0 75 37t56 115q70 197 248 975h-340q-160 -653 -239 -865q-98 -252 -297 -368q-90 -53 -191 -53q-55 0 -103 35.5t-48 84.5z M498 868h340q37 152 108 277q-10 57 -55 96t-111 39q-135 0 -209 -184q-38 -95 -73 -228z" />
</font>
</defs>
</svg>
