<?xml version="1.0" standalone="no"?>
<!DOCTYPE svg PUBLIC "-//W3C//DTD SVG 1.1//EN" "http://www.w3.org/Graphics/SVG/1.1/DTD/svg11.dtd" >
<svg xmlns="http://www.w3.org/2000/svg">
<metadata>
This is a custom SVG webfont generated by Font Squirrel.
Copyright   :  1996 2003 Adobe Systems Incorporated All rights reserved
Designer    : Robert Slimbach
Foundry URL : httpwwwadobecomtype
</metadata>
<defs>
<font id="KeplerStdRegular" horiz-adv-x="978" >
<font-face units-per-em="2048" ascent="1434" descent="-614" />
<missing-glyph horiz-adv-x="423" />
<glyph unicode=" "  horiz-adv-x="423" />
<glyph unicode="&#x09;" horiz-adv-x="423" />
<glyph unicode="&#xa0;" horiz-adv-x="423" />
<glyph unicode="!" horiz-adv-x="450" d="M92 1186q0 61 47 109t86 48h2q45 0 87 -52t42 -105q0 -66 -26 -166q-74 -317 -74 -602h-63q0 281 -74 602q-27 103 -27 166zM106 102.5q0 55.5 37 92t88.5 36.5t87 -36.5t35.5 -92.5q0 -57 -34.5 -94t-92.5 -37h-2q-49 0 -84 38t-35 93.5z" />
<glyph unicode="&#x22;" horiz-adv-x="626" d="M74 1389q16 16 62 38.5t77 22.5h2q25 0 39 -35t14 -65q0 -57 -32.5 -170t-61.5 -187h-47q-4 104 -19.5 226.5t-33.5 169.5zM360 1389q16 16 62.5 38.5t77.5 22.5h2q25 0 39 -35t14 -65q0 -106 -94 -357h-47q-2 100 -20 222.5t-34 173.5z" />
<glyph unicode="#" horiz-adv-x="966" d="M51 422q14 35 33 131q16 0 38.5 -1t62.5 -2t77 -1l68 262q-30 1 -64 1q-66 0 -145 -3q23 66 37 129q39 -2 204 -2q16 59 39 153l29 117l84 6q-23 -55 -82 -276h209q39 143 68 270l86 6q-37 -98 -82 -276q147 0 186 2q-29 -92 -37 -131q-14 0 -73.5 1t-108.5 1l-66 -258 q193 4 209 4q-16 -39 -37 -133q-113 0 -204 2l-68 -315l-88 -9q29 94 86 324h-209q-63 -244 -78 -315l-84 -13l90 328q-31 -2 -88 -2h-92zM334 549h211l65 262h-211z" />
<glyph unicode="$" d="M82 94q18 113 27 342l53 8q-1 -19 -1 -37q0 -156 63 -228q71 -81 208 -93l25 463q-20 10 -61 26l-70 30q-31 13 -50 24q-172 88 -172 272q0 147 113 244q104 86 279 88l6 153l73 13l-12 -168q127 -10 205 -72l35 78l47 -10q-33 -164 -33 -369l-55 4q2 137 -53.5 214 t-151.5 95l-25 -442q205 -92 263 -133q111 -76 110 -219q0 -129 -88 -223q-119 -119 -319 -127l-4 -174l-80 -19l12 193q-115 4 -344 67zM252 971q0 -80 56.5 -130t162.5 -87l21 422q-109 -4 -174.5 -57.5t-65.5 -145.5v-2zM502 86q102 4 172.5 55.5t70.5 153.5v2 q0 45 -12 77t-44 57.5t-60.5 40.5t-85.5 42l-23 10z" />
<glyph unicode="%" horiz-adv-x="1478" d="M78 910q0 165 91 265q93 101 220 101q74 0 133 -33l31 25q39 -43 109.5 -74t156.5 -31q197 0 279 90q20 23 57 86l113 13l-227 -327l-378 -554l-341 -518l-68 53q127 174 790 1151q-106 -61 -262 -61q-74 0 -161 24q33 -82 32 -182q0 -172 -79.5 -274.5t-208.5 -102.5 t-207 87q-80 89 -80 262zM242 915q0 -11 -1 -20q0 -169 64 -233q33 -37 90 -37q66 0 117 77.5t51 237.5q0 272 -168 272h-2q-49 0 -86 -38q-65 -77 -65 -259zM825 356q0 174 91.5 275.5t213.5 101.5h3q141 0 205.5 -98t64.5 -252q0 -164 -79 -265.5t-210 -101.5 q-129 0 -208 87t-81 253zM991 371q0 -190 62 -256q31 -35 88 -35q72 0 123 79t51 228q0 68 -12.5 127t-52.5 108.5t-103 49.5h-2q-55 0 -90 -45q-62 -70 -64 -256z" />
<glyph unicode="&#x26;" horiz-adv-x="1454" d="M90 311q0 137 103 230q66 57 174 127q-123 164 -123 299q0 139 90 230t241 91q137 0 218 -79t81 -187q0 -119 -108 -197q-66 -51 -197 -125q139 -168 305 -338l117 246q59 125 117.5 187.5t126.5 62.5q47 0 70.5 -24.5t23.5 -59.5q0 -37 -26 -59q-18 -18 -37 -10 q-25 10 -43 10q-43 0 -78 -31t-80 -111q-18 -31 -139 -254q135 -143 229 -207q89 -61 188 -61h13l-2 -55q-129 -31 -232 -31q-63 0 -130.5 43t-174.5 152q-129 -188 -352 -189q-174 0 -270 88q-105 98 -105 252zM276 369q0 -121 74 -205t191 -84q156 0 227 125 q-203 217 -362 411q-129 -106 -130 -245v-2zM406 1018q0 -119 122 -270q193 125 193 276q0 88 -42 145.5t-116 57.5h-2q-66 0 -110.5 -52.5t-44.5 -156.5z" />
<glyph unicode="'" horiz-adv-x="342" d="M74 1389q14 16 63 38.5t80 22.5h2q25 0 39 -35t14 -65q0 -115 -98 -357h-45q-12 279 -55 396z" />
<glyph unicode="(" horiz-adv-x="679" d="M100 541v2q0 451 222 725q96 127 245 205l29 -54q-207 -113 -268 -403q-41 -207 -41 -481q0 -297 43 -484q61 -289 266 -401l-29 -56q-150 78 -248 205q-219 273 -219 742z" />
<glyph unicode=")" horiz-adv-x="679" d="M90 -352q207 117 268 403q41 190 41 481q0 295 -41 484q-61 285 -268 401l31 56q145 -78 246 -205q219 -274 219 -736v-2q0 -455 -221 -731q-96 -125 -244 -205z" />
<glyph unicode="*" horiz-adv-x="833" d="M70 989q-2 27 11 60.5t44 40.5h5q20 0 92 -10q45 -6 81 -6q33 0 57 5l7 -41q-51 -14 -121 -64t-84 -52q-20 -4 -42 10t-33 29.5t-17 27.5zM147 1288q8 33 23 47q18 16 50 22.5t59 -16.5q8 -10 43.5 -91t68.5 -119l-28 -29q-37 35 -116 75t-89 52q-13 18 -13 40q-1 9 2 19 zM258 829q4 10 56.5 79t70.5 120l39 -14q-8 -31 -8 -77q0 -27 3 -59q5 -55 4 -81q0 -14 -1 -19q-10 -27 -46 -38q-26 -8 -46 -8q-7 0 -13 1q-23 8 -46 37q-16 20 -16 41q0 9 3 18zM412 1137q9 36 8 90q0 22 -1 48q-3 48 -3 74q0 21 2 27q10 27 45 36q21 6 36 6q10 0 19 -3 q20 -4 44 -32.5t13 -59.5q-4 -8 -55 -76.5t-69 -120.5zM444 1026l31 27q33 -37 113 -75t90 -48q11 -21 11 -44q0 -10 -2 -20q-7 -33 -21 -47q-10 -8 -29 -15t-43.5 -7t-36.5 18q-6 8 -40 90t-73 121zM471 1112q49 14 121 63.5t88 51.5q5 1 11 1q23 0 44 -22q27 -27 31 -45 q2 -6 2 -14q0 -19 -11 -44q-15 -36 -46 -40h-6q-20 0 -92 8q-47 6 -84 6q-29 0 -52 -4z" />
<glyph unicode="+" horiz-adv-x="1060" d="M109 432v105h370v368h109v-368h364v-105h-364v-407h-109v407h-370z" />
<glyph unicode="," horiz-adv-x="421" d="M63 -170q80 16 134.5 67.5t54.5 122.5q0 20 -14 7q-27 -16 -62 -17q-41 0 -69.5 31t-28.5 84q2 49 38 86t85 37q66 0 104.5 -51.5t38.5 -133.5q0 -127 -85 -202.5t-179 -81.5z" />
<glyph unicode="-" horiz-adv-x="641" d="M72 412l24 127q221 -6 471 0l-22 -127q-248 6 -473 0z" />
<glyph unicode="." horiz-adv-x="421" d="M86 104q0 57 36 95.5t89 38.5h2q55 0 89 -38t34 -96q0 -59 -36 -96t-89 -37t-89 37t-36 96z" />
<glyph unicode="/" horiz-adv-x="827" d="M92 -176q27 70 277 786l282 822l99 -33q-143 -362 -297 -824l-263 -778z" />
<glyph unicode="0" d="M55 618q4 408 209 578q106 84 240 84h2q166 0 274 -121q143 -166 144 -512q-2 -424 -193 -588q-106 -88 -254 -88q-162 0 -266 107q-156 164 -156 522v18zM262 635q0 -317 70 -475q57 -125 166 -125q92 0 151 117q70 145 70 477q0 336 -70 481q-57 109 -157 109h-3 q-88 0 -145 -105q-82 -153 -82 -479z" />
<glyph unicode="1" d="M178 49l166 17q63 6 66 49q8 98 8 293v405q0 258 -4 322q0 33 -25 32q-2 0 -76.5 -4t-107.5 -6l12 57q307 33 391 66l10 -6q0 -16 -4 -164.5t-4 -298.5v-397q0 -197 6 -299q2 -47 48 -52l165 -14l5 -55q-72 0 -187 3t-145 3q-49 0 -156.5 -3t-159.5 -3z" />
<glyph unicode="2" d="M57 12q29 78 47 105q188 139 324.5 297.5t175.5 287.5q33 104 33 238q0 115 -48 197t-151 82q-195 0 -194 -207q0 -35 16 -92q1 -6 1 -13q0 -24 -19 -47q-31 -27 -70 -26q-45 0 -71.5 32.5t-26.5 91.5q0 117 106 218q115 104 295 104q154 0 248 -76q129 -98 129 -307 q0 -166 -123 -305q-63 -72 -467 -440q401 8 508 18q39 2 53 45q35 92 47 135l54 -24q-55 -197 -66 -336q-96 10 -577 10q-160 0 -220 -4z" />
<glyph unicode="3" d="M66 205q0 45 28.5 74.5t71.5 29.5q51 0 65 -67q43 -209 224 -209q121 0 179 86t58 229q0 272 -258 273q-66 0 -110 -17l-41 47l8 17q100 14 170 53q176 76 176 266q0 96 -49 161.5t-139.5 65.5t-140.5 -46t-50 -130q0 -33 10 -69q6 -29 -16 -51q-20 -23 -64 -23 q-39 0 -63.5 27.5t-24.5 81.5q0 98 108.5 187t285.5 89h2q141 0 244.5 -75t103.5 -210q0 -133 -115 -215q-68 -45 -211 -96v-8q209 -10 313 -109q84 -78 84 -211q0 -168 -124 -274q-131 -111 -347 -111q-170 0 -274 72t-104 162z" />
<glyph unicode="4" d="M16 451q543 750 555 770q98 33 183 67l12 -8q-10 -281 -10 -709v-122q127 2 213 30v-53q-72 -45 -213 -57q0 -106 4 -369q-13 1 -26 1q-90 0 -169 -26l-12 9q2 25 10 381q-26 0 -52 -1q-143 0 -275 10q-156 11 -201 23zM137 479q37 -12 160 -23q104 -10 224 -10h44 q4 135 7 380t6 294q-332 -459 -441 -641z" />
<glyph unicode="5" d="M78 199q0 43 28.5 72.5t71.5 29.5q47 0 64 -65q43 -203 217 -203q117 0 174 94t57 246q0 162 -78 235q-63 61 -161 62q-186 0 -265 -156l-51 49q31 98 60 362q25 230 25 314q0 12 -1 21q45 -14 119 -21q88 -10 182 -10q154 0 230.5 17.5t115.5 70.5l33 -37 q-49 -123 -139 -172q-82 -45 -252 -45q-131 0 -221 14q-35 -281 -66 -432q55 45 140 77t169 32q172 0 274.5 -85t102.5 -266q0 -147 -78 -256q-127 -176 -380 -176q-168 0 -269.5 68t-101.5 160z" />
<glyph unicode="6" d="M61 502q0 401 240 620q178 164 420 164q55 0 96 -12l4 -64q-27 8 -73 9q-213 0 -340 -175.5t-140 -427.5q154 172 324 172q152 0 240 -101t88 -261q0 -193 -107 -320q-117 -135 -317 -135q-176 0 -283 99q-152 135 -152 432zM270 422q0 -129 37 -229q61 -160 191 -160 q113 0 170 106q49 100 49 244q0 104 -31 180q-49 125 -170 125h-2q-162 0 -229 -170q-15 -35 -15 -96z" />
<glyph unicode="7" d="M70 885q23 74 40 206q14 107 14 156q0 12 -1 21q51 -16 407 -17q332 0 373 2l10 -14q-33 -125 -82 -221q-180 -342 -266 -571.5t-90 -464.5l-14 -11h-11q-58 0 -112 21q-41 18 -41 63q0 29 16 84q41 154 232.5 497t236.5 449q-68 8 -305 9q-180 0 -231 -14.5t-74 -67.5 q-29 -70 -49 -142z" />
<glyph unicode="8" d="M76 291q0 111 74 184q35 35 192 141q-215 127 -215 314q0 121 72 217q111 135 315 135h2q137 0 235.5 -84t98.5 -219q0 -98 -68 -170q-49 -49 -157 -123q166 -88 224 -170t58 -188q0 -147 -116 -248q-125 -109 -311.5 -109t-295 85t-108.5 235zM236 319 q0 -117 69.5 -200.5t202.5 -83.5h2q100 0 160.5 59.5t60.5 161.5q0 98 -70.5 163.5t-261.5 168.5q-163 -99 -163 -269zM285 1008q0 -104 73 -166q55 -47 211 -125q137 96 138 250q0 111 -59.5 181.5t-162.5 70.5h-2q-78 0 -138 -56.5t-60 -154.5z" />
<glyph unicode="9" d="M61 844q0 164 97 286q123 150 336 150q172 0 278 -106q145 -147 146 -457q0 -197 -62.5 -353.5t-163.5 -246.5q-164 -152 -391 -152q-80 0 -125 15l-2 61q25 -5 54.5 -5t64.5 5q178 14 288.5 166.5t131.5 415.5q-150 -150 -307 -150q-160 0 -252.5 103.5t-92.5 267.5z M264 883q0 -135 60.5 -222.5t162.5 -87.5q141 0 207 129q18 39 19 119q0 190 -68 299q-66 96 -164 97h-2q-109 0 -164 -103q-51 -94 -51 -231z" />
<glyph unicode=":" horiz-adv-x="419" d="M86 102q0 55 37 93t88 38h2q53 0 87 -37.5t34 -93.5q0 -57 -36 -94t-89 -37q-51 0 -87 37t-36 94zM88 688q0 55 37 93t88 38h2q53 0 87 -38t34 -93q0 -57 -36 -94t-89 -37q-51 0 -87 37t-36 94z" />
<glyph unicode=";" horiz-adv-x="421" d="M66 -168q78 14 132 65.5t54 122.5q0 16 -14 7q-27 -16 -60 -17q-41 0 -69.5 31t-28.5 82t36 87t85 36q66 0 104.5 -50.5t38.5 -132.5q0 -125 -84 -200.5t-176 -81.5zM86 688q0 55 37 93t88 38h2q53 0 87 -38t34 -93q0 -57 -36 -94t-89 -37q-51 0 -87 37t-36 94z" />
<glyph unicode="&#x3c;" horiz-adv-x="1019" d="M145 428v117l723 387v-123l-614 -322v-4l614 -319v-125z" />
<glyph unicode="=" horiz-adv-x="1060" d="M106 246v104h846v-104h-846zM106 614v105h846v-105h-846z" />
<glyph unicode="&#x3e;" horiz-adv-x="1019" d="M145 39v123l613 321v4l-613 322v123l723 -387v-117z" />
<glyph unicode="?" horiz-adv-x="845" d="M82 1073q0 121 111.5 195.5t240.5 74.5q156 0 250 -90t94 -247q0 -121 -110 -218q-129 -113 -189 -182q-43 -43 -51 -82q-2 -10 -2 -22q0 -33 16 -80l-49 -25q-100 109 -102 205q0 66 61 135q92 102 211 221q49 53 49 117q0 104 -51 155.5t-135 51.5q-80 0 -124 -43 t-44 -102q0 -35 21 -84q4 -9 3 -18q0 -22 -22 -40q-39 -33 -82 -32q-41 0 -68.5 29.5t-27.5 80.5zM297 102q0 55 37 92t88 37t87 -36.5t36 -92.5q0 -57 -36 -94t-91 -37h-2q-47 0 -83 37t-36 94z" />
<glyph unicode="@" horiz-adv-x="1548" d="M90 252q0 168 56.5 323.5t159 276.5t261 193.5t348.5 72.5q264 0 406.5 -147.5t142.5 -370.5q0 -221 -133 -382t-325 -161q-104 0 -121 67q-5 19 -5 42q0 57 29 137q-63 -102 -155 -173t-181 -71q-127 0 -127 172q2 125 75 271.5t194 226.5q94 59 182 59q90 0 125 -75 l16 49h133q-106 -305 -151 -547q-4 -23 -4 -39t4 -26q8 -20 39 -21h4q133 0 225 136q94 138 94 325q0 211 -127 335t-358 124q-291 0 -461 -222q-184 -244 -184 -575q0 -246 113 -365q119 -133 321 -133q252 0 416 187l26 -54q-186 -209 -503 -209q-246 0 -390.5 154 t-144.5 420zM600 227v-2q0 -76 47 -75q90 0 182.5 121.5t131.5 244.5q20 59 30 105q2 51 -21.5 80.5t-70.5 29.5q-88 0 -164 -110q-135 -201 -135 -394z" />
<glyph unicode="A" horiz-adv-x="1277" d="M-25 -6v57q88 6 126 29.5t73 105.5q129 319 354 981q31 88 35 121q125 12 168 31q279 -932 393 -1202q25 -53 88 -60l80 -6v-57q-141 6 -252 6q-45 0 -90 -1t-99 -3t-87 -2l-2 57q92 6 117.5 17.5t15.5 42.5q-23 90 -115 383q-33 2 -209 2q-170 0 -200 -2 q-92 -289 -101 -324q-6 -25 -6 -43q0 -33 19 -47q29 -23 151 -29v-57q-29 0 -100.5 3t-118.5 3q-27 0 -112 -3t-128 -3zM397 565q61 -4 189 -4q133 0 174 4l-52 179l-66 220l-54 177z" />
<glyph unicode="B" horiz-adv-x="1200" d="M47 51q104 4 136 14.5t34 36.5q8 123 8 283v543q0 199 -6 270q-2 20 -37 30.5t-131 14.5v57q29 0 113 -3t135 -3q47 0 156.5 3t165.5 3q137 0 210.5 -18t120.5 -63q80 -72 80 -203q0 -188 -168 -268q-59 -27 -137 -43v-9q190 -25 274 -82q115 -76 115 -243 q0 -188 -162 -293q-131 -82 -387 -82q-45 0 -137 2t-137 2q-37 0 -246 -6v57zM424 958v-237q25 -2 102 -2q145 0 217 62.5t72 213.5q0 102 -39 162q-55 84 -221 84q-74 0 -98.5 -9t-24.5 -30q-8 -123 -8 -244zM424 371q0 -178 6 -279q4 -35 105 -35q225 0 299 111 q49 78 49 207q0 131 -64 200q-80 86 -293 87q-68 0 -102 -7v-284z" />
<glyph unicode="C" horiz-adv-x="1261" d="M90 627q0 342 207 534q168 164 432 164q233 0 344 -115l39 107l49 -17q-22 -155 -22 -309q0 -62 4 -123l-56 -8q-12 174 -97 288t-247 114q-180 0 -290 -140q-131 -164 -131 -469q0 -260 106 -417q111 -174 320 -175q285 0 393 310l55 -35q-113 -369 -512 -369 q-313 0 -463 205q-131 170 -131 455z" />
<glyph unicode="D" horiz-adv-x="1390" d="M35 -6l2 57l98 6q43 4 59.5 16.5t18.5 41.5q12 129 12 352v416q0 213 -4 299q-2 27 -12 36t-41 13l-121 12l4 55q18 0 111.5 -3t140.5 -3q51 0 164 4t164 4q289 0 424 -86q248 -150 248 -526q0 -465 -349 -629q-143 -66 -360 -65q-51 0 -150.5 3t-148.5 3 q-47 0 -146.5 -3t-113.5 -3zM424 874v-411q0 -291 6 -361q4 -25 29.5 -36t105.5 -11q276 0 393 158q115 154 115 467q0 289 -117 422q-119 133 -360 133q-72 0 -108.5 -6t-45 -13.5t-10.5 -23.5q-8 -123 -8 -318z" />
<glyph unicode="E" horiz-adv-x="1146" d="M31 -6l2 57l127 12q31 4 42 19.5t13 58.5q8 104 8 297v432q0 193 -4 312q-2 27 -16.5 38t-50.5 15l-105 8v55q25 0 133.5 -3t165.5 -3h346q213 0 289 15q-9 -82 -9 -184q0 -76 5 -162l-55 -3q-16 102 -45 175q-25 57 -71 75.5t-190 18.5h-151q-31 0 -33 -33 q-8 -123 -8 -266v-226q23 -2 123 -2q135 0 176 33t55 141h51q-10 -119 -10 -243q0 -97 6 -199h-53q-12 123 -51 162t-176 39q-100 0 -121 -4v-197q0 -221 8 -317q2 -33 35 -42.5t166 -9.5q147 0 204.5 13.5t94.5 56.5q59 66 106 234l49 -9q0 -31 -20 -173t-31 -193 q-131 8 -434 8h-256q-53 0 -168.5 -3t-146.5 -3z" />
<glyph unicode="F" horiz-adv-x="1093" d="M41 51l117 10q51 2 57 54q8 86 8 303v487q0 217 -4 279q-4 45 -43 47l-127 10l-2 57q25 0 135 -3t180 -3h293q242 0 367 15q-13 -108 -13 -237q0 -57 3 -120l-54 -4q-12 94 -38 176q-20 61 -72.5 84t-202.5 23h-174q-39 0 -41 -29q-6 -61 -6 -280v-240q23 -2 160 -2 q131 0 171 32.5t58 151.5l51 -6q-9 -91 -9 -222v-27q1 -148 9 -208h-55q-10 74 -18.5 103.5t-32 60.5t-64.5 39t-116 8q-135 0 -154 -2v-219q0 -150 6 -266q2 -51 53 -57q10 0 66.5 -6.5t85.5 -8.5l-6 -57q-33 0 -137.5 3t-157.5 3q-49 0 -153.5 -3t-137.5 -3z" />
<glyph unicode="G" horiz-adv-x="1384" d="M90 633q0 203 79 358.5t226 241.5q147 92 365 92q127 0 217 -34t131 -77l45 105l47 -16q-12 -66 -23 -202q-7 -88 -8 -163q0 -41 2 -78h-59q-10 193 -100 298.5t-254 105.5q-199 0 -316 -158q-119 -168 -118 -463q0 -270 108 -434q117 -176 336 -176q100 0 158.5 31.5 t64.5 87.5q8 61 8 266q0 86 -19 108.5t-97 28.5l-105 8l-2 58q31 0 145.5 -3.5t161.5 -3.5q166 0 244 7v-56q-80 -10 -101.5 -22.5t-23.5 -48.5q-4 -43 -4 -220q0 -127 14 -206q-18 -4 -202 -60q-143 -41 -273 -41q-354 0 -516 207q-131 168 -131 459z" />
<glyph unicode="H" horiz-adv-x="1439" d="M45 -6v57q98 4 133 16.5t37 49.5q8 102 8 278v529q0 117 -4 247q-2 41 -35.5 54.5t-134.5 15.5l2 57q20 0 115.5 -3t150.5 -3q35 0 133.5 3t139.5 3l-2 -57q-92 -2 -123 -15.5t-35 -54.5q-6 -80 -6 -233v-227q53 -2 285 -2q221 0 309 2v231q0 184 -4 240q-2 33 -37 45 t-127 14v57q35 0 93 -2t102.5 -3t68.5 -1q145 0 275 6v-57q-96 -4 -129 -17.5t-35 -52.5q-6 -94 -6 -239v-520q0 -199 6 -293q2 -37 33.5 -50.5t127.5 -17.5l-2 -57q-215 6 -276 6q-70 0 -260 -6v57q96 4 129 17.5t35 52.5q6 135 6 274v244q-160 4 -311 4q-176 0 -283 -4 v-244q0 -182 6 -274q2 -39 35 -52.5t133 -17.5v-57q-215 6 -293 6q-51 0 -260 -6z" />
<glyph unicode="I" horiz-adv-x="647" d="M47 -6l2 57q98 2 130 16.5t36 53.5q8 90 8 278v531q0 180 -2 233q-2 45 -33.5 58.5t-140.5 19.5l2 57q172 -6 268 -6q49 0 146.5 3t128.5 3v-57q-96 -2 -127 -15.5t-35 -49.5q-6 -117 -6 -234v-539q0 -90 6 -280q2 -41 34 -54.5t130 -17.5v-57q-227 6 -281 6 q-63 0 -266 -6z" />
<glyph unicode="J" horiz-adv-x="628" d="M-156 -291q0 31 29 61.5t55 30.5q23 0 45 -24q53 -66 113 -66q109 0 123 219q14 199 14 547l2 424q0 162 -4 277q0 27 -11 39t-38 14q-88 10 -125 12l8 57q16 0 107.5 -4t154.5 -4q45 0 142.5 4t122.5 4l-2 -57l-82 -8q-37 -4 -49.5 -15.5t-14.5 -41.5q-8 -102 -8 -846 q0 -127 -12 -236q-20 -197 -127 -319q-133 -158 -299 -158q-63 0 -103.5 26.5t-40.5 63.5z" />
<glyph unicode="K" horiz-adv-x="1302" d="M39 -6l2 57q109 8 139.5 18.5t32.5 45.5q8 156 8 301v469q0 236 -2 293q-2 37 -29.5 47t-130.5 16l2 59q166 -6 258 -6q49 0 141.5 3t114.5 3l7 -59q-98 -6 -124 -15t-28 -44q-10 -123 -10 -291v-213q92 37 273 224.5t245 285.5q25 33 -14 39l-119 12l12 59 q29 0 106.5 -3t127.5 -3q20 0 225 8l2 -57q-94 -6 -141 -20.5t-88 -51.5q-55 -51 -426 -421q111 -152 280.5 -364t226.5 -271q33 -33 73 -45.5t138 -18.5l-12 -57q-48 2 -90 1q-62 0 -109 -3q-86 -2 -172 -15q-16 31 -105 147l-200 258q-111 142 -143 187q-31 41 -49.5 52.5 t-40.5 3.5v-197q0 -109 8 -313q2 -35 30.5 -45.5t139.5 -18.5l-4 -57q-35 0 -136.5 3t-152.5 3q-57 0 -149 -3t-117 -3z" />
<glyph unicode="L" horiz-adv-x="1095" d="M31 -6l2 57l116 12q33 2 46.5 13.5t15.5 36.5q12 131 12 368v437q0 182 -4 268q-2 25 -14 34t-43 13l-109 6l4 59q25 0 125.5 -3t139 -3t135 3t141.5 3l8 -59l-114 -8q-33 -2 -45.5 -13.5t-14.5 -39.5q-8 -152 -8 -340v-361q0 -301 6 -381q2 -12 10.5 -19t41 -11.5 t96.5 -4.5q164 0 228 16.5t97 65.5q55 80 92 244l58 -2q-20 -117 -47 -393q-55 6 -248 6q-119 2 -424 2q-49 0 -164.5 -3t-138.5 -3z" />
<glyph unicode="M" horiz-adv-x="1734" d="M33 -6v57q10 0 96 10q41 6 59.5 35t24.5 109q18 436 18 975l-6 24q-8 25 -63 29l-109 8l4 57q156 -6 242 -6q115 0 156 6q20 -57 97 -233l177 -409l152 -351q369 874 407 993q68 -6 158 -6q43 0 121 3t104 3l6 -57q-23 -2 -73 -7t-60 -5q-37 -2 -37 -45v-262 q0 -664 11 -789q4 -41 16 -53t47 -17l111 -12v-57q-70 6 -273 6q-35 0 -81 -1t-104 -3t-91 -2l4 57q92 6 122.5 19.5t33.5 48.5q6 123 20 1083h-2l-467 -1194l-86 -20q-47 139 -230.5 599t-236.5 603h-4q0 -496 14 -987q2 -80 19.5 -106.5t79.5 -33.5l106 -12v-57 q-33 0 -120 3t-136 3q-55 0 -133 -3t-94 -3z" />
<glyph unicode="N" horiz-adv-x="1372" d="M27 -6l2 57q39 0 108 12q35 6 49.5 27t18.5 66q10 68 20.5 367.5t10.5 631.5q-10 33 -23 47q-18 25 -82 31l-94 8v57q14 0 91 -3t116 -3q90 0 164 6q20 -35 112 -170q121 -186 588 -849q1 120 1 224q0 521 -17 640q-6 51 -27 69.5t-78 22.5l-106 6l10 57q45 0 131 -3 t121 -3q43 0 119.5 3t97.5 3l2 -57q-70 -6 -107 -14q-45 -10 -55 -74q-23 -166 -22 -639v-520q-80 -10 -119 -21l-758 1129q0 -858 16 -959q10 -66 68 -75l139 -17l-4 -57q-29 0 -120 3t-152 3q-53 0 -127 -3t-94 -3z" />
<glyph unicode="O" horiz-adv-x="1384" d="M90 635q0 297 162 493.5t455 196.5h2q274 0 429.5 -187.5t155.5 -469.5q0 -342 -163.5 -521.5t-440.5 -179.5q-274 0 -437 175.5t-163 492.5zM324 659q0 -305 106 -471q98 -158 279 -157q172 0 264 151q88 156 88 459q0 295 -94 463q-94 162 -275 162h-2 q-174 0 -272 -158q-94 -154 -94 -449z" />
<glyph unicode="P" horiz-adv-x="1136" d="M33 -6l4 57l88 8q53 4 69.5 17.5t18.5 58.5q10 147 10 377v391q0 229 -2 275q-2 49 -45 51l-133 14l14 57q12 0 98.5 -4t135.5 -4q33 0 137 4t178 4q248 0 350 -96q106 -100 107 -278q0 -184 -107 -295q-117 -117 -309 -117q-94 0 -149 21l6 59q57 -12 108 -12 q111 0 166 80q66 86 66 251q0 162 -66 238q-70 84 -227 84q-72 0 -93.5 -8t-23.5 -27q-10 -160 -10 -332v-258v-256q0 -96 6 -231q2 -33 16.5 -43t57.5 -14l127 -15l-2 -57q-43 0 -152.5 3t-167.5 3q-47 0 -140 -3t-136 -3z" />
<glyph unicode="Q" horiz-adv-x="1384" d="M90 625q0 305 165 502.5t458 197.5q266 0 423.5 -180t157.5 -481q0 -170 -44 -302.5t-116.5 -209t-150.5 -118.5t-162 -57v-6q55 -31 217 -100q158 -66 269 -72q23 -4 45 -4q36 0 71 10l2 -51q-106 -88 -264 -88q-152 0 -413 215q-98 80 -199 101q-84 16 -160 56 t-146.5 112.5t-111.5 194.5t-41 280zM324 649q0 -303 104 -467q102 -158 283 -157q164 0 256 143q94 156 94 481q0 281 -92 455q-94 162 -277 162h-2q-174 0 -272 -164q-94 -162 -94 -453z" />
<glyph unicode="R" horiz-adv-x="1214" d="M39 1241l10 57q16 0 106.5 -3t143.5 -3q47 0 151.5 3t159.5 3q254 0 342 -88q80 -74 80 -211q0 -276 -352 -333v-9q150 -18 238 -81.5t110 -194.5q14 -70 27 -197q6 -72 31.5 -105.5t78.5 -33.5q31 0 60 8l-8 -59q-53 -16 -140 -17q-123 0 -182 56.5t-68 187.5 q-2 25 -7 79t-7 85q-14 141 -92 190.5t-238 49.5h-61v-207q0 -201 6 -297q2 -39 31.5 -50.5t140.5 -19.5l-4 -57q-35 0 -135.5 3t-143.5 3q-55 0 -146 -3t-126 -3l2 57q100 6 132 17.5t34 44.5q8 98 8 325v428q0 225 -4 316q-2 43 -51 47zM422 915v-229h61q166 0 249 68.5 t83 224.5q0 109 -41 170q-59 86 -213 86q-51 0 -102 -10q-27 -6 -29 -35q-8 -107 -8 -275z" />
<glyph unicode="S" horiz-adv-x="997" d="M88 47q10 104 16 369l56 12q0 -14 -1 -27q0 -173 76 -267q81 -101 238 -101q113 0 184.5 62.5t71.5 183.5q-1 131 -111 196q-29 16 -147.5 77.5t-167.5 90.5q-193 109 -192 318q0 168 110.5 267t288.5 99q84 0 157.5 -23.5t108.5 -58.5l35 90l51 -12q-33 -182 -33 -395 l-55 -6q0 168 -75.5 255t-194.5 87q-100 0 -159.5 -62.5t-59.5 -171.5q0 -141 141 -217l130 -69l120 -63q47 -26 80 -46q162 -90 162 -277q0 -188 -134.5 -289.5t-339.5 -101.5q-184 0 -356 80z" />
<glyph unicode="T" horiz-adv-x="1218" d="M37 926q18 96 45 387q84 -20 438 -21h162q389 0 471 21q-20 -162 -20 -302q0 -35 2 -69l-56 -20q-16 166 -45 237q-14 45 -73 60q-52 13 -211 12h-48q0 -20 -1 -117.5t-1 -159.5v-452q0 -295 11 -377q2 -55 51 -59q102 -12 160 -15l-4 -57q-25 0 -144 3t-194 3 q-47 0 -148.5 -3t-148.5 -3l-9 57q55 2 152 15q63 6 66 55q8 92 8 383v430q0 242 -2 297q-201 0 -255.5 -17.5t-80.5 -80.5q-29 -66 -72 -222z" />
<glyph unicode="U" horiz-adv-x="1359" d="M43 1243v57q39 0 130 -4t134 -4q33 0 126 4t134 4l4 -57l-112 -12q-39 -2 -45 -51q-10 -115 -12 -370v-46q0 -225 10 -379q6 -96 24.5 -146.5t57 -91.5t108.5 -65.5t141 -24.5h2q156 0 242 76t100 285q12 171 12.5 352.5t-12.5 374.5q-2 37 -15 56.5t-28.5 24.5t-46.5 7 l-102 10l-6 57q33 0 108.5 -4t110.5 -4q41 0 121 4t104 4l10 -57l-77 -8q-43 -4 -57.5 -20.5t-16.5 -55.5q-4 -102 -8 -286.5t-10.5 -315.5t-14.5 -207q-29 -203 -158 -295q-117 -88 -325 -88q-262 0 -381 133q-47 55 -67.5 130t-22.5 208q0 72 -1 376t-3 353q-2 61 -43 64z " />
<glyph unicode="V" horiz-adv-x="1282" d="M-29 1298q16 0 110.5 -3t149.5 -3q39 0 131.5 3t137.5 3l10 -57l-111 -12q-27 -2 -33 -12.5t1 -32.5q39 -152 342 -981q295 774 340 971q2 9 2 17q0 31 -33 36q-37 6 -123 14l-10 57q14 0 91 -3t126 -3q33 0 108.5 3t118.5 3l12 -57q-94 -2 -132 -24.5t-72 -100.5 q-145 -324 -432 -1141q-31 6 -62 6q-35 0 -70 -8l-237 685q-135 376 -189 495q-27 53 -57.5 68.5t-114.5 19.5z" />
<glyph unicode="W" horiz-adv-x="1873" d="M-16 1241v57q141 -6 243 -6q41 0 129 3t133 3l13 -57l-107 -14q-32 -2 -31 -28q0 -8 3 -17q6 -27 266 -953q262 926 289 1063q18 -2 44 -1q40 0 101 3q41 -180 309 -1077q219 688 271 934q8 43 0.5 58.5t-41.5 17.5l-121 14l-4 57q27 0 103.5 -3t123.5 -3t112.5 3 t100.5 3v-57q-94 -10 -125 -29.5t-59 -95.5q-100 -285 -363 -1141q-27 3 -55 3q-37 0 -74 -5l-311 1071q-246 -874 -297 -1069q-9 2 -32 2q-34 0 -99 -4q-63 244 -173 611.5t-165 531.5q-27 80 -59.5 101.5t-124.5 23.5z" />
<glyph unicode="X" horiz-adv-x="1228" d="M-31 51q82 6 125 23.5t86 68.5q94 119 344 506q-246 438 -307 527q-27 37 -64.5 49t-121.5 16l-4 57q184 -6 260 -6q41 0 128 3t136 3l12 -57l-98 -12q-41 -6 -23 -41l219 -387q168 250 232 370q16 33 9 45.5t-42 16.5l-92 8l10 57q41 0 116 -4t95 -4q15 -1 32 0 q42 0 96 3q77 5 104 5l8 -57q-113 -8 -157 -27.5t-97 -85.5q-88 -109 -277 -387q231 -410 359 -608q49 -70 133 -74l78 -8v-57q-20 0 -112.5 3t-149.5 3q-16 0 -287 -6l-4 57q45 4 69.5 8t37 11.5t11 16.5t-7.5 24l-262 475q-195 -303 -254 -422q-20 -39 -20 -62q0 -7 2 -13 q8 -24 57 -28l101 -10l12 -57q-25 0 -106 3t-138 3l-240 -6z" />
<glyph unicode="Y" horiz-adv-x="1138" d="M-37 1298q12 0 100.5 -3t141.5 -3q61 0 151 3t119 3l8 -57l-92 -8q-41 -2 -18 -43q37 -80 278 -520q182 324 258 499q9 22 10 36q0 23 -26 24q-53 10 -115 12l6 57q20 0 97 -3t116 -3q29 0 96.5 3t104.5 3l4 -57q-88 -4 -125 -22.5t-80 -77.5q-121 -182 -286 -498 q-25 -47 -25 -100q-3 -96 -3 -180q0 -146 9 -252q4 -41 51 -43q74 -10 144 -17l8 -57q-35 0 -153.5 3t-182.5 3q-53 0 -148.5 -3t-144.5 -3l-8 57q68 6 141 17q72 6 74 69q10 119 10 389q0 51 -26 103q-29 61 -130.5 237l-164.5 277q-39 61 -74 77.5t-123 20.5z" />
<glyph unicode="Z" horiz-adv-x="1226" d="M66 29q594 858 798 1200h-254q-147 0 -224 -13.5t-106.5 -36t-48.5 -71.5q-23 -53 -65 -223l-51 14q30 168 30 301q0 57 -6 109q55 -14 144 -15q59 -2 295 -2h61h276q12 0 203 6q-20 -78 -47 -118l-330 -504l-401 -613h116q219 0 322 7q129 8 172 26.5t72 71.5 q41 72 88 254l53 -16q-39 -297 -41 -418q-57 6 -207 10q-82 2 -260 2h-387q-121 0 -186 -6z" />
<glyph unicode="[" horiz-adv-x="681" d="M207 -360q6 406 6 897q0 700 -6 886q39 -9 135 -9t250 9l-8 -61q-115 -4 -181 -14q-31 -6 -32 -39q-18 -111 -19 -772q0 -653 13 -789q6 -33 59 -33l168 -4l-12 -63q-98 3 -172 2q-148 1 -201 -10z" />
<glyph unicode="\" horiz-adv-x="763" d="M84 1395l92 43q78 -274 262 -850q35 -106 119 -386t117 -372l-101 -37l-237 809q-201 664 -252 793z" />
<glyph unicode="]" horiz-adv-x="681" d="M92 -356l8 61q119 0 181 14q31 4 32 39q16 115 17 772q0 690 -13 791q-2 31 -57 31l-168 4l12 63q97 -3 171 -2q147 0 202 10q-6 -406 -6 -897q0 -698 6 -886q-35 7 -143 7h-28q-132 -1 -214 -7z" />
<glyph unicode="^" horiz-adv-x="1019" d="M113 592l340 717h112l340 -717h-123l-276 590l-266 -590h-127z" />
<glyph unicode="_" horiz-adv-x="1024" d="M0 -227h1024v-119h-1024v119z" />
<glyph unicode="`" horiz-adv-x="933" d="M223 1331q2 37 21.5 58.5t46.5 21.5q63 0 100 -72l156 -315l-43 -31l-236 238q-45 45 -45 100z" />
<glyph unicode="a" horiz-adv-x="980" d="M80 225q0 139 115 185q43 18 148.5 57t176 68.5t105.5 56.5v80q0 74 -39 123t-121 49q-88 0 -131 -40t-43 -108q0 -29 8 -61q4 -25 -18 -43q-31 -20 -70 -20.5t-64.5 22t-25.5 70.5q0 86 107.5 162.5t269.5 76.5q201 0 276 -115q29 -47 29 -108v-518q0 -92 49 -92 q53 0 84 125l51 -21q-39 -203 -205 -203q-139 0 -157 152q-141 -152 -295 -152q-115 0 -182.5 70.5t-67.5 183.5zM281 254q0 -74 37.5 -124t105.5 -50q127 0 188 135q12 35 13 84v227q-25 -14 -113 -54t-127 -62q-53 -29 -78.5 -61t-25.5 -93v-2z" />
<glyph unicode="b" horiz-adv-x="1077" d="M10 1303l2 57q209 0 330 26q0 -14 -4 -160.5t-4 -291.5v-182q170 152 323 151q178 0 271 -141q72 -106 71 -283q0 -240 -120.5 -374t-346.5 -134q-158 0 -249 60l-121 -58l-15 11q0 18 2.5 202.5t2.5 323.5v481q0 121 -7 275q-2 25 -25.5 31t-109.5 6zM332 410 q0 -109 4 -167.5t8 -72.5t14 -35q53 -102 179 -102h2q131 0 194.5 117.5t63.5 310.5q0 162 -60 256q-59 88 -166 88q-70 0 -126 -37t-91 -92q-14 -23 -18 -66.5t-4 -199.5z" />
<glyph unicode="c" horiz-adv-x="925" d="M78 424q0 205 125 342t338 137q141 0 229 -60.5t88 -160.5q0 -53 -29.5 -81t-74.5 -28q-37 0 -52 15q-23 18 -16 43q0 6 4 28.5t4 34.5q0 150 -159 150q-121 0 -186.5 -111.5t-65.5 -283.5q0 -166 57 -263q74 -121 217 -120q100 0 160.5 50t101.5 160l53 -28 q-84 -276 -374 -277q-211 0 -324 131q-96 115 -96 322z" />
<glyph unicode="d" horiz-adv-x="1097" d="M78 406q0 213 119.5 355t343.5 142q133 0 202 -53q0 338 -4 410q-4 35 -27 40q-18 5 -80 5h-46l8 55q203 6 342 26q-10 -420 -10 -460v-473q0 -276 10 -353q2 -27 13.5 -36t33.5 -7h96l-12 -57q-211 -6 -326 -31v146h-6q-143 -143 -297 -144q-178 0 -274 133 q-86 120 -86 302zM279 440q0 -180 67 -272q63 -92 174 -92q135 0 201 119q23 37 22 319q0 190 -14 217q-59 109 -184 109q-129 0 -197.5 -112t-68.5 -286v-2z" />
<glyph unicode="e" horiz-adv-x="925" d="M78 420q0 203 113.5 343t316.5 140q84 0 149.5 -25.5t102.5 -64.5t60.5 -89t30.5 -92t7 -83q0 -66 -43 -82q-57 -23 -268 -27h-268q0 -13 -1 -26q0 -146 64 -240q68 -109 205 -108q94 0 154.5 47t101.5 151l53 -28q-88 -264 -367 -265q-219 0 -323 140q-88 110 -88 309z M283 504h170q117 0 182 12q41 10 41 72q0 98 -44 176t-136 78h-2q-98 0 -151.5 -99.5t-59.5 -238.5z" />
<glyph unicode="f" horiz-adv-x="581" d="M51 -6l2 57q82 4 105.5 14.5t25.5 36.5q8 98 9 316v381l-138 14l6 61h132l2 68q4 233 106 342q96 106 240 107q100 0 154.5 -47.5t54.5 -108.5q0 -41 -28 -66.5t-71 -25.5q-51 0 -51 51q4 133 -96 133q-94 0 -117 -151q-10 -62 -10 -185q0 -53 2 -117h203l-11 -63 l-194 -12q-2 -80 -2 -377q0 -199 4 -305q0 -47 47 -54q92 -10 119 -12l-6 -57q-29 0 -116 3t-132 3t-128 -3t-112 -3z" />
<glyph unicode="g" horiz-adv-x="966" d="M55 -270q0 80 76 131q55 43 133 69l27 -36q-98 -41 -98 -136q0 -86 81.5 -137t208.5 -51q164 0 253 70.5t89 177.5q0 59 -38.5 94t-100.5 35q-287 0 -356 2q-137 0 -207 76q-51 55 -51 131q0 123 135 204q-76 78 -76 209q0 158 106.5 246t258.5 88q121 0 204 -53 q119 94 193 94q37 0 62.5 -20.5t25.5 -40.5q-2 -23 -25.5 -48.5t-46.5 -35.5q-37 33 -96 32q-31 0 -68 -14q88 -86 89 -227q0 -156 -106.5 -241t-258.5 -85q-143 0 -217 58q-82 -33 -82 -111q0 -39 35 -62.5t84 -23.5t188 2t234 2q100 0 166 -53q84 -68 84 -185 q0 -188 -161 -292.5t-368 -104.5q-178 0 -277.5 63.5t-99.5 172.5zM317 584q0 -109 40 -184.5t124 -75.5q162 0 162 258q0 260 -162 260h-2q-80 0 -121 -68.5t-41 -189.5z" />
<glyph unicode="h" horiz-adv-x="1105" d="M41 -6v57q76 4 98.5 14.5t24.5 43.5q8 127 8 315v584q0 201 -6 270q-2 20 -24.5 26.5t-98.5 6.5v53q209 4 320 22q-8 -160 -9 -382v-259q154 158 330 158q164 0 223 -115q29 -55 29 -153v-529q0 -33 20.5 -42t110.5 -13l-4 -57q-27 0 -102.5 3t-120.5 3q-51 0 -121 -3 t-92 -3l2 57q70 2 91 13.5t25 39.5q8 82 9 297q0 270 -19 318q-37 84 -137 84q-145 0 -221 -127q-23 -41 -23 -103v-229q0 -143 4 -233q2 -35 23.5 -46.5t95.5 -13.5l-2 -57q-25 0 -104.5 3t-118.5 3q-47 0 -116.5 -3t-94.5 -3z" />
<glyph unicode="i" horiz-adv-x="544" d="M47 -6l2 57q84 2 108.5 14.5t26.5 40.5q8 82 9 244v223q0 160 -7 209q-2 20 -25 27q-14 4 -50 4q-23 0 -56 -2l4 55q231 14 322 35q-6 -147 -6 -317v-236q0 -172 6 -239q2 -33 24.5 -43.5t102.5 -14.5l-4 -57q-27 0 -104.5 3t-131.5 3q-55 0 -124.5 -3t-96.5 -3z M160 1188q0 49 31.5 80.5t78.5 31.5h2q49 0 77 -29.5t28 -80.5q0 -49 -33 -79t-82 -30q-43 0 -72.5 29t-29.5 78z" />
<glyph unicode="j" horiz-adv-x="524" d="M-88 -432l12 20q37 -8 72 -8q158 0 176 242q16 170 16 581q0 268 -8 379q-2 18 -9 25.5t-32 7.5h-102v55q168 6 332 33l4 -6q0 -41 -1 -231.5t-1 -401.5q0 -248 -13 -344q-20 -178 -108 -278q-59 -68 -134 -104t-124 -36q-35 0 -51 21q-23 27 -29 45zM152 1188 q0 49 31.5 80.5t78.5 31.5h2q104 0 105 -110q0 -47 -33 -78t-80 -31q-43 0 -73.5 29t-30.5 78z" />
<glyph unicode="k" horiz-adv-x="1013" d="M29 -6v57q82 2 105.5 13.5t27.5 39.5q8 147 8 324v528q0 252 -4 316q0 29 -43 31l-82 2v55q203 4 319 24q-8 -369 -8 -432v-463q61 8 159.5 105.5t158.5 185.5q20 31 -13 33l-92 8l2 53q203 0 404 13l2 -53q-84 -10 -124 -22.5t-75 -41.5q-102 -90 -233 -225 q68 -100 183.5 -253t162.5 -200q35 -39 102 -41h64l-4 -55q-209 0 -316 -25q-43 68 -313 437q-23 34 -57 33q-5 0 -11 -1q0 -266 4 -336q2 -31 24.5 -41t104.5 -12l-4 -57q-33 0 -109.5 3t-129.5 3q-63 0 -130 -3t-83 -3z" />
<glyph unicode="l" horiz-adv-x="524" d="M25 -6l2 57q82 2 106.5 14.5t26.5 47.5q10 195 10 356v512q0 231 -4 287q-2 25 -24.5 31t-110.5 6l2 55q168 2 327 26q-8 -311 -8 -411v-514q0 -254 4 -352q2 -33 28 -43.5t110 -14.5l-7 -57q-35 0 -119.5 3t-125.5 3q-53 0 -125 -3t-92 -3z" />
<glyph unicode="m" horiz-adv-x="1691" d="M59 809l4 55q160 0 302 31q4 -37 12 -160q164 168 332 168q137 0 196 -88q16 -20 35 -78q49 47 84 76t104.5 59.5t143.5 30.5q156 0 221 -117q29 -51 29 -133v-546q0 -33 19.5 -41.5t113.5 -14.5l-4 -57q-29 0 -106 3t-126 3t-117.5 -3t-91.5 -3l2 57q70 2 92.5 13.5 t26.5 39.5q8 98 8 297q0 279 -16 314q-37 84 -139 84q-139 0 -215 -133q-20 -39 -21 -91v-274q0 -106 4 -197q4 -31 26.5 -41t100.5 -12l-6 -57q-23 0 -102.5 3t-124.5 3t-112.5 -3t-92.5 -3v57q74 4 95.5 14.5t23.5 47.5q6 88 6 252v161q0 156 -16 193q-33 80 -132 80 q-145 0 -221 -140q-23 -45 -22 -96v-268q0 -96 4 -191q4 -31 25.5 -41t99.5 -12l-8 -57q-20 0 -100.5 3t-121.5 3q-39 0 -111.5 -3t-101.5 -3v57q80 4 101.5 14.5t23.5 47.5q6 74 7 245v168q0 166 -7 250q-2 23 -23.5 28t-103.5 5z" />
<glyph unicode="n" horiz-adv-x="1128" d="M59 -6v57q78 4 101.5 14.5t25.5 47.5q6 92 7 231v182q0 170 -7 250q0 20 -21.5 26.5t-101.5 6.5l5 55q158 0 294 31q8 -49 15 -154q158 162 317 162q174 0 236 -125q27 -51 26 -127v-545q0 -33 19.5 -41t114.5 -14l-5 -57q-29 0 -105.5 3t-125.5 3q-51 0 -119.5 -3 t-87.5 -3l2 57q68 2 90.5 13.5t24.5 39.5q10 72 10 299q0 186 -4 237.5t-16 78.5q-39 80 -138 80q-143 0 -219 -131q-23 -37 -22 -105v-241q0 -170 4 -216q4 -31 26.5 -42t98.5 -13l-4 -57q-23 0 -106 3t-122 3q-43 0 -113.5 -3t-99.5 -3z" />
<glyph unicode="o" horiz-adv-x="1050" d="M78 430q0 203 122 338t335 135h2q201 0 318.5 -127t117.5 -332q0 -215 -121 -344t-330 -129q-217 0 -330.5 127t-113.5 332zM287 461q0 -190 59 -303q66 -125 193 -125q119 0 176 108q51 102 51 285q0 195 -57 299q-61 117 -185 117h-2q-109 0 -176 -101 q-59 -98 -59 -280z" />
<glyph unicode="p" horiz-adv-x="1095" d="M-4 -477l10 57q94 6 121 16.5t31 41.5q12 190 12 413v453q0 152 -6 274q-2 23 -28 29q-15 4 -52 4q-25 0 -59 -2l12 55q207 12 307 35q2 -25 5 -83t5 -81q168 168 334 168q152 0 240 -112q90 -119 90 -310q0 -236 -117 -373t-334 -137q-133 0 -217 64q0 -307 6 -385 q4 -39 31 -50.5t135 -13.5l-10 -57q-20 0 -104 2t-152 2q-113 0 -260 -10zM354 201q2 -35 21 -62q61 -102 184 -102h2q135 0 196.5 116.5t61.5 299.5q0 166 -61 260q-55 86 -158 86q-145 0 -223 -142q-23 -35 -23 -82q-1 -114 -1 -207t1 -167z" />
<glyph unicode="q" horiz-adv-x="1077" d="M78 403q0 219 126 359.5t349 140.5q137 0 231 -57l123 47h27q-8 -352 -8 -463v-450q0 -190 12 -351q2 -23 27.5 -30t119.5 -9l-8 -57q-279 0 -530 -18l6 59q113 10 145.5 22.5t34.5 38.5q8 86 8 265v196q-137 -125 -296.5 -125t-254.5 99q-112 116 -112 333zM281 444 q0 -182 69 -280q68 -94 182 -94q127 0 191 102q20 29 20 215q0 231 -6 303q-6 43 -24 68q-51 82 -166 82h-2q-133 0 -198.5 -118t-65.5 -278z" />
<glyph unicode="r" horiz-adv-x="765" d="M51 -6l6 57q76 2 99.5 12.5t27.5 36.5q8 86 9 256v168q0 184 -15 250q-6 31 -41 31l-80 2l2 55q186 8 285 37l6 -6q14 -86 15 -199h6q94 209 247 209q59 0 94.5 -37t35.5 -86q0 -57 -32 -85.5t-63 -28.5q-47 0 -59 32q-10 37 -25.5 53.5t-46.5 16.5q-41 0 -76.5 -49 t-56.5 -121q-14 -49 -14 -115q0 -319 4 -370q2 -35 30.5 -46.5t141.5 -15.5l-6 -57q-37 0 -125 3t-135 3t-123 -3t-111 -3z" />
<glyph unicode="s" horiz-adv-x="821" d="M96 31q4 96 4 184q0 59 -2 115l52 8q8 -96 36 -162q55 -141 222 -141q84 0 132 41t48 108q0 78 -74 115l-244 107q-164 70 -164 223q0 127 89.5 200.5t224.5 73.5q59 0 116.5 -16.5t81.5 -36.5l25 70l53 -17q-15 -107 -14 -221q0 -46 2 -92l-53 -12q-8 119 -69.5 191.5 t-158.5 72.5q-70 0 -110.5 -40t-40.5 -106q0 -76 78 -116q33 -16 133 -55.5t137 -57.5q147 -63 148 -209q0 -141 -110 -214t-257 -73q-158 1 -285 60z" />
<glyph unicode="t" horiz-adv-x="692" d="M35 811l10 63h133v230q119 47 174 94l19 -6q-10 -133 -11 -318h285l-8 -63l-279 -12q0 -25 -2 -126.5t-2 -191.5q0 -274 11 -346q12 -82 94 -82q123 0 168 174h24l23 -73q-78 -182 -287 -183q-133 0 -184 72q-35 43 -35 129q0 74 1 189.5t4 253t3 184.5z" />
<glyph unicode="u" horiz-adv-x="1105" d="M35 821l8 56q115 0 190 8q84 6 134 12q-16 -111 -17 -414q-1 -56 -1 -103q-1 -189 13 -239q16 -74 105 -73q86 0 156.5 55t105.5 139q23 55 23 123v199q0 139 -7 200q-2 23 -25.5 28t-111.5 7l-4 55q25 0 209 7q68 4 129 10q-8 -246 -8 -299v-242q0 -188 8 -254 q4 -29 27 -36q18 -6 79 -5h39l-6 -55q-86 -4 -176 -12q-68 -4 -151 -19q-4 106 -4 195q-55 -76 -151.5 -134.5t-213.5 -58.5q-152 0 -197 90q-27 45 -26 121q6 319 6 436q0 113 -4 170q-2 23 -24.5 28t-104.5 5z" />
<glyph unicode="v" horiz-adv-x="927" d="M-10 823v58q129 -6 198 -6q43 0 124 3t108 3l8 -58l-76 -8q-27 -2 -32 -13t6 -38q23 -74 204 -571q154 401 199 567q16 49 -29 55l-90 8v58q35 0 100.5 -3.5t94.5 -3.5q39 0 93 3.5t71 3.5l-2 -58q-72 -6 -100.5 -26.5t-59.5 -83.5q-125 -283 -285 -731q-33 0 -102 -9 q-195 545 -291 764q-25 53 -47 67.5t-92 18.5z" />
<glyph unicode="w" horiz-adv-x="1435" d="M-6 825v56q129 -6 205 -7q6 0 239 7l6 -56l-88 -10q-25 -2 -31 -13t3 -36q27 -92 98 -316l78 -243l120 359l101 311q51 -2 98 4q2 -8 244 -682q139 416 168 559q8 29 0 41t-39 16l-94 10l4 56q35 0 103.5 -3.5t101.5 -3.5q45 0 100 3.5t68 3.5l2 -56q-78 -8 -105.5 -27.5 t-58.5 -88.5q-72 -168 -258 -727q-55 0 -103 -9q-25 78 -116.5 329l-120.5 335l-230 -664q-43 8 -100 9q-45 152 -131 409.5t-123 349.5q-20 51 -44.5 65.5t-96.5 18.5z" />
<glyph unicode="x" horiz-adv-x="958" d="M-16 -6v57q70 4 107.5 23.5t80.5 66.5q41 47 219 287q-176 289 -198 322q-33 45 -64 57t-106 16v58q16 0 88.5 -3.5t115.5 -3.5q33 0 70 1.5t82 3.5t72 2l2 -58l-50 -6q-39 -2 -16 -39l68 -115l61 -104q115 168 143 221q18 31 -24 35l-60 8l5 58q23 0 85 -3.5t95 -3.5 t95 3.5t81 3.5l-4 -58q-70 -4 -108 -17t-74 -48q-76 -84 -199 -256q193 -313 252 -391q27 -33 60.5 -45.5t113.5 -14.5v-57q-14 0 -94 3t-133 3q-35 0 -232 -6l-2 57l53 6q39 8 21 43l-162 269q-123 -168 -166 -258q-8 -15 -8 -27q0 -21 31 -25l77 -8l-6 -57q-35 0 -106.5 3 t-102.5 3q-41 0 -94 -3t-69 -3z" />
<glyph unicode="y" horiz-adv-x="913" d="M-12 823l4 58q166 -7 209 -7q41 0 118.5 3.5t104.5 3.5l8 -58l-74 -8q-41 -6 -26 -47q39 -113 123 -336t88 -235q117 317 170 546q10 41 -1.5 55.5t-52.5 18.5l-73 6l8 58q23 0 84 -3.5t92 -3.5q27 0 88.5 3.5t95.5 3.5l-4 -58q-68 -4 -95.5 -24.5t-55.5 -87.5 q-100 -246 -314 -879q-57 -178 -118.5 -256t-149.5 -78q-63 0 -100 35t-37 88q0 47 26.5 75t63.5 28q45 0 59 -41q18 -61 58 -62q20 0 39.5 21.5t41.5 72.5l32 79q11 28 34 95l21 70q-25 29 -54 98q-219 582 -266 680q-23 47 -41 61.5t-61 20.5z" />
<glyph unicode="z" horiz-adv-x="923" d="M70 35q147 182 312 432t212 346q-174 0 -254 -8q-63 -6 -91 -22.5t-46 -65.5q-14 -35 -43 -152l-56 -10q20 285 21 340q53 -21 223 -21h174q70 0 309 7q-8 -57 -51 -121q-25 -41 -219 -337l-239 -364q223 0 327 15q63 10 101 64.5t67 201.5l53 -14q-27 -170 -34 -336 q-117 10 -529 10q-141 0 -215 -4z" />
<glyph unicode="{" horiz-adv-x="684" d="M70 557q96 2 144 40t48 128q0 55 -8 191.5t-8 177.5q0 100 35.5 176t90 113.5t109.5 55.5q45 14 87 14q10 0 20 -1l-6 -63q-115 -8 -155 -59q-31 -38 -31 -123q0 -26 3 -56q4 -37 13.5 -108.5t13.5 -123t4 -98.5q-2 -119 -55 -185.5t-172 -109.5q119 -47 173 -113.5 t54 -195.5q0 -25 -20 -280q-4 -45 -4 -82q0 -92 22 -130q31 -54 156 -63v-63q-15 -2 -31 -2q-99 0 -196 70q-112 81 -111 249q0 53 8 205.5t8 208.5q0 88 -44 126t-136 38z" />
<glyph unicode="|" horiz-adv-x="516" d="M190 -510v2048h138v-2048h-138z" />
<glyph unicode="}" horiz-adv-x="684" d="M98 -401l4 63q117 8 158 58.5t29 179.5q-4 41 -13.5 109.5t-14.5 120.5t-5 99q2 121 55.5 185.5t171.5 109.5q-121 45 -174 114t-53 198q0 72 20 276q14 158 -17.5 212t-156.5 62l-2 64q70 6 144.5 -19.5t136 -103.5t61.5 -197q0 -51 -9 -202.5t-9 -204.5q0 -88 45 -127 t135 -39l10 -63q-94 -2 -142 -40t-48 -128q0 -57 9 -192.5t9 -178.5q0 -100 -35.5 -175t-92 -113t-112 -55t-104.5 -13z" />
<glyph unicode="~" horiz-adv-x="1064" d="M104 315q14 367 242 367q111 0 221 -145q104 -135 164 -136q51 0 83 53.5t44 215.5l100 -17q-12 -367 -235 -366q-63 0 -116.5 41t-117.5 121q-49 63 -81.5 91.5t-69.5 28.5q-109 0 -131 -266z" />
<glyph unicode="&#xa1;" horiz-adv-x="448" d="M94 -307q0 68 27 164q74 313 74 600h63q0 -283 74 -600q27 -102 26 -164q0 -55 -45 -107.5t-90 -52.5h-2q-35 0 -81 49.5t-46 110.5zM96 770q0 55 36 93t87 38h2q55 0 89 -37t34 -94q0 -55 -37 -92t-88 -37t-87 37t-36 92z" />
<glyph unicode="&#xa2;" d="M80 641q0 199 127 325t328 134l4 155l79 19l-12 -174q129 -6 209 -59.5t80 -145.5q0 -49 -29.5 -78t-72.5 -29q-31 0 -47.5 16.5t-12.5 37.5q10 37 10 71q0 111 -143 129q-23 -424 -33 -743q215 6 289 219l33 -2l8 -76q-39 -88 -130 -148.5t-206 -68.5l-6 -168l-80 -20 l12 186q-205 6 -313 125q-94 105 -94 295zM285 668q0 -176 55 -260q55 -88 156 -105q16 315 34 741q-127 -12 -186 -119.5t-59 -254.5v-2z" />
<glyph unicode="&#xa3;" d="M18 608l29 78q37 -2 156 -2q-23 199 2 303q33 147 153 230q98 63 226 63q150 0 226.5 -67.5t76.5 -149.5q0 -57 -29 -89t-74 -32q-33 0 -49 14q-23 14 -16 37q10 55 10 72q0 72 -41 113t-121 41q-178 0 -176 -254q0 -59 19 -281q176 0 344 4l-29 -80q-10 0 -106.5 2 t-202.5 2q0 -174 -49 -278q-47 -94 -168 -193q588 8 612 25q23 10 31 39q27 82 43 141l59 10q-41 -190 -45 -358l-12 -12q-195 14 -611 14q-131 0 -245 -8l-11 20l43 94q143 94 152 259q8 111 -6 247q-119 0 -191 -4z" />
<glyph unicode="&#xa4;" horiz-adv-x="983" d="M70 233l129 127q-90 102 -90 263q0 156 100 262l-135 123l80 86l118 -150q84 66 217 66h3q133 0 210 -66l115 148l86 -84l-141 -125q86 -96 86 -256q0 -166 -94 -260l145 -136l-84 -86l-125 164q-88 -70 -217 -69.5t-213 61.5l-115 -151zM246 629q0 -143 66.5 -224 t170.5 -81q113 0 171.5 84t58.5 217q0 129 -54.5 216t-173.5 87h-2q-115 0 -176 -84t-61 -215z" />
<glyph unicode="&#xa5;" d="M-20 1210l2 54q25 0 98.5 -2t118.5 -2q59 0 133 2t104 2l4 -54q-29 -2 -90 -10q-29 -2 -12 -37q37 -82 209 -415q123 233 192 399q8 18 8.5 28.5t-11 17.5t-38 11t-77.5 6l6 54q20 0 89.5 -2t104.5 -2q25 0 81 2t85 2l2 -54q-66 -4 -99.5 -21.5t-70.5 -70.5 q-35 -49 -233 -430q61 0 143 3t119 3l-21 -78q-8 0 -97 2.5t-152 2.5v-156q139 0 253 4l-20 -80q-129 6 -238 6q0 -205 7 -284q4 -25 14 -35t35 -13q57 -6 137 -12l2 -57q-133 6 -313 6q-35 0 -125 -3t-135 -3l-2 57q16 2 133 15q57 8 59 65q6 123 6 264q-172 0 -239 -4 l10 82q184 -6 233 -6v154q-182 0 -260 -5l19 80q12 0 86 -2l143 -4q-145 293 -240 434q-35 55 -64 69.5t-99 16.5z" />
<glyph unicode="&#xa6;" horiz-adv-x="516" d="M190 -358v716h138v-716h-138zM190 666v716h138v-716h-138z" />
<glyph unicode="&#xa7;" horiz-adv-x="1011" d="M84 690q0 254 199 449q131 127 276 127h2q106 0 179 -47.5t73 -141.5q0 -45 -28.5 -71.5t-67.5 -26.5q-37 0 -64 20q-18 18 -12 37q18 33 18 70q0 41 -35.5 69.5t-99.5 28.5q-70 0 -110.5 -41t-40.5 -100q0 -63 49 -125q23 -27 184.5 -163t227.5 -218q86 -102 86 -252 q0 -223 -138 -391q-166 -205 -358 -205q-98 0 -183 51.5t-85 153.5q0 47 28.5 76.5t71.5 29.5q53 0 82 -45q16 -29 2 -47q-20 -27 -21 -57q0 -43 38 -70.5t106 -27.5q78 0 123 41q43 39 43 99q0 81 -99 179q-33 33 -166 153t-171 163q-109 118 -109 282zM186 801 q0 -172 150 -312q51 -49 152.5 -139t138.5 -129q113 -117 110 -268q82 90 82 242v2q0 135 -90 239q-53 63 -202.5 196.5t-170.5 158.5q-87 96 -87 211q0 23 3 47q-86 -103 -86 -248z" />
<glyph unicode="&#xa8;" horiz-adv-x="933" d="M195 1188q0 47 29.5 77.5t74.5 30.5h2q43 0 68.5 -28.5t25.5 -73.5q0 -49 -31.5 -79t-72.5 -30q-39 0 -67.5 27t-28.5 76zM543 1188q0 47 29.5 77.5t74.5 30.5h2q43 0 68.5 -28.5t25.5 -73.5q0 -49 -30.5 -79t-73.5 -30q-39 0 -67.5 27t-28.5 76z" />
<glyph unicode="&#xa9;" horiz-adv-x="1439" d="M98 659q0 276 179.5 467t443.5 191h2q268 0 443 -189.5t175 -468t-178 -466t-442 -187.5q-268 0 -445.5 185t-177.5 468zM182 659q0 -254 155 -420.5t388 -166.5q229 0 382 167t153 420.5t-148.5 422.5t-390.5 169h-2q-229 0 -383 -168t-154 -424zM391 662q0 168 113 268 q96 86 254 86q111 0 180 -47q14 -8 16 4l17 37l41 -4q-11 -70 -11 -152q0 -55 5 -115h-41q-18 109 -58 160q-51 63 -141 63.5t-143 -65.5q-61 -76 -62 -219q0 -147 60 -213q57 -70 155 -70q160 0 219 168l41 -22q-29 -111 -111.5 -162t-185.5 -51q-180 0 -272 102 q-76 87 -76 232z" />
<glyph unicode="&#xaa;" horiz-adv-x="747" d="M51 717q0 94 94 123q264 80 308 104v47q0 104 -113 105q-55 0 -84 -24.5t-29 -55.5q0 -14 9 -39q8 -27 -19 -43q-27 -20 -67 -21q-29 0 -47.5 17.5t-18.5 46.5q0 70 83 120t195 50q150 0 209 -74q27 -31 27 -78q0 -10 -2 -134t-2 -169q0 -61 35 -61q41 0 67 90l45 -19 q-33 -154 -168 -153q-115 0 -122 96v6q-115 -100 -228 -100q-78 0 -125 48t-47 118zM209 735q0 -45 27.5 -72.5t70.5 -27.5q96 0 135 92q10 27 11 53v113l-79 -31q-69 -27 -95 -39q-37 -16 -53.5 -34.5t-16.5 -53.5z" />
<glyph unicode="&#xab;" horiz-adv-x="1013" d="M100 416l19 43q96 33 192.5 130t159.5 228l53 -22q-51 -178 -188 -359q158 -213 188 -352l-47 -31q-61 133 -175 234.5t-202 128.5zM494 418l18 41q96 33 193.5 130t160.5 228l54 -24q-55 -182 -191 -357q156 -201 191 -350l-48 -33q-61 131 -175.5 233.5t-202.5 131.5z " />
<glyph unicode="&#xac;" horiz-adv-x="1064" d="M113 614v105h837v-520h-108v415h-729z" />
<glyph unicode="&#xad;" horiz-adv-x="641" d="M72 412l24 127q221 -6 471 0l-22 -127q-248 6 -473 0z" />
<glyph unicode="&#xae;" horiz-adv-x="489" d="M35 1091.5q0 96.5 63.5 163t157.5 66.5h2q92 0 153.5 -66.5t61.5 -163t-62.5 -162t-156.5 -65.5t-156.5 65.5t-62.5 162zM84 1090q0 -78 50 -131.5t124 -53.5t123 53.5t49 131.5q0 82 -49 137t-127 55h-2q-70 0 -119 -54t-49 -138zM141 1171l2 23q4 0 24.5 -1t29 -1t33 1 t42.5 1q70 0 70 -47q0 -39 -53 -49v-2q39 -2 49 -27q8 -16 8 -31q2 -20 19 -20q2 0 7 1t7 1l-2 -23q-4 0 -20.5 -3t-24.5 -3q-41 0 -45 43q0 4 -1 12.5t-1 12.5q-4 18 -27 22h-27q0 -39 2 -51q0 -8 9 -8l18 -4v-23h-113v23l15 2q14 0 14 8q2 14 2 69.5t-2 63.5q0 8 -8 8z M231 1104q14 0 25 2q27 0 27 31v2q0 35 -31 35q-18 0 -21 -7v-63z" />
<glyph unicode="&#xaf;" horiz-adv-x="933" d="M238 1096l20 123h438l-16 -123h-442z" />
<glyph unicode="&#xb0;" horiz-adv-x="638" d="M80 1079q0 117 71.5 183.5t182.5 66.5h2q102 0 162.5 -64.5t60.5 -170.5q0 -113 -69.5 -178.5t-174 -65.5t-170 59t-65.5 170zM205 1094q0 -84 31.5 -131.5t82.5 -47.5q119 0 119 185q0 61 -24.5 113.5t-87.5 54.5h-2h-5q-62 0 -88 -54t-26 -120z" />
<glyph unicode="&#xb1;" horiz-adv-x="1060" d="M111 12v105h843v-105h-843zM111 565v105h366v348h111v-348h366v-105h-366v-370h-111v370h-366z" />
<glyph unicode="&#xb2;" horiz-adv-x="741" d="M82 879l33 79q281 160 342 312q25 66 24 131q0 61 -28.5 105t-94.5 44q-125 0 -125 -137q0 -33 6.5 -53.5t-14.5 -34.5q-16 -16 -49 -16q-78 0 -78 88q0 76 82 141q88 66 207 66q109 0 178 -45q86 -59 86 -175q0 -100 -80 -174q-74 -68 -309 -225q281 6 324 12 q25 0 37 23q20 41 36 96l50 -18q-43 -143 -54 -234q-86 6 -401 6q-121 0 -168 -4z" />
<glyph unicode="&#xb3;" horiz-adv-x="741" d="M86 1016q0 31 22.5 53.5t57.5 22.5q23 0 34 -12.5t21 -43.5q35 -129 156 -129q74 0 112.5 43t38.5 117q0 152 -168 152q-53 0 -86 -13l-30 39l6 17q90 10 127 24q115 41 115 139q0 51 -33 87t-92 36q-131 0 -131 -114q0 -18 4 -48q2 -14 -13.5 -24t-38.5 -10 q-76 0 -75 73q0 63 78.5 121t205.5 58h2q98 0 176 -43t78 -132q0 -76 -78 -118q-43 -25 -124 -47v-7q141 -10 198 -59q53 -41 53 -119q0 -92 -86 -157q-96 -68 -251 -68q-117 0 -198 46t-81 116z" />
<glyph unicode="&#xb4;" horiz-adv-x="933" d="M379 1026q23 35 101 166l89 147q47 72 111 72q27 0 43 -19.5t16 -50.5q0 -53 -63 -116l-254 -232z" />
<glyph unicode="&#xb5;" horiz-adv-x="1105" d="M129 -446q29 453 37 616q0 57 1 217t1 240q0 92 -6 252q6 0 12 -1q63 0 197 19q-20 -111 -21 -434q0 -268 17 -322q23 -72 98 -71q92 0 162.5 62.5t107.5 164.5q18 49 19 115v172q0 174 -6 290q74 0 198 17q-10 -150 -10 -299v-242q0 -188 8 -252q4 -41 33 -41 q27 0 56.5 35t43.5 101l49 -43q-61 -176 -223 -177q-84 0 -119 53q-32 49 -32 145v11q-51 -82 -142 -144q-87 -60 -182 -61h-6q-84 0 -123 46q4 -238 35 -510l-15 -15q-47 0 -92 11.5t-69.5 24t-28.5 20.5z" />
<glyph unicode="&#xb6;" horiz-adv-x="1105" d="M139 664q0 299 230 428q88 51 221 51q41 0 121 -1t92 -1q68 0 221 6v-60l-135 -16q-31 -4 -40 -23.5t-9 -97.5v-645q0 -287 -26 -416t-101 -206q-80 -86 -217 -86q-102 0 -172 51t-70 162q0 59 37 101t84 42q63 0 94 -62q12 -31 0 -38q-16 4 -29 4q-31 0 -48 -23.5 t-17 -52.5q0 -51 37 -85t106 -34q115 0 165 106.5t50 389.5v114q-131 -55 -203 -55q-164 0 -277.5 125t-113.5 322z" />
<glyph unicode="&#xb7;" horiz-adv-x="432" d="M92 469q0 55 37 93t88 38h2q53 0 88 -38t35 -93q0 -59 -36 -96t-89 -37q-51 0 -88 37t-37 96z" />
<glyph unicode="&#xb8;" horiz-adv-x="933" d="M295 -389l20 59q43 -25 93 -24q80 0 79 71q0 39 -36.5 59.5t-96.5 20.5l-10 23l131 194h64q-6 -12 -34 -53t-38 -59q59 -12 102 -48t43 -106q0 -78 -52 -126t-140 -48q-76 0 -125 37z" />
<glyph unicode="&#xb9;" horiz-adv-x="741" d="M172 918l107 8q43 6 47 37q6 111 6 182v174q0 94 -4 176q-4 18 -19 16q-41 -8 -127 -22l11 59q236 37 286 58l8 -4q0 -6 -3 -95.5t-3 -179.5v-182q0 -111 6 -184q0 -29 35 -33l101 -10l2 -52q-57 0 -134 2t-100 2q-37 0 -107.5 -2t-105.5 -2z" />
<glyph unicode="&#xba;" horiz-adv-x="770" d="M63 842q0 133 89.5 220t242.5 87h2q141 0 226.5 -76t85.5 -217q0 -133 -90.5 -219t-243.5 -86q-152 0 -232 81t-80 210zM229 850q0 -109 33 -168q43 -76 125 -76q80 0 119 68q37 63 37 184q0 98 -31 164q-41 72 -125 72h-2q-70 0 -113 -62q-43 -63 -43 -182z" />
<glyph unicode="&#xbb;" horiz-adv-x="1013" d="M100 78q55 182 191 356q-156 201 -191 350l47 33q61 -131 176 -233.5t203 -130.5l-18 -41q-96 -33 -193.5 -130.5t-160.5 -228.5zM496 76q51 178 188 358q-158 205 -188 352l47 31q61 -133 174.5 -234.5t202.5 -127.5l-19 -43q-96 -33 -192.5 -130.5t-159.5 -228.5z" />
<glyph unicode="&#xbc;" horiz-adv-x="1591" d="M133 614l107 9q43 6 47 36q6 117 6 183v174q0 94 -4 176q-4 18 -19 16q-41 -8 -127 -22l11 59q236 37 286 58l9 -5q0 -6 -3.5 -95t-3.5 -179v-182q0 -111 7 -185q0 -29 34 -32l101 -11l2 -51q-57 0 -134 2t-100 2q-37 0 -107.5 -2t-105.5 -2zM324 0l872 1368l68 -45 l-879 -1376zM778 297q242 258 393 442q76 14 146 39l10 -6q-8 -164 -8 -405v-68q94 4 149 33v-45q-47 -39 -149 -54q0 -53 4 -184q-96 0 -158 -20l-8 6q4 53 8 194q-301 0 -372 27zM887 317q72 -20 280 -20q7 158 7 362z" />
<glyph unicode="&#xbd;" horiz-adv-x="1591" d="M100 614l107 9q43 6 47 39q6 117 6 180v174q0 94 -4 176q-4 18 -18 16q-41 -8 -127 -22l10 59q236 37 287 58l8 -5q0 -6 -3 -95t-3 -179v-182q0 -109 6 -183q0 -31 35 -34l100 -11l2 -51q-57 0 -134 2t-100 2q-37 0 -107.5 -2t-105.5 -2zM281 0l876 1368l66 -45 l-881 -1376zM868 55q14 37 35 80q279 160 344 311q25 66 25 129.5t-30 107.5t-95 44q-125 0 -125 -137q0 -25 8 -53q4 -23 -16 -35q-16 -16 -49 -17q-78 0 -78 88q0 76 82 141.5t209 65.5q106 0 178 -45q86 -61 86 -176q0 -98 -80 -172q-76 -70 -311 -225q283 6 325 12 q25 0 37 23q2 4 9 22l16 38q8 19 12 34l47 -17q-47 -170 -51 -233q-92 6 -404 6q-123 0 -170 -4z" />
<glyph unicode="&#xbe;" horiz-adv-x="1591" d="M84 713q0 31 22.5 53t57.5 22q23 0 34 -12t21 -43q35 -129 156 -129q74 0 112.5 43t38.5 117q0 152 -168 151q-51 0 -86 -12l-30 39l6 16q90 10 127 25q115 41 114 139q0 51 -32.5 87t-91.5 36q-131 0 -132 -115q0 -18 5 -47q2 -14 -13.5 -24t-38.5 -10q-76 0 -75 73 q0 63 78.5 120.5t205.5 57.5h2q98 0 176 -43t78 -131q0 -76 -78 -118q-43 -25 -124 -47v-7q141 -10 198 -59q53 -41 53 -119q0 -92 -86 -158q-96 -68 -252 -67q-117 0 -197.5 46t-80.5 116zM375 2l874 1366l68 -47q-371 -545 -881 -1374zM815 297q219 227 395 442 q61 12 146 41l10 -8q-8 -164 -8 -405v-68q94 4 149 33v-45q-47 -39 -149 -54q0 -53 4 -184q-96 0 -158 -20l-8 6q4 53 8 194q-299 0 -375 27zM926 317q66 -20 280 -20q6 158 6 362z" />
<glyph unicode="&#xbf;" horiz-adv-x="845" d="M74 -123q0 121 110 217q129 113 189 182q43 43 51 82q2 10 2 23q0 33 -16 80l49 24q100 -109 102 -204q0 -66 -61 -136q-92 -102 -211 -221q-49 -53 -49 -117q0 -104 51 -155t135 -51q82 0 125 43t43 102q0 35 -21 84q-4 9 -3 18q0 22 22 39q39 33 82 33q41 0 68.5 -29.5 t27.5 -80.5q0 -121 -113.5 -196t-238.5 -75q-158 0 -251 90t-93 248zM307 780q0 57 36 94t91 37h2q47 0 83 -36.5t36 -94.5q0 -55 -37 -92t-88 -37t-87 37t-36 92z" />
<glyph unicode="&#xc0;" horiz-adv-x="1277" d="M-25 -6v57q88 6 126 29.5t73 105.5q129 319 354 981q31 88 35 121q125 12 168 31q279 -932 393 -1202q25 -53 88 -60l80 -6v-57q-141 6 -252 6q-45 0 -90 -1t-99 -3t-87 -2l-2 57q92 6 117.5 17.5t15.5 42.5q-23 90 -115 383q-33 2 -209 2q-170 0 -200 -2 q-92 -289 -101 -324q-6 -25 -6 -43q0 -33 19 -47q29 -23 151 -29v-57q-29 0 -100.5 3t-118.5 3q-27 0 -112 -3t-128 -3zM334 1595q-1 6 -1 12q0 27 17 45q20 22 53 25q7 1 15 1l84 -29q16 -10 246 -209l-29 -43q-170 55 -297 102q-33 12 -59.5 38.5t-28.5 57.5zM397 565 q61 -4 189 -4q133 0 174 4l-52 179l-66 220l-54 177z" />
<glyph unicode="&#xc1;" horiz-adv-x="1277" d="M-25 -6v57q88 6 126 29.5t73 105.5q129 319 354 981q31 88 35 121q125 12 168 31q279 -932 393 -1202q25 -53 88 -60l80 -6v-57q-141 6 -252 6q-45 0 -90 -1t-99 -3t-87 -2l-2 57q92 6 117.5 17.5t15.5 42.5q-23 90 -115 383q-33 2 -209 2q-170 0 -200 -2 q-92 -289 -101 -324q-6 -25 -6 -43q0 -33 19 -47q29 -23 151 -29v-57q-29 0 -100.5 3t-118.5 3q-27 0 -112 -3t-128 -3zM397 565q61 -4 189 -4q133 0 174 4l-52 179l-66 220l-54 177zM537 1440q25 16 85 62l122 95q62 49 75 58q42 30 87 29q8 0 16 -1q60 -7 60 -63 q0 -7 -1 -14q-8 -63 -98 -101l-316 -110z" />
<glyph unicode="&#xc2;" horiz-adv-x="1277" d="M-25 -6v57q88 6 126 29.5t73 105.5q129 319 354 981q31 88 35 121q125 12 168 31q279 -932 393 -1202q25 -53 88 -60l80 -6v-57q-141 6 -252 6q-45 0 -90 -1t-99 -3t-87 -2l-2 57q92 6 117.5 17.5t15.5 42.5q-23 90 -115 383q-33 2 -209 2q-170 0 -200 -2 q-92 -289 -101 -324q-6 -25 -6 -43q0 -33 19 -47q29 -23 151 -29v-57q-29 0 -100.5 3t-118.5 3q-27 0 -112 -3t-128 -3zM371 1430q172 109 260 237l49 8q29 -49 96.5 -119.5t161.5 -125.5l-31 -52q-137 47 -252 121q-137 -82 -254 -121zM397 565q61 -4 189 -4q133 0 174 4 l-52 179l-66 220l-54 177z" />
<glyph unicode="&#xc3;" horiz-adv-x="1277" d="M-25 -6v57q88 6 126 29.5t73 105.5q129 319 354 981q31 88 35 121q125 12 168 31q279 -932 393 -1202q25 -53 88 -60l80 -6v-57q-141 6 -252 6q-45 0 -90 -1t-99 -3t-87 -2l-2 57q92 6 117.5 17.5t15.5 42.5q-23 90 -115 383q-33 2 -209 2q-170 0 -200 -2 q-92 -289 -101 -324q-6 -25 -6 -43q0 -33 19 -47q29 -23 151 -29v-57q-29 0 -100.5 3t-118.5 3q-27 0 -112 -3t-128 -3zM389 1403q4 100 46 171t124 71q55 0 131 -64q63 -55 94 -55q53 0 68 127l61 -13q-4 -106 -40.5 -172.5t-112.5 -66.5q-57 0 -144 74q-61 47 -87.5 47 t-47 -35t-26.5 -90zM397 565q61 -4 189 -4q133 0 174 4l-52 179l-66 220l-54 177z" />
<glyph unicode="&#xc4;" horiz-adv-x="1277" d="M-25 -6v57q88 6 126 29.5t73 105.5q129 319 354 981q31 88 35 121q125 12 168 31q279 -932 393 -1202q25 -53 88 -60l80 -6v-57q-141 6 -252 6q-45 0 -90 -1t-99 -3t-87 -2l-2 57q92 6 117.5 17.5t15.5 42.5q-23 90 -115 383q-33 2 -209 2q-170 0 -200 -2 q-92 -289 -101 -324q-6 -25 -6 -43q0 -33 19 -47q29 -23 151 -29v-57q-29 0 -100.5 3t-118.5 3q-27 0 -112 -3t-128 -3zM360 1511.5q0 49.5 29 80t76 30.5h2q43 0 70.5 -28.5t27.5 -71.5q0 -51 -32.5 -82t-73.5 -31q-39 0 -69 26.5t-30 76zM397 565q61 -4 189 -4 q133 0 174 4l-52 179l-66 220l-54 177zM733 1511.5q0 49.5 29 80t74 30.5h2q45 0 72.5 -28.5t27.5 -71.5q0 -51 -33 -82t-73 -31q-39 0 -69 26.5t-30 76z" />
<glyph unicode="&#xc5;" horiz-adv-x="1277" d="M-25 -6v57q88 6 126 29.5t73 105.5q129 319 354 981q31 88 35 121q125 12 168 31q279 -932 393 -1202q25 -53 88 -60l80 -6v-57q-141 6 -252 6q-45 0 -90 -1t-99 -3t-87 -2l-2 57q92 6 117.5 17.5t15.5 42.5q-23 90 -115 383q-33 2 -209 2q-170 0 -200 -2 q-92 -289 -101 -324q-6 -25 -6 -43q0 -33 19 -47q29 -23 151 -29v-57q-29 0 -100.5 3t-118.5 3q-27 0 -112 -3t-128 -3zM397 565q61 -4 189 -4q133 0 174 4l-52 179l-66 220l-54 177zM455 1550q0 90 57 141.5t147 51.5h3q84 0 135 -47t51 -131q0 -88 -57.5 -137.5 t-143.5 -49.5t-139 45t-53 127zM567 1563q0 -61 24.5 -93t61.5 -32q82 0 82 129q0 45 -19.5 81.5t-62.5 36.5h-2q-84 1 -84 -122z" />
<glyph unicode="&#xc6;" horiz-adv-x="1738" d="M-33 -6v55q88 8 124 37t91 131l512 977q16 35 -18 37l-162 10l-6 57q20 1 50 1q59 0 156 -3q144 -4 191 -4h379q80 0 178 4q70 2 107 11q-9 -80 -10 -180q0 -75 6 -160h-56q-16 100 -45 166q-23 59 -70.5 77.5t-191.5 18.5h-147q-16 0 -23.5 -6t-9.5 -27q-6 -80 -6 -233 v-301h133q139 0 178 28.5t55 136.5h54q-10 -114 -11 -237q0 -96 7 -197h-56q-8 63 -15 93t-29.5 59.5t-65.5 40t-117 10.5l-133 -2v-182q0 -213 8 -297q2 -23 12.5 -32t51 -14.5t135.5 -5.5q150 0 211 13.5t96 54.5q57 72 96 229l51 -6q-4 -102 -43 -364q-53 6 -166 6 q-156 4 -288 4h-246q-53 0 -159.5 -3t-141.5 -3l4 55l121 14q29 4 39 20.5t12 57.5q6 111 6 269v184q-23 0 -158 -2t-196 -4q-152 -299 -201 -430q-12 -29 -12 -48q0 -14 7 -22q15 -18 81 -27l82 -12l-2 -55q-39 0 -113 3t-121 3q-37 0 -107.5 -3t-107.5 -3zM500 664 q45 -2 315 -2v567h-27q-122 -223 -288 -565z" />
<glyph unicode="&#xc7;" horiz-adv-x="1253" d="M90 623q0 344 205 538q170 164 438 164q227 0 342 -111l39 101l49 -15q-22 -154 -22 -304q0 -60 4 -119l-55 -9q-12 172 -95.5 283t-246.5 111q-184 0 -293 -140q-133 -166 -133 -471q0 -262 104 -418q111 -174 324 -174q143 0 239 72t156 229l53 -34 q-106 -330 -446 -357l-43 -67q141 -35 141 -152q0 -78 -51 -124t-137 -46q-78 0 -121 37l18 57q43 -25 90 -24q80 0 80 69q0 39 -37 59.5t-94 20.5l-10 23q37 51 98 145h-20q-299 6 -445 207q-131 170 -131 449z" />
<glyph unicode="&#xc8;" horiz-adv-x="1146" d="M31 -6l2 57l127 12q31 4 42 19.5t13 58.5q8 104 8 297v432q0 193 -4 312q-2 27 -16.5 38t-50.5 15l-105 8v55q12 0 57.5 -1t75.5 -1q106 -4 166 -4h346q213 0 289 15q-9 -82 -9 -184q0 -76 5 -162l-55 -3q-16 102 -45 175q-25 57 -71 75.5t-190 18.5h-151q-31 0 -33 -33 q-8 -123 -8 -266v-226q23 -2 123 -2q135 0 176 33t55 141h51q-10 -119 -10 -243q0 -97 6 -199h-53q-12 123 -51 162t-176 39q-100 0 -121 -4v-197q0 -221 8 -317q2 -33 35 -42.5t166 -9.5q147 0 204.5 13.5t94.5 56.5q59 66 106 234l49 -9q0 -31 -20 -173t-31 -193 q-131 8 -434 8h-256q-23 0 -80 -1t-88 -1q-114 -4 -147 -4zM268 1599q-1 6 0 12q0 27 17 45q20 22 53 25q7 1 15 1l83 -29q16 -10 246 -209l-29 -43q-170 55 -297 102q-33 12 -59.5 38.5t-28.5 57.5z" />
<glyph unicode="&#xc9;" horiz-adv-x="1146" d="M31 -6l2 57l127 12q31 4 42 19.5t13 58.5q8 104 8 297v432q0 193 -4 312q-2 27 -16.5 38t-50.5 15l-105 8v55q12 0 57.5 -1t75.5 -1q106 -4 166 -4h346q213 0 289 15q-9 -82 -9 -184q0 -76 5 -162l-55 -3q-16 102 -45 175q-25 57 -71 75.5t-190 18.5h-151q-31 0 -33 -33 q-8 -123 -8 -266v-226q23 -2 123 -2q135 0 176 33t55 141h51q-10 -119 -10 -243q0 -97 6 -199h-53q-12 123 -51 162t-176 39q-100 0 -121 -4v-197q0 -221 8 -317q2 -33 35 -42.5t166 -9.5q147 0 204.5 13.5t94.5 56.5q59 66 106 234l49 -9q0 -31 -20 -173t-31 -193 q-131 8 -434 8h-256q-23 0 -80 -1t-88 -1q-114 -4 -147 -4zM469 1444q25 16 85 62l123 96q62 49 75 57q42 30 86 29h16q60 -7 60 -64q0 -7 -1 -14q-8 -63 -98 -101l-315 -110z" />
<glyph unicode="&#xca;" horiz-adv-x="1146" d="M31 -6l2 57l127 12q31 4 42 19.5t13 58.5q8 104 8 297v432q0 193 -4 312q-2 27 -16.5 38t-50.5 15l-105 8v55q12 0 57.5 -1t75.5 -1q106 -4 166 -4h346q213 0 289 15q-9 -82 -9 -184q0 -76 5 -162l-55 -3q-16 102 -45 175q-25 57 -71 75.5t-190 18.5h-151q-31 0 -33 -33 q-8 -123 -8 -266v-226q23 -2 123 -2q135 0 176 33t55 141h51q-10 -119 -10 -243q0 -97 6 -199h-53q-12 123 -51 162t-176 39q-100 0 -121 -4v-197q0 -221 8 -317q2 -33 35 -42.5t166 -9.5q147 0 204.5 13.5t94.5 56.5q59 66 106 234l49 -9q0 -31 -20 -173t-31 -193 q-131 8 -434 8h-256q-23 0 -80 -1t-88 -1q-114 -4 -147 -4zM291 1448q172 109 260 238l49 8q29 -49 97.5 -120t160.5 -126l-31 -51q-137 47 -252 121q-137 -82 -253 -121z" />
<glyph unicode="&#xcb;" horiz-adv-x="1146" d="M31 -6l2 57l127 12q31 4 42 19.5t13 58.5q8 104 8 297v432q0 193 -4 312q-2 27 -16.5 38t-50.5 15l-105 8v55q12 0 57.5 -1t75.5 -1q106 -4 166 -4h346q213 0 289 15q-9 -82 -9 -184q0 -76 5 -162l-55 -3q-16 102 -45 175q-25 57 -71 75.5t-190 18.5h-151q-31 0 -33 -33 q-8 -123 -8 -266v-226q23 -2 123 -2q135 0 176 33t55 141h51q-10 -119 -10 -243q0 -97 6 -199h-53q-12 123 -51 162t-176 39q-100 0 -121 -4v-197q0 -221 8 -317q2 -33 35 -42.5t166 -9.5q147 0 204.5 13.5t94.5 56.5q59 66 106 234l49 -9q0 -31 -20 -173t-31 -193 q-131 8 -434 8h-256q-23 0 -80 -1t-88 -1q-114 -4 -147 -4zM285 1519.5q0 49.5 28.5 80t75.5 30.5h2q43 0 70.5 -28.5t27.5 -71.5q0 -51 -32.5 -82t-73.5 -31q-39 0 -68.5 26.5t-29.5 76zM657 1519.5q0 49.5 29 80t74 30.5h2q45 0 72.5 -28.5t27.5 -71.5q0 -51 -32.5 -82 t-73.5 -31q-39 0 -69 26.5t-30 76z" />
<glyph unicode="&#xcc;" horiz-adv-x="647" d="M6 1593q-1 6 -1 12q0 27 18 45q20 22 53 25q7 1 15 1l83 -29q16 -10 246 -209l-29 -43q-170 55 -297 102q-33 12 -59.5 38.5t-28.5 57.5zM47 -6l2 57q98 2 130 16.5t36 53.5q8 90 8 278v531q0 180 -2 233q-2 45 -33.5 58.5t-140.5 19.5l2 57q172 -6 268 -6q49 0 146.5 3 t128.5 3v-57q-96 -2 -127 -15.5t-35 -49.5q-6 -117 -6 -234v-539q0 -90 6 -280q2 -41 34 -54.5t130 -17.5v-57q-227 6 -281 6q-63 0 -266 -6z" />
<glyph unicode="&#xcd;" horiz-adv-x="647" d="M47 -6l2 57q98 2 130 16.5t36 53.5q8 90 8 278v531q0 180 -2 233q-2 45 -33.5 58.5t-140.5 19.5l2 57q172 -6 268 -6q49 0 146.5 3t128.5 3v-57q-96 -2 -127 -15.5t-35 -49.5q-6 -117 -6 -234v-539q0 -90 6 -280q2 -41 34 -54.5t130 -17.5v-57q-227 6 -281 6 q-63 0 -266 -6zM209 1436q25 16 85 62l123 95q62 49 75 58q42 30 86 29q8 0 16 -1q60 -7 60 -63q0 -7 -1 -14q-8 -63 -98 -101l-315 -110z" />
<glyph unicode="&#xce;" horiz-adv-x="647" d="M39 1440q172 109 260 237l49 9q29 -49 96.5 -120t161.5 -126l-31 -51q-137 47 -251 120q-137 -82 -254 -120zM47 -6l2 57q98 2 130 16.5t36 53.5q8 90 8 278v531q0 180 -2 233q-2 45 -33.5 58.5t-140.5 19.5l2 57q172 -6 268 -6q49 0 146.5 3t128.5 3v-57 q-96 -2 -127 -15.5t-35 -49.5q-6 -117 -6 -234v-539q0 -90 6 -280q2 -41 34 -54.5t130 -17.5v-57q-227 6 -281 6q-63 0 -266 -6z" />
<glyph unicode="&#xcf;" horiz-adv-x="647" d="M33 1511.5q0 49.5 28.5 80t75.5 30.5h2q43 0 71 -28.5t28 -71.5q0 -51 -33 -82t-74 -31q-39 0 -68.5 26.5t-29.5 76zM47 -6l2 57q98 2 130 16.5t36 53.5q8 90 8 278v531q0 180 -2 233q-2 45 -33.5 58.5t-140.5 19.5l2 57q172 -6 268 -6q49 0 146.5 3t128.5 3v-57 q-96 -2 -127 -15.5t-35 -49.5q-6 -117 -6 -234v-539q0 -90 6 -280q2 -41 34 -54.5t130 -17.5v-57q-227 6 -281 6q-63 0 -266 -6zM406 1511.5q0 49.5 28.5 80t73.5 30.5h2q45 0 72.5 -28.5t27.5 -71.5q0 -51 -32.5 -82t-73.5 -31q-39 0 -68.5 26.5t-29.5 76z" />
<glyph unicode="&#xd0;" horiz-adv-x="1419" d="M53 635l10 84q123 -6 185 -6v176q0 207 -4 293q0 47 -47 49l-125 14l4 55q18 0 112.5 -4t141.5 -4q27 0 140.5 4t180.5 4q295 0 426 -81q252 -154 252 -531q0 -465 -348 -629q-143 -66 -367 -65q-25 0 -72.5 1t-72.5 1q-98 4 -152 4q-45 0 -143 -3t-113 -3v57l95 8 q78 6 80 56q12 258 12 354v172q-129 0 -195 -6zM449 711q166 0 337 8l-12 -86q-10 0 -127 3t-198 3v-178q0 -289 6 -361q4 -25 29.5 -35t105.5 -10q279 0 393 156q117 160 117 467q0 289 -119 426q-115 131 -375 131q-61 0 -96 -5t-43 -13.5t-10 -20.5q-8 -70 -8 -317v-168z " />
<glyph unicode="&#xd1;" horiz-adv-x="1372" d="M27 -6l2 57q39 0 108 12q35 6 49.5 27t18.5 66q10 68 20.5 367.5t10.5 631.5q-10 33 -23 47q-18 25 -82 31l-94 8v57q14 0 91 -3t116 -3q90 0 164 6q20 -35 112 -170q121 -186 588 -849q1 120 1 224q0 521 -17 640q-6 51 -27 69.5t-78 22.5l-106 6l10 57q45 0 131 -3 t121 -3q43 0 119.5 3t97.5 3l2 -57q-70 -6 -107 -14q-45 -10 -55 -74q-23 -166 -22 -639v-520q-80 -10 -119 -21l-758 1129q0 -858 16 -959q10 -66 68 -75l139 -17l-4 -57q-29 0 -120 3t-152 3q-53 0 -127 -3t-94 -3zM453 1409q4 100 46 171t124 71q55 0 131 -64 q63 -55 94 -55q53 0 67 127l62 -12q-4 -106 -41 -173t-113 -67q-57 0 -143 74q-61 47 -88 47t-47.5 -35t-26.5 -90z" />
<glyph unicode="&#xd2;" horiz-adv-x="1384" d="M90 635q0 297 162 493.5t455 196.5h2q274 0 429.5 -187.5t155.5 -469.5q0 -342 -163.5 -521.5t-440.5 -179.5q-274 0 -437 175.5t-163 492.5zM324 659q0 -305 106 -471q98 -158 279 -157q172 0 264 151q88 156 88 459q0 295 -94 463q-94 162 -275 162h-2 q-174 0 -272 -158q-94 -154 -94 -449zM383 1608q-1 6 -1 11q0 27 17 45q20 22 54 26q7 1 14 1l84 -30q16 -10 246 -209l-29 -43q-170 55 -297 102q-33 12 -59.5 39t-28.5 58z" />
<glyph unicode="&#xd3;" horiz-adv-x="1384" d="M90 635q0 297 162 493.5t455 196.5h2q274 0 429.5 -187.5t155.5 -469.5q0 -342 -163.5 -521.5t-440.5 -179.5q-274 0 -437 175.5t-163 492.5zM324 659q0 -305 106 -471q98 -158 279 -157q172 0 264 151q88 156 88 459q0 295 -94 463q-94 162 -275 162h-2 q-174 0 -272 -158q-94 -154 -94 -449zM553 1456q25 16 85 63l123 95q62 49 75 57q42 30 86 30q8 0 16 -1q60 -7 60 -64q0 -7 -1 -14q-8 -63 -98 -100l-315 -111z" />
<glyph unicode="&#xd4;" horiz-adv-x="1384" d="M90 635q0 297 162 493.5t455 196.5h2q274 0 429.5 -187.5t155.5 -469.5q0 -342 -163.5 -521.5t-440.5 -179.5q-274 0 -437 175.5t-163 492.5zM324 659q0 -305 106 -471q98 -158 279 -157q172 0 264 151q88 156 88 459q0 295 -94 463q-94 162 -275 162h-2 q-174 0 -272 -158q-94 -154 -94 -449zM410 1450q172 109 260 238l49 8q29 -49 97.5 -120t160.5 -126l-31 -51q-137 47 -252 121q-137 -82 -254 -121z" />
<glyph unicode="&#xd5;" horiz-adv-x="1384" d="M90 635q0 297 162 493.5t455 196.5h2q274 0 429.5 -187.5t155.5 -469.5q0 -342 -163.5 -521.5t-440.5 -179.5q-274 0 -437 175.5t-163 492.5zM324 659q0 -305 106 -471q98 -158 279 -157q172 0 264 151q88 156 88 459q0 295 -94 463q-94 162 -275 162h-2 q-174 0 -272 -158q-94 -154 -94 -449zM424 1419q4 100 46 171t124 71q55 0 131 -64q63 -55 94 -55q53 0 68 127l61 -12q-4 -106 -41 -173t-112 -67q-57 0 -144 74q-61 47 -87.5 47t-47 -35t-27.5 -90z" />
<glyph unicode="&#xd6;" horiz-adv-x="1384" d="M90 635q0 297 162 493.5t455 196.5h2q274 0 429.5 -187.5t155.5 -469.5q0 -342 -163.5 -521.5t-440.5 -179.5q-274 0 -437 175.5t-163 492.5zM324 659q0 -305 106 -471q98 -158 279 -157q172 0 264 151q88 156 88 459q0 295 -94 463q-94 162 -275 162h-2 q-174 0 -272 -158q-94 -154 -94 -449zM399 1526q0 49 29 79.5t76 30.5h2q43 0 70.5 -28.5t27.5 -71.5q0 -51 -32.5 -82t-73.5 -31q-39 0 -69 27t-30 76zM772 1526q0 49 28.5 79.5t74.5 30.5h2q45 0 72.5 -28.5t27.5 -71.5q0 -51 -33 -82t-74 -31q-39 0 -68.5 27t-29.5 76z " />
<glyph unicode="&#xd7;" horiz-adv-x="1060" d="M119 127l340 344l-340 342l76 80l335 -346l336 350l76 -82l-340 -344l340 -344l-76 -80l-336 350l-335 -350z" />
<glyph unicode="&#xd8;" horiz-adv-x="1388" d="M90 639q0 295 166 490.5t457 195.5q190 0 325 -94q51 72 84 123l70 -41q-74 -104 -92 -127q94 -90 145 -225.5t51 -286.5q0 -338 -171 -522.5t-441 -184.5q-193 0 -328 94l-98 -143l-70 39l105 147q-203 181 -203 535zM324 651q0 -254 77 -397l560 868q-84 145 -261 146 h-2q-170 0 -268 -150q-106 -166 -106 -467zM438 176q96 -145 248 -145h2q188 0 279 149q96 158 96 492q0 238 -68 372z" />
<glyph unicode="&#xd9;" horiz-adv-x="1359" d="M43 1243v57q39 0 130 -4t134 -4q33 0 126 4t134 4l4 -57l-112 -12q-39 -2 -45 -51q-10 -115 -12 -370v-46q0 -225 10 -379q6 -96 24.5 -146.5t57 -91.5t108.5 -65.5t141 -24.5h2q156 0 242 76t100 285q12 171 12.5 352.5t-12.5 374.5q-2 37 -15 56.5t-28.5 24.5t-46.5 7 l-102 10l-6 57q33 0 108.5 -4t110.5 -4q41 0 121 4t104 4l10 -57l-77 -8q-43 -4 -57.5 -20.5t-16.5 -55.5q-4 -102 -8 -286.5t-10.5 -315.5t-14.5 -207q-29 -203 -158 -295q-117 -88 -325 -88q-262 0 -381 133q-47 55 -67.5 130t-22.5 208q0 72 -1 376t-3 353q-2 61 -43 64z M410 1597q-1 6 -1 12q0 27 17 45q20 22 53 25q7 1 15 1l84 -29q16 -10 245 -209l-28 -43q-170 55 -297 102q-33 12 -59.5 38.5t-28.5 57.5z" />
<glyph unicode="&#xda;" horiz-adv-x="1359" d="M43 1243v57q39 0 130 -4t134 -4q33 0 126 4t134 4l4 -57l-112 -12q-39 -2 -45 -51q-10 -115 -12 -370v-46q0 -225 10 -379q6 -96 24.5 -146.5t57 -91.5t108.5 -65.5t141 -24.5h2q156 0 242 76t100 285q12 171 12.5 352.5t-12.5 374.5q-2 37 -15 56.5t-28.5 24.5t-46.5 7 l-102 10l-6 57q33 0 108.5 -4t110.5 -4q41 0 121 4t104 4l10 -57l-77 -8q-43 -4 -57.5 -20.5t-16.5 -55.5q-4 -102 -8 -286.5t-10.5 -315.5t-14.5 -207q-29 -203 -158 -295q-117 -88 -325 -88q-262 0 -381 133q-47 55 -67.5 130t-22.5 208q0 72 -1 376t-3 353q-2 61 -43 64z M580 1444q25 16 85 62l122 96q62 49 75 57q42 30 87 29h16q60 -7 60 -64q0 -7 -1 -14q-8 -63 -98 -101l-316 -110z" />
<glyph unicode="&#xdb;" horiz-adv-x="1359" d="M43 1243v57q39 0 130 -4t134 -4q33 0 126 4t134 4l4 -57l-112 -12q-39 -2 -45 -51q-10 -115 -12 -370v-46q0 -225 10 -379q6 -96 24.5 -146.5t57 -91.5t108.5 -65.5t141 -24.5h2q156 0 242 76t100 285q12 171 12.5 352.5t-12.5 374.5q-2 37 -15 56.5t-28.5 24.5t-46.5 7 l-102 10l-6 57q33 0 108.5 -4t110.5 -4q41 0 121 4t104 4l10 -57l-77 -8q-43 -4 -57.5 -20.5t-16.5 -55.5q-4 -102 -8 -286.5t-10.5 -315.5t-14.5 -207q-29 -203 -158 -295q-117 -88 -325 -88q-262 0 -381 133q-47 55 -67.5 130t-22.5 208q0 72 -1 376t-3 353q-2 61 -43 64z M432 1446q172 109 260 237l49 9q29 -49 96.5 -120t161.5 -126l-30 -51q-137 47 -252 121q-137 -82 -254 -121z" />
<glyph unicode="&#xdc;" horiz-adv-x="1359" d="M43 1243v57q39 0 130 -4t134 -4q33 0 126 4t134 4l4 -57l-112 -12q-39 -2 -45 -51q-10 -115 -12 -370v-46q0 -225 10 -379q6 -96 24.5 -146.5t57 -91.5t108.5 -65.5t141 -24.5h2q156 0 242 76t100 285q12 171 12.5 352.5t-12.5 374.5q-2 37 -15 56.5t-28.5 24.5t-46.5 7 l-102 10l-6 57q33 0 108.5 -4t110.5 -4q41 0 121 4t104 4l10 -57l-77 -8q-43 -4 -57.5 -20.5t-16.5 -55.5q-4 -102 -8 -286.5t-10.5 -315.5t-14.5 -207q-29 -203 -158 -295q-117 -88 -325 -88q-262 0 -381 133q-47 55 -67.5 130t-22.5 208q0 72 -1 376t-3 353q-2 61 -43 64z M430 1515.5q0 49.5 28.5 80t76.5 30.5h2q43 0 70.5 -28.5t27.5 -71.5q0 -51 -33 -82t-74 -31q-39 0 -68.5 26.5t-29.5 76zM803 1515.5q0 49.5 28.5 80t73.5 30.5h2q45 0 73 -28.5t28 -71.5q0 -51 -33 -82t-74 -31q-39 0 -68.5 26.5t-29.5 76z" />
<glyph unicode="&#xdd;" horiz-adv-x="1138" d="M-37 1298q12 0 100.5 -3t141.5 -3q61 0 151 3t119 3l8 -57l-92 -8q-41 -2 -18 -43q37 -80 278 -520q182 324 258 499q9 22 10 36q0 23 -26 24q-53 10 -115 12l6 57q20 0 97 -3t116 -3q29 0 96.5 3t104.5 3l4 -57q-88 -4 -125 -22.5t-80 -77.5q-121 -182 -286 -498 q-25 -47 -25 -100q-3 -96 -3 -180q0 -146 9 -252q4 -41 51 -43q74 -10 144 -17l8 -57q-35 0 -153.5 3t-182.5 3q-53 0 -148.5 -3t-144.5 -3l-8 57q68 6 141 17q72 6 74 69q10 119 10 389q0 51 -26 103q-29 61 -130.5 237l-164.5 277q-39 61 -74 77.5t-123 20.5zM471 1444 q25 16 85 62l123 96q62 49 75 57q42 30 86 29h16q60 -7 60 -64q0 -7 -1 -14q-8 -63 -98 -101l-315 -110z" />
<glyph unicode="&#xde;" horiz-adv-x="1155" d="M47 -6l4 57q106 8 134 20.5t30 57.5q10 178 10 295v485q0 217 -2 265q0 41 -30.5 53t-135.5 16l9 57q154 -6 249 -6q51 0 141.5 3t127.5 3l2 -57q-96 -2 -123 -14t-31 -45q-4 -70 -4 -142q150 10 219 11q227 0 326 -99q100 -96 100 -272q0 -178 -117 -295 q-119 -117 -354 -117q-88 0 -178 23q0 -109 4 -170q2 -41 29.5 -52.5t150.5 -19.5l-2 -57q-43 0 -143.5 3t-151.5 3q-31 0 -264 -6zM424 805v-430q59 -37 162 -37q139 0 202 90q63 86 64 250q0 162 -68 235q-70 76 -235 76q-51 0 -78 -5t-34 -11t-9 -19q-4 -57 -4 -149z" />
<glyph unicode="&#xdf;" horiz-adv-x="1179" d="M51 -6v57q82 2 106.5 14.5t26.5 43.5q8 90 9 350v342l-142 12l4 61l138 1v24q0 219 137 358q129 133 332 134q176 0 263 -84t87 -215q0 -59 -19 -91q-240 -66 -239 -221q0 -66 63 -125q14 -12 141 -112q74 -53 110 -111.5t36 -146.5q0 -141 -100.5 -226.5t-243.5 -85.5 q-102 0 -213 37v24q0 66 -8 187l51 10q20 -100 65 -147t129 -47q63 0 110.5 44t47.5 128q0 88 -80 156q-119 98 -127 104q-66 53 -97.5 105.5t-31.5 123.5q0 92 64.5 171t181.5 128q14 39 14 93q0 96 -54 166.5t-165 70.5q-145 0 -208.5 -128t-63.5 -394v-422q0 -223 4 -270 q2 -35 22.5 -46.5t92.5 -15.5l-5 -57q-45 0 -121.5 3t-115.5 3q-43 0 -114 -3t-87 -3z" />
<glyph unicode="&#xe0;" horiz-adv-x="980" d="M80 225q0 139 115 185q43 18 148.5 57t176 68.5t105.5 56.5v80q0 74 -39 123t-121 49q-88 0 -131 -40t-43 -108q0 -29 8 -61q4 -25 -18 -43q-31 -20 -70 -20.5t-64.5 22t-25.5 70.5q0 86 107.5 162.5t269.5 76.5q201 0 276 -115q29 -47 29 -108v-518q0 -92 49 -92 q53 0 84 125l51 -21q-39 -203 -205 -203q-139 0 -157 152q-141 -152 -295 -152q-115 0 -182.5 70.5t-67.5 183.5zM248 1331q2 37 21.5 58.5t45.5 21.5q63 0 101 -72l155 -315l-43 -31l-235 238q-45 45 -45 100zM281 254q0 -74 37.5 -124t105.5 -50q127 0 188 135 q12 35 13 84v227q-25 -14 -113 -54t-127 -62q-53 -29 -78.5 -61t-25.5 -93v-2z" />
<glyph unicode="&#xe1;" horiz-adv-x="980" d="M80 225q0 139 115 185q43 18 148.5 57t176 68.5t105.5 56.5v80q0 74 -39 123t-121 49q-88 0 -131 -40t-43 -108q0 -29 8 -61q4 -25 -18 -43q-31 -20 -70 -20.5t-64.5 22t-25.5 70.5q0 86 107.5 162.5t269.5 76.5q201 0 276 -115q29 -47 29 -108v-518q0 -92 49 -92 q53 0 84 125l51 -21q-39 -203 -205 -203q-139 0 -157 152q-141 -152 -295 -152q-115 0 -182.5 70.5t-67.5 183.5zM281 254q0 -74 37.5 -124t105.5 -50q127 0 188 135q12 35 13 84v227q-25 -14 -113 -54t-127 -62q-53 -29 -78.5 -61t-25.5 -93v-2zM393 1026q23 35 102 166 l89 147q47 72 110 72q27 0 43.5 -19.5t16.5 -50.5q0 -53 -64 -116l-254 -232z" />
<glyph unicode="&#xe2;" horiz-adv-x="980" d="M80 225q0 139 115 185q43 18 148.5 57t176 68.5t105.5 56.5v80q0 74 -39 123t-121 49q-88 0 -131 -40t-43 -108q0 -29 8 -61q4 -25 -18 -43q-31 -20 -70 -20.5t-64.5 22t-25.5 70.5q0 86 107.5 162.5t269.5 76.5q201 0 276 -115q29 -47 29 -108v-518q0 -92 49 -92 q53 0 84 125l51 -21q-39 -203 -205 -203q-139 0 -157 152q-141 -152 -295 -152q-115 0 -182.5 70.5t-67.5 183.5zM246 1030q137 178 223 369l49 12q61 -168 221 -381l-43 -39q-127 113 -204 217q-66 -88 -205 -217zM281 254q0 -74 37.5 -124t105.5 -50q127 0 188 135 q12 35 13 84v227q-25 -14 -113 -54t-127 -62q-53 -29 -78.5 -61t-25.5 -93v-2z" />
<glyph unicode="&#xe3;" horiz-adv-x="980" d="M80 225q0 139 115 185q43 18 148.5 57t176 68.5t105.5 56.5v80q0 74 -39 123t-121 49q-88 0 -131 -40t-43 -108q0 -29 8 -61q4 -25 -18 -43q-31 -20 -70 -20.5t-64.5 22t-25.5 70.5q0 86 107.5 162.5t269.5 76.5q201 0 276 -115q29 -47 29 -108v-518q0 -92 49 -92 q53 0 84 125l51 -21q-39 -203 -205 -203q-139 0 -157 152q-141 -152 -295 -152q-115 0 -182.5 70.5t-67.5 183.5zM240 1051q4 102 41.5 171.5t117.5 69.5q53 0 127 -65q66 -59 90 -60q57 0 66 129l59 -10q-4 -242 -147 -242q-55 0 -137 74q-55 49 -84 49q-61 0 -72 -125z M281 254q0 -74 37.5 -124t105.5 -50q127 0 188 135q12 35 13 84v227q-25 -14 -113 -54t-127 -62q-53 -29 -78.5 -61t-25.5 -93v-2z" />
<glyph unicode="&#xe4;" horiz-adv-x="980" d="M80 225q0 139 115 185q43 18 148.5 57t176 68.5t105.5 56.5v80q0 74 -39 123t-121 49q-88 0 -131 -40t-43 -108q0 -29 8 -61q4 -25 -18 -43q-31 -20 -70 -20.5t-64.5 22t-25.5 70.5q0 86 107.5 162.5t269.5 76.5q201 0 276 -115q29 -47 29 -108v-518q0 -92 49 -92 q53 0 84 125l51 -21q-39 -203 -205 -203q-139 0 -157 152q-141 -152 -295 -152q-115 0 -182.5 70.5t-67.5 183.5zM219 1188q0 47 30 77.5t75 30.5h2q43 0 68.5 -28.5t25.5 -73.5q0 -49 -32 -79t-73 -30q-39 0 -67.5 27t-28.5 76zM281 254q0 -74 37.5 -124t105.5 -50 q127 0 188 135q12 35 13 84v227q-25 -14 -113 -54t-127 -62q-53 -29 -78.5 -61t-25.5 -93v-2zM567 1188q0 47 30 77.5t75 30.5h2q43 0 68.5 -28.5t25.5 -73.5q0 -49 -30.5 -79t-73.5 -30q-39 0 -68 27t-29 76z" />
<glyph unicode="&#xe5;" horiz-adv-x="980" d="M80 225q0 139 115 185q43 18 148.5 57t176 68.5t105.5 56.5v80q0 74 -39 123t-121 49q-88 0 -131 -40t-43 -108q0 -29 8 -61q4 -25 -18 -43q-31 -20 -70 -20.5t-64.5 22t-25.5 70.5q0 86 107.5 162.5t269.5 76.5q201 0 276 -115q29 -47 29 -108v-518q0 -92 49 -92 q53 0 84 125l51 -21q-39 -203 -205 -203q-139 0 -157 152q-141 -152 -295 -152q-115 0 -182.5 70.5t-67.5 183.5zM281 254q0 -74 37.5 -124t105.5 -50q127 0 188 135q12 35 13 84v227q-25 -14 -113 -54t-127 -62q-53 -29 -78.5 -61t-25.5 -93v-2zM297 1194q0 90 56.5 139 t144.5 49h2q84 0 135 -45t51 -131t-57.5 -136t-141.5 -50t-137 46t-53 128zM408 1206q0 -63 24.5 -97t61.5 -34q84 0 84 131q0 49 -19.5 87t-64.5 38h-2q-45 0 -64.5 -39t-19.5 -86z" />
<glyph unicode="&#xe6;" horiz-adv-x="1458" d="M80 219q0 82 29.5 125t91.5 70l130 48q97 36 168.5 66.5t125.5 63.5v80q0 74 -41 123t-121 49q-172 0 -172 -148q0 -6 6 -61q6 -27 -16 -45q-29 -18 -70 -18.5t-64.5 24.5t-23.5 68q0 90 107.5 164.5t263.5 74.5q102 0 169.5 -37t92.5 -100q104 137 286 137 q86 0 152 -26.5t101.5 -64.5t58 -89t29 -92t6.5 -80q0 -63 -43 -84q-59 -20 -232 -25q-100 -2 -176.5 -2t-128.5 2q-1 -14 -1 -27q0 -147 62 -241q68 -109 209 -108q98 0 156.5 48t99.5 146l51 -29q-90 -260 -364 -260q-268 0 -354 197q-55 -59 -91 -91t-108 -69t-143 -37 q-115 2 -180.5 73t-65.5 175zM281 250v-2q0 -72 37.5 -121t101.5 -49q135 0 190 139q12 29 13 84l2 225q-27 -14 -115 -54t-127 -62q-53 -29 -77.5 -61.5t-24.5 -98.5zM813 508q55 -4 162 -4q133 0 194 12q37 12 37 66q0 119 -45 190.5t-137 71.5h-2q-96 0 -150.5 -103.5 t-58.5 -232.5z" />
<glyph unicode="&#xe7;" horiz-adv-x="923" d="M76 422q0 207 125 344t340 137q139 0 228 -61.5t89 -161.5q0 -51 -30.5 -79t-75.5 -28q-31 0 -54 17q-20 12 -14 39q0 6 4 29.5t4 35.5q0 150 -160 150q-121 0 -186 -113t-65 -285q0 -164 57 -260q74 -121 217 -120q102 0 161.5 50t104.5 160l51 -28q-76 -248 -319 -273 l-45 -71q145 -29 145 -154q0 -78 -53 -126t-141 -48q-70 0 -125 37l22 59q43 -25 93 -24q80 0 79 71q0 39 -36.5 59.5t-96.5 20.5l-10 23l100 151q-207 4 -313 129q-96 113 -96 320z" />
<glyph unicode="&#xe8;" horiz-adv-x="925" d="M78 420q0 203 113.5 343t316.5 140q84 0 149.5 -25.5t102.5 -64.5t60.5 -89t30.5 -92t7 -83q0 -66 -43 -82q-57 -23 -268 -27h-268q0 -13 -1 -26q0 -146 64 -240q68 -109 205 -108q94 0 154.5 47t101.5 151l53 -28q-88 -264 -367 -265q-219 0 -323 140q-88 110 -88 309z M244 1331q2 37 21.5 58.5t45.5 21.5q63 0 101 -72l155 -315l-43 -31l-235 238q-45 45 -45 100zM283 504h170q117 0 182 12q41 10 41 72q0 98 -44 176t-136 78h-2q-98 0 -151.5 -99.5t-59.5 -238.5z" />
<glyph unicode="&#xe9;" horiz-adv-x="925" d="M78 420q0 203 113.5 343t316.5 140q84 0 149.5 -25.5t102.5 -64.5t60.5 -89t30.5 -92t7 -83q0 -66 -43 -82q-57 -23 -268 -27h-268q0 -13 -1 -26q0 -146 64 -240q68 -109 205 -108q94 0 154.5 47t101.5 151l53 -28q-88 -264 -367 -265q-219 0 -323 140q-88 110 -88 309z M283 504h170q117 0 182 12q41 10 41 72q0 98 -44 176t-136 78h-2q-98 0 -151.5 -99.5t-59.5 -238.5zM393 1026q23 35 102 166l89 147q47 72 110 72q27 0 43.5 -19.5t16.5 -50.5q0 -53 -64 -116l-254 -232z" />
<glyph unicode="&#xea;" horiz-adv-x="925" d="M78 420q0 203 113.5 343t316.5 140q84 0 149.5 -25.5t102.5 -64.5t60.5 -89t30.5 -92t7 -83q0 -66 -43 -82q-57 -23 -268 -27h-268q0 -13 -1 -26q0 -146 64 -240q68 -109 205 -108q94 0 154.5 47t101.5 151l53 -28q-88 -264 -367 -265q-219 0 -323 140q-88 110 -88 309z M246 1030q137 178 223 369l49 12q61 -168 221 -381l-43 -39q-127 113 -204 217q-66 -88 -205 -217zM283 504h170q117 0 182 12q41 10 41 72q0 98 -44 176t-136 78h-2q-98 0 -151.5 -99.5t-59.5 -238.5z" />
<glyph unicode="&#xeb;" horiz-adv-x="925" d="M78 420q0 203 113.5 343t316.5 140q84 0 149.5 -25.5t102.5 -64.5t60.5 -89t30.5 -92t7 -83q0 -66 -43 -82q-57 -23 -268 -27h-268q0 -13 -1 -26q0 -146 64 -240q68 -109 205 -108q94 0 154.5 47t101.5 151l53 -28q-88 -264 -367 -265q-219 0 -323 140q-88 110 -88 309z M211 1188q0 47 29.5 77.5t74.5 30.5h2q43 0 69 -28.5t26 -73.5q0 -49 -32 -79t-73 -30q-39 0 -67.5 27t-28.5 76zM283 504h170q117 0 182 12q41 10 41 72q0 98 -44 176t-136 78h-2q-98 0 -151.5 -99.5t-59.5 -238.5zM559 1188q0 47 29.5 77.5t75.5 30.5h2q43 0 68.5 -28.5 t25.5 -73.5q0 -49 -31 -79t-74 -30q-39 0 -67.5 27t-28.5 76z" />
<glyph unicode="&#xec;" horiz-adv-x="544" d="M25 1331q2 37 21.5 58.5t45.5 21.5q63 0 101 -72l155 -315l-43 -31l-235 238q-45 45 -45 100zM47 -6l2 57q84 2 108.5 14.5t26.5 40.5q8 156 9 259v204q0 168 -7 213q0 20 -25 27q-15 4 -51 4q-24 0 -57 -2l4 55q231 14 324 35q-6 -147 -6 -309v-252q0 -168 6 -231 q2 -33 23.5 -43.5t101.5 -14.5l-4 -57q-27 0 -103.5 3t-130.5 3q-55 0 -124.5 -3t-96.5 -3z" />
<glyph unicode="&#xed;" horiz-adv-x="544" d="M47 -6l2 57q84 2 108.5 14.5t26.5 40.5q8 156 9 259v204q0 168 -7 213q0 20 -25 27q-15 4 -51 4q-24 0 -57 -2l4 55q231 14 324 35q-6 -147 -6 -309v-252q0 -168 6 -231q2 -33 23.5 -43.5t101.5 -14.5l-4 -57q-27 0 -103.5 3t-130.5 3q-55 0 -124.5 -3t-96.5 -3z M180 1026q23 35 102 166l89 147q47 72 110 72q27 0 43.5 -19.5t16.5 -50.5q0 -53 -64 -116l-254 -232z" />
<glyph unicode="&#xee;" horiz-adv-x="544" d="M23 1030q137 178 223 369l49 12q61 -168 221 -381l-43 -39q-125 113 -205 217q-66 -88 -205 -217zM47 -6l2 57q84 2 108.5 14.5t26.5 40.5q8 156 9 259v204q0 168 -7 213q0 20 -25 27q-15 4 -51 4q-24 0 -57 -2l4 55q231 14 324 35q-6 -147 -6 -309v-252q0 -168 6 -231 q2 -33 23.5 -43.5t101.5 -14.5l-4 -57q-27 0 -103.5 3t-130.5 3q-55 0 -124.5 -3t-96.5 -3z" />
<glyph unicode="&#xef;" horiz-adv-x="544" d="M0 1188q0 47 29.5 77.5t74.5 30.5h2q43 0 69 -28.5t26 -73.5q0 -49 -32 -79t-73 -30q-39 0 -67.5 27t-28.5 76zM47 -6l2 57q84 2 108.5 14.5t26.5 40.5q8 156 9 259v204q0 168 -7 213q0 20 -25 27q-15 4 -51 4q-24 0 -57 -2l4 55q231 14 324 35q-6 -147 -6 -309v-252 q0 -168 6 -231q2 -33 23.5 -43.5t101.5 -14.5l-4 -57q-27 0 -103.5 3t-130.5 3q-55 0 -124.5 -3t-96.5 -3zM348 1188q0 47 30 77.5t75 30.5h2q43 0 68.5 -28.5t25.5 -73.5q0 -49 -31 -79t-74 -30q-39 0 -67.5 27t-28.5 76z" />
<glyph unicode="&#xf0;" horiz-adv-x="1048" d="M78 418q0 211 128 348t324 137q117 0 203 -61q-29 176 -127 282q-162 -80 -299 -157l-33 71l281 140q-139 133 -344 143l12 57q10 0 19 1q231 0 430 -144l221 121l31 -70l-197 -100q233 -223 234 -639q0 -281 -121 -428.5t-334 -147.5q-199 0 -313.5 121t-114.5 326z M291 444q0 -170 47 -282q59 -129 186 -129q119 0 178 121q57 115 58 360q0 131 -21 201q-53 123 -200 127h-5q-120 0 -182 -107q-61 -107 -61 -291z" />
<glyph unicode="&#xf1;" horiz-adv-x="1128" d="M59 -6v57q78 4 101.5 14.5t25.5 47.5q6 92 7 231v182q0 170 -7 250q0 20 -21.5 26.5t-101.5 6.5l5 55q158 0 294 31q8 -49 15 -154q158 162 317 162q174 0 236 -125q27 -51 26 -127v-545q0 -33 19.5 -41t114.5 -14l-5 -57q-29 0 -105.5 3t-125.5 3q-51 0 -119.5 -3 t-87.5 -3l2 57q68 2 90.5 13.5t24.5 39.5q10 72 10 299q0 186 -4 237.5t-16 78.5q-39 80 -138 80q-143 0 -219 -131q-23 -37 -22 -105v-241q0 -170 4 -216q4 -31 26.5 -42t98.5 -13l-4 -57q-23 0 -106 3t-122 3q-43 0 -113.5 -3t-99.5 -3zM313 1051q4 102 42 171.5t118 69.5 q53 0 127 -65q66 -59 90 -60q57 0 66 129l59 -10q-4 -242 -147 -242q-55 0 -138 74q-55 49 -84 49q-61 0 -71 -125z" />
<glyph unicode="&#xf2;" horiz-adv-x="1050" d="M78 430q0 203 122 338t335 135h2q201 0 318.5 -127t117.5 -332q0 -215 -121 -344t-330 -129q-217 0 -330.5 127t-113.5 332zM287 461q0 -190 59 -303q66 -125 193 -125q119 0 176 108q51 102 51 285q0 195 -57 299q-61 117 -185 117h-2q-109 0 -176 -101 q-59 -98 -59 -280zM289 1331q2 37 21.5 58.5t45.5 21.5q63 0 101 -72l155 -315l-43 -31l-235 238q-45 45 -45 100z" />
<glyph unicode="&#xf3;" horiz-adv-x="1050" d="M78 430q0 203 122 338t335 135h2q201 0 318.5 -127t117.5 -332q0 -215 -121 -344t-330 -129q-217 0 -330.5 127t-113.5 332zM287 461q0 -190 59 -303q66 -125 193 -125q119 0 176 108q51 102 51 285q0 195 -57 299q-61 117 -185 117h-2q-109 0 -176 -101 q-59 -98 -59 -280zM434 1026q23 35 102 166l89 147q47 72 110 72q27 0 43.5 -19.5t16.5 -50.5q0 -53 -64 -116l-254 -232z" />
<glyph unicode="&#xf4;" horiz-adv-x="1050" d="M78 430q0 203 122 338t335 135h2q201 0 318.5 -127t117.5 -332q0 -215 -121 -344t-330 -129q-217 0 -330.5 127t-113.5 332zM287 461q0 -190 59 -303q66 -125 193 -125q119 0 176 108q51 102 51 285q0 195 -57 299q-61 117 -185 117h-2q-109 0 -176 -101 q-59 -98 -59 -280zM297 1030q137 178 223 369l49 12q61 -168 222 -381l-43 -39q-125 113 -205 217q-66 -88 -205 -217z" />
<glyph unicode="&#xf5;" horiz-adv-x="1050" d="M78 430q0 203 122 338t335 135h2q201 0 318.5 -127t117.5 -332q0 -215 -121 -344t-330 -129q-217 0 -330.5 127t-113.5 332zM272 1051q4 102 42 171.5t118 69.5q53 0 127 -65q66 -59 90 -60q57 0 66 129l59 -10q-4 -242 -147 -242q-55 0 -138 74q-55 49 -83 49 q-61 0 -72 -125zM287 461q0 -190 59 -303q66 -125 193 -125q119 0 176 108q51 102 51 285q0 195 -57 299q-61 117 -185 117h-2q-109 0 -176 -101q-59 -98 -59 -280z" />
<glyph unicode="&#xf6;" horiz-adv-x="1050" d="M78 430q0 203 122 338t335 135h2q201 0 318.5 -127t117.5 -332q0 -215 -121 -344t-330 -129q-217 0 -330.5 127t-113.5 332zM250 1188q0 47 29.5 77.5t74.5 30.5h2q43 0 69 -28.5t26 -73.5q0 -49 -32 -79t-73 -30q-39 0 -67.5 27t-28.5 76zM287 461q0 -190 59 -303 q66 -125 193 -125q119 0 176 108q51 102 51 285q0 195 -57 299q-61 117 -185 117h-2q-109 0 -176 -101q-59 -98 -59 -280zM598 1188q0 47 29.5 77.5t74.5 30.5h3q43 0 68.5 -28.5t25.5 -73.5q0 -49 -31 -79t-74 -30q-39 0 -67.5 27t-28.5 76z" />
<glyph unicode="&#xf7;" horiz-adv-x="1060" d="M111 434v105h841v-105h-841zM440 791q0 39 30 68.5t67 29.5q39 0 68.5 -30t29.5 -68q0 -45 -28.5 -73t-71.5 -28h-3q-35 0 -63.5 30t-28.5 71zM440 182q0 41 29 71t66 30h2q41 0 68.5 -28t27.5 -73q0 -39 -29 -68.5t-67 -29.5q-37 0 -67 29.5t-30 68.5z" />
<glyph unicode="&#xf8;" horiz-adv-x="1056" d="M78 420q0 207 128 345t335 138q137 0 241 -61l66 92l72 -39l-76 -98q135 -125 135 -351q0 -205 -126 -340t-335 -135q-145 0 -235 60l-74 -97l-70 39l80 101q-141 123 -141 346zM285 430q0 -129 43 -221l379 534q-63 98 -175 99h-4q-110 0 -176 -101q-68 -109 -67 -309 v-2zM362 133q66 -102 168 -102q123 0 183 106q61 119 61 316v2q0 127 -35 213z" />
<glyph unicode="&#xf9;" horiz-adv-x="1105" d="M35 821l8 56q115 0 190 8q84 6 134 12q-16 -111 -17 -414q-1 -56 -1 -103q-1 -189 13 -239q16 -74 105 -73q86 0 156.5 55t105.5 139q23 55 23 123v199q0 139 -7 200q-2 23 -25.5 28t-111.5 7l-4 55q25 0 209 7q68 4 129 10q-8 -246 -8 -299v-242q0 -188 8 -254 q4 -29 27 -36q18 -6 79 -5h39l-6 -55q-86 -4 -176 -12q-68 -4 -151 -19q-4 106 -4 195q-55 -76 -151.5 -134.5t-213.5 -58.5q-152 0 -197 90q-27 45 -26 121q6 319 6 436q0 113 -4 170q-2 23 -24.5 28t-104.5 5zM305 1331q2 37 21.5 58.5t46.5 21.5q63 0 100 -72l156 -315 l-43 -31l-236 238q-45 45 -45 100z" />
<glyph unicode="&#xfa;" horiz-adv-x="1105" d="M35 821l8 56q115 0 190 8q84 6 134 12q-16 -111 -17 -414q-1 -56 -1 -103q-1 -189 13 -239q16 -74 105 -73q86 0 156.5 55t105.5 139q23 55 23 123v199q0 139 -7 200q-2 23 -25.5 28t-111.5 7l-4 55q25 0 209 7q68 4 129 10q-8 -246 -8 -299v-242q0 -188 8 -254 q4 -29 27 -36q18 -6 79 -5h39l-6 -55q-86 -4 -176 -12q-68 -4 -151 -19q-4 106 -4 195q-55 -76 -151.5 -134.5t-213.5 -58.5q-152 0 -197 90q-27 45 -26 121q6 319 6 436q0 113 -4 170q-2 23 -24.5 28t-104.5 5zM453 1026q23 35 101 166l89 147q47 72 111 72q27 0 43 -19.5 t16 -50.5q0 -53 -63 -116l-254 -232z" />
<glyph unicode="&#xfb;" horiz-adv-x="1105" d="M35 821l8 56q115 0 190 8q84 6 134 12q-16 -111 -17 -414q-1 -56 -1 -103q-1 -189 13 -239q16 -74 105 -73q86 0 156.5 55t105.5 139q23 55 23 123v199q0 139 -7 200q-2 23 -25.5 28t-111.5 7l-4 55q25 0 209 7q68 4 129 10q-8 -246 -8 -299v-242q0 -188 8 -254 q4 -29 27 -36q18 -6 79 -5h39l-6 -55q-86 -4 -176 -12q-68 -4 -151 -19q-4 106 -4 195q-55 -76 -151.5 -134.5t-213.5 -58.5q-152 0 -197 90q-27 45 -26 121q6 319 6 436q0 113 -4 170q-2 23 -24.5 28t-104.5 5zM299 1030q137 178 223 369l49 12q61 -168 222 -381l-43 -39 q-127 113 -205 217q-66 -88 -205 -217z" />
<glyph unicode="&#xfc;" horiz-adv-x="1105" d="M35 821l8 56q115 0 190 8q84 6 134 12q-16 -111 -17 -414q-1 -56 -1 -103q-1 -189 13 -239q16 -74 105 -73q86 0 156.5 55t105.5 139q23 55 23 123v199q0 139 -7 200q-2 23 -25.5 28t-111.5 7l-4 55q25 0 209 7q68 4 129 10q-8 -246 -8 -299v-242q0 -188 8 -254 q4 -29 27 -36q18 -6 79 -5h39l-6 -55q-86 -4 -176 -12q-68 -4 -151 -19q-4 106 -4 195q-55 -76 -151.5 -134.5t-213.5 -58.5q-152 0 -197 90q-27 45 -26 121q6 319 6 436q0 113 -4 170q-2 23 -24.5 28t-104.5 5zM274 1188q0 47 30 77.5t75 30.5h2q43 0 68.5 -28.5 t25.5 -73.5q0 -49 -31.5 -79t-72.5 -30q-39 0 -68 27t-29 76zM623 1188q0 47 29.5 77.5t74.5 30.5h2q43 0 68.5 -28.5t25.5 -73.5q0 -49 -30.5 -79t-73.5 -30q-39 0 -67.5 27t-28.5 76z" />
<glyph unicode="&#xfd;" horiz-adv-x="913" d="M-12 823l4 58q166 -7 209 -7q41 0 118.5 3.5t104.5 3.5l8 -58l-74 -8q-30 -5 -30 -28q0 -8 4 -19q39 -113 123 -336t88 -235q117 317 170 546q10 41 -1.5 55.5t-52.5 18.5l-73 6l8 58q23 0 84 -3.5t92 -3.5q27 0 88.5 3.5t95.5 3.5l-4 -58q-68 -4 -95.5 -24.5 t-55.5 -87.5q-100 -246 -314 -879q-57 -178 -118.5 -256t-149.5 -78q-63 0 -100 35t-37 88q0 47 26.5 75t63.5 28q45 0 59 -41q18 -61 58 -62q20 0 39.5 21.5t41.5 72.5l32 79q11 28 34 95l21 70q-25 29 -54 98q-219 582 -266 680q-23 47 -41 61.5t-61 20.5zM412 1026 q23 35 101 166l89 147q47 72 111 72q27 0 43 -19.5t16 -50.5q0 -53 -63 -116l-254 -232z" />
<glyph unicode="&#xfe;" horiz-adv-x="1079" d="M-23 -481l13 55q94 4 121.5 15.5t29.5 41.5q12 127 13 410v952q0 209 -7 277q0 23 -26 27q-19 4 -71 4q-21 0 -46 -1l10 56q209 6 330 30q-6 -172 -6 -638q174 156 330 155q150 0 235 -98q98 -113 98 -320q0 -233 -117.5 -373.5t-332.5 -140.5q-141 0 -217 66 q0 -283 6 -393q4 -41 30.5 -52.5t133.5 -13.5l-10 -55q-20 0 -106.5 2t-154.5 2q-35 0 -256 -8zM336 205q4 -49 22 -76q68 -94 189 -94h2q72 0 123 40t77.5 106.5t38 136t11.5 145.5q0 166 -58 256q-61 84 -161 84q-154 0 -224 -154q-18 -39 -18 -96q-4 -112 -4 -215 q0 -68 2 -133z" />
<glyph unicode="&#xff;" horiz-adv-x="913" d="M-12 823l4 58q166 -7 209 -7q41 0 118.5 3.5t104.5 3.5l8 -58l-74 -8q-30 -5 -30 -28q0 -8 4 -19q39 -113 123 -336t88 -235q117 317 170 546q10 41 -1.5 55.5t-52.5 18.5l-73 6l8 58q23 0 84 -3.5t92 -3.5q27 0 88.5 3.5t95.5 3.5l-4 -58q-68 -4 -95.5 -24.5 t-55.5 -87.5q-100 -246 -314 -879q-57 -178 -118.5 -256t-149.5 -78q-63 0 -100 35t-37 88q0 47 26.5 75t63.5 28q45 0 59 -41q18 -61 58 -62q20 0 39.5 21.5t41.5 72.5l32 79q11 28 34 95l21 70q-25 29 -54 98q-219 582 -266 680q-23 47 -41 61.5t-61 20.5zM227 1188 q0 47 30 77.5t75 30.5h2q43 0 68.5 -28.5t25.5 -73.5q0 -49 -31.5 -79t-72.5 -30q-39 0 -68 27t-29 76zM575 1188q0 47 30 77.5t75 30.5h2q43 0 68.5 -28.5t25.5 -73.5q0 -49 -30.5 -79t-73.5 -30q-39 0 -68 27t-29 76z" />
<glyph unicode="&#x152;" horiz-adv-x="1996" d="M90 621q0 201 71.5 355t192.5 241q145 109 351 108q250 0 366 -149v120q70 -4 137 -4h320q84 0 186 4q86 4 111 11q-7 -68 -8 -177q0 -73 4 -163l-56 -2q-16 102 -41 165q-23 59 -72.5 78t-193.5 19h-143q-18 0 -24.5 -7.5t-8.5 -27.5q-8 -131 -8 -279v-206q23 -4 156 -5 q135 0 176 29t55 133h51q-9 -129 -9 -251q0 -92 5 -179l-53 2q-12 119 -51 159t-172 40q-135 0 -158 -4v-168q0 -238 6 -350q2 -23 12.5 -32t51 -14.5t135.5 -5.5q150 0 213 14.5t98 57.5q53 66 92 227l53 -6q-2 -37 -18 -179t-25 -185q-16 2 -149 6q-147 4 -307 4h-215 q-127 0 -158 -4v133q-61 -76 -164.5 -119t-224.5 -43q-217 0 -352 101q-109 82 -170.5 224.5t-61.5 328.5zM330 633q0 -299 129 -461q102 -127 276 -127q168 0 258 119q49 63 66.5 157.5t17.5 329.5q0 301 -26 381q-86 227 -324 228q-154 0 -248 -109q-150 -170 -149 -516 v-2z" />
<glyph unicode="&#x153;" horiz-adv-x="1609" d="M78 420q0 203 128 343t333 140q233 0 333 -186q111 186 324 186q106 0 180 -38t107 -98t46 -112.5t13 -103.5q0 -63 -45 -84q-45 -23 -235 -27q-76 -4 -170 -3q-62 0 -131 1q-1 -14 -1 -27q0 -145 60 -239q68 -106 213 -106q98 0 156.5 48t97.5 144l53 -27 q-86 -260 -364 -260q-236 0 -328 170q-113 -170 -338 -170q-207 0 -319.5 124t-112.5 325zM291 434q0 -182 53 -284q55 -115 180 -115q129 0 187 106q57 111 57 314q0 180 -45 276q-53 111 -186 111h-2h-5q-111 0 -176 -101q-63 -112 -63 -307zM965 506q55 -4 163 -4 q133 0 195 16q37 10 37 68q0 111 -46 184.5t-141 73.5h-2q-92 0 -146 -99.5t-60 -238.5z" />
<glyph unicode="&#x178;" horiz-adv-x="1138" d="M-37 1298q12 0 100.5 -3t141.5 -3q61 0 151 3t119 3l8 -57l-92 -8q-41 -2 -18 -43q37 -80 278 -520q182 324 258 499q9 22 10 36q0 23 -26 24q-53 10 -115 12l6 57q20 0 97 -3t116 -3q29 0 96.5 3t104.5 3l4 -57q-88 -4 -125 -22.5t-80 -77.5q-121 -182 -286 -498 q-25 -47 -25 -100q-3 -96 -3 -180q0 -146 9 -252q4 -41 51 -43q74 -10 144 -17l8 -57q-35 0 -153.5 3t-182.5 3q-53 0 -148.5 -3t-144.5 -3l-8 57q68 6 141 17q72 6 74 69q10 119 10 389q0 51 -26 103q-29 61 -130.5 237l-164.5 277q-39 61 -74 77.5t-123 20.5zM317 1517.5 q0 49.5 29 80t76 30.5h2q43 0 70.5 -28.5t27.5 -71.5q0 -51 -32.5 -82t-73.5 -31q-39 0 -69 26.5t-30 76zM690 1517.5q0 49.5 29 80t74 30.5h2q45 0 72.5 -28.5t27.5 -71.5q0 -51 -33 -82t-74 -31q-39 0 -68.5 26.5t-29.5 76z" />
<glyph unicode="&#x2c6;" horiz-adv-x="933" d="M221 1030q137 178 223 369l50 12q61 -168 221 -381l-43 -39q-127 113 -205 217q-66 -88 -205 -217z" />
<glyph unicode="&#x2dc;" horiz-adv-x="933" d="M215 1051q4 102 42 171.5t118 69.5q53 0 127 -65q66 -59 90 -60q57 0 65 129l60 -10q-4 -242 -148 -242q-55 0 -137 74q-55 49 -84 49q-61 0 -72 -125z" />
<glyph unicode="&#x2013;" horiz-adv-x="1097" d="M100 416l27 119q430 -4 872 0l-28 -119q-416 4 -871 0z" />
<glyph unicode="&#x2014;" horiz-adv-x="1849" d="M98 416l29 119q178 -2 801.5 -2.5t820.5 2.5l-29 -119q-182 2 -808 2t-814 -2z" />
<glyph unicode="&#x2018;" horiz-adv-x="393" d="M70 1190q0 117 79.5 189.5t174.5 78.5l10 -49q-76 -14 -127 -64q-49 -48 -49 -107q0 -23 12 -11q33 16 61 16q37 0 65 -30q26 -28 26 -72q0 -54 -34 -87.5t-81 -33.5q-61 0 -99 47t-38 123z" />
<glyph unicode="&#x2019;" horiz-adv-x="393" d="M61 1061q76 14 127 64q49 48 50 107q0 19 -13 11q-29 -16 -59 -16q-37 0 -66 29q-27 28 -26 73q0 53 33.5 87t80.5 34q63 0 100.5 -46t37.5 -124q0 -117 -80 -189.5t-174 -78.5z" />
<glyph unicode="&#x201a;" horiz-adv-x="399" d="M59 -164q78 16 130.5 64.5t52.5 115.5q0 18 -13 7q-29 -14 -63 -15q-39 0 -67.5 31t-28.5 82q0 49 35.5 84t84.5 35q66 0 104 -50.5t38 -132.5q0 -121 -84 -192.5t-178 -79.5z" />
<glyph unicode="&#x201c;" horiz-adv-x="718" d="M68 1188q0 117 80.5 189.5t175.5 78.5l10 -47q-76 -14 -128 -64q-50 -48 -50 -107q0 -23 12 -11q35 16 61 14q37 0 65 -29.5t28 -78.5q0 -47 -35 -81t-82 -34q-61 0 -99 47t-38 123zM395 1188q0 117 80 189.5t174 78.5l10 -49q-76 -14 -127 -65q-49 -48 -49 -106 q0 -23 13 -11q29 16 59 16q37 0 64.5 -29.5t27.5 -78.5q0 -47 -33.5 -81t-81.5 -34q-61 0 -99 47t-38 123z" />
<glyph unicode="&#x201d;" horiz-adv-x="718" d="M61 1061q76 14 127 64q49 48 50 107q0 19 -13 11q-29 -16 -59 -16q-37 0 -66 29q-27 28 -26 73q0 53 33.5 87t80.5 34q63 0 100.5 -46t37.5 -124q0 -115 -81 -187.5t-173 -80.5zM387 1061q76 14 127 64q49 48 49 107q0 19 -12 11q-33 -16 -59 -16q-39 0 -66 29.5 t-27 78.5q0 47 35 81t80 34q63 0 100 -46t37 -124q0 -115 -81 -187.5t-173 -80.5z" />
<glyph unicode="&#x201e;" horiz-adv-x="731" d="M57 -160q78 14 130.5 62.5t52.5 115.5q0 18 -13 7q-29 -14 -61 -15q-39 0 -69 31q-28 29 -27 74q0 55 35.5 90t82.5 35q66 0 104 -50.5t38 -130.5q0 -121 -83 -191.5t-177 -78.5zM391 -160q76 14 128 62.5t52 115.5q0 18 -12 7q-29 -14 -61 -15q-39 0 -68 31t-29 80 t36 84t83 35q66 0 104 -50.5t38 -130.5q0 -121 -83 -191.5t-176 -78.5z" />
<glyph unicode="&#x2022;" horiz-adv-x="651" d="M111 453q0 96 62.5 161.5t150.5 65.5h2q96 0 155.5 -64.5t59.5 -163t-63.5 -162t-153.5 -63.5q-88 0 -150.5 64t-62.5 162z" />
<glyph unicode="&#x2026;" horiz-adv-x="1603" d="M141 104q0 55 37 94.5t88 39.5h2q55 0 89 -38t34 -96q0 -59 -36 -96t-89 -37q-51 0 -88 38t-37 95zM678 104q0 55 37 94.5t88 39.5h2q55 0 89 -38t34 -96q0 -59 -36 -96t-89 -37q-51 0 -88 38t-37 95zM1212 104q0 55 37 94.5t88 39.5h2q55 0 89 -38t34 -96 q0 -59 -35.5 -96t-89.5 -37q-51 0 -88 38t-37 95z" />
<glyph unicode="&#x2039;" horiz-adv-x="628" d="M98 416l19 45q96 33 194.5 133t163.5 235l53 -24q-55 -190 -192 -369q156 -201 192 -362l-47 -33q-61 137 -177 241.5t-206 133.5z" />
<glyph unicode="&#x203a;" horiz-adv-x="628" d="M98 66q55 186 191 368q-156 207 -191 363l47 32q61 -137 177 -241.5t206 -132.5l-20 -45q-96 -33 -193.5 -133.5t-162.5 -235.5z" />
<glyph unicode="&#x20ac;" d="M25 520l20 68h92q0 76 4 108h-75l20 68h61q14 94 47 179t88.5 164t145.5 126t203 47q150 0 224.5 -64.5t74.5 -144.5q0 -55 -25.5 -86t-66.5 -31q-27 0 -45.5 14.5t-14.5 39.5q10 37 10 67q0 145 -165 146q-227 0 -275 -457l473 2l-24 -72l-453 2q-2 -33 -2 -108l428 2 l-25 -72l-399 2q4 -80 18.5 -149.5t43 -145.5t86 -120t135.5 -44q90 0 154.5 48.5t109.5 177.5l49 -29q-49 -152 -135 -218.5t-227 -66.5q-119 0 -206 48.5t-134 132.5t-71 173t-30 193h-114z" />
<glyph unicode="&#x2122;" horiz-adv-x="720" d="M23 1174l4 43q2 23 4 42t2 25q41 -8 108 -8h45q80 0 113 8q0 -2 -1 -16.5t-2 -38t-1 -49.5l-23 -6q-6 43 -16 61q-8 14 -63 14v-106q0 -20 1 -48t1 -32q4 -10 49 -12l-2 -29q-4 0 -36 1t-59 1q-14 0 -35.5 -1t-31.5 -1l-2 29q49 2 49 12q4 29 4 80v106q-57 0 -65 -16 q-6 -14 -21 -62zM309 1022v29q29 2 37 7t10 23q8 98 9 156l-3 6q0 6 -12 6l-28 4l2 27q35 -2 63 -2q41 0 57 2q8 -25 74 -164q47 98 70 164q23 -2 55 -2q12 0 31.5 1t30.5 1l2 -27q-39 -2 -39 -14q-2 -8 -2 -51q0 -82 4 -119q2 -18 41 -18v-29q-2 0 -27 1t-43 1t-45 -1 t-29 -1v29q37 0 37 18q4 37 4 182h-2q-23 -51 -52.5 -129t-37.5 -94l-31 -4q-8 27 -45 112t-47 111h-2v-168q4 -27 25 -26l24 -2v-29q-8 0 -28.5 1t-34.5 1q-16 0 -39 -1t-29 -1z" />
<glyph unicode="&#xe000;" horiz-adv-x="880" d="M0 880h880v-880h-880v880z" />
<glyph unicode="&#xfb01;" horiz-adv-x="1132" d="M47 815l6 59h142v37q0 199 94 316q133 164 346 164q143 0 221 -60.5t78 -146.5q0 -49 -31 -81t-82 -32q-33 0 -53 16.5t-18 40.5q0 8 4 34t4 40q0 123 -156 123t-199 -180q-25 -98 -24 -271h229q256 0 363 27q-8 -102 -8 -326v-219q0 -184 6 -247q2 -35 23.5 -44.5 t109.5 -13.5l-4 -57q-35 0 -113 3t-125 3q-57 0 -129 -3t-100 -3l2 57q86 2 111.5 13.5t27.5 41.5q8 78 8 281v164q0 186 -8 225q-2 29 -84 29h-313v-354q0 -229 4 -332q2 -39 29.5 -51.5t117.5 -16.5l-4 -57q-33 0 -110.5 3t-120.5 3q-45 0 -127 -3t-117 -3v57 q86 2 108.5 11.5t26.5 37.5q10 109 11 355v350z" />
<glyph unicode="&#xfb02;" horiz-adv-x="1134" d="M45 -6l2 57q84 4 107.5 13.5t27.5 35.5q10 113 11 355v348l-148 12l6 59h142v56q0 219 122 340q115 121 299 121q123 0 201 -52q84 25 158 41q-10 -379 -10 -452v-457q0 -264 4 -362q2 -35 26.5 -44.5t116.5 -13.5l-6 -57q-43 0 -136.5 3t-129.5 3q-49 0 -119 -3t-88 -3 l2 57q84 2 107.5 14.5t27.5 49.5q12 111 12 374v576q0 119 -20 164q-53 96 -172 96q-133 0 -178 -139q-31 -100 -31 -312h233l-16 -59l-219 -12q-2 -106 -2 -359q0 -223 4 -325q2 -39 28.5 -50.5t120.5 -17.5l-6 -57q-33 0 -107.5 3t-117.5 3q-49 0 -135 -3t-117 -3z" />
<glyph unicode="&#xfb03;" horiz-adv-x="1722" d="M47 -6l2 57q84 4 108.5 12.5t26.5 34.5q8 180 9 357v348l-144 12l6 59h140v39q0 186 100 299q131 154 340 154q90 0 158.5 -33t103.5 -80q115 137 324 138q143 0 222 -61.5t79 -149.5q0 -51 -31 -81t-84 -30q-33 0 -53.5 15.5t-18.5 39.5q0 6 3 32t3 40q0 61 -38.5 96 t-112.5 35t-125 -46t-72 -134q-27 -111 -26 -273h227q254 0 365 27q-8 -102 -9 -328v-217q0 -162 4 -247q2 -35 25 -44.5t107 -13.5l-3 -57q-35 0 -111.5 3t-123.5 3q-57 0 -129 -3t-98 -3l2 57q84 2 109.5 13.5t29.5 41.5q6 117 6 277v168q0 143 -6 223q-6 29 -86 29 l-311 2q-2 -92 -2 -356q0 -256 6 -332q2 -39 27.5 -50.5t123.5 -15.5l-4 -57q-33 0 -109.5 3t-119.5 3t-130 -3t-116 -3l2 57q80 4 103.5 12.5t25.5 34.5q8 90 8 348v357h-403q-2 -92 -2 -350q0 -264 6 -338q4 -39 27.5 -49.5t123.5 -14.5l-8 -57q-31 0 -103.5 3t-115.5 3 q-47 0 -136 -3t-122 -3zM379 874h403q0 152 35 263q-14 66 -71.5 114.5t-137.5 48.5q-156 0 -202 -167q-27 -87 -27 -259z" />
<glyph unicode="&#xfb04;" horiz-adv-x="1722" d="M45 815l6 59h144v33q0 195 102 305q123 152 340 152q164 0 254 -104q111 131 303 131q129 0 207 -52q68 18 160 39q-10 -358 -11 -454v-455q0 -313 4 -358q2 -39 25 -47.5t117 -12.5l-6 -57q-43 0 -137.5 3t-135.5 3q-47 0 -112.5 -3t-83.5 -3v57q86 2 109.5 14.5 t27.5 49.5q10 92 10 372v566q0 131 -20 174q-45 100 -170 100q-61 0 -110.5 -36t-70.5 -101q-31 -100 -30 -316h233l-16 -61l-219 -10q-2 -92 -2 -354q0 -170 6 -330q4 -41 27.5 -52.5t119.5 -15.5l-4 -57q-31 0 -110.5 3t-125 3t-126 -3t-109.5 -3l2 57q80 2 102.5 11.5 t26.5 37.5q8 59 8 340v363h-403q-2 -94 -2 -350q0 -242 4 -336q2 -41 26.5 -51.5t122.5 -14.5l-6 -57q-29 0 -101.5 3t-115.5 3q-47 0 -137 -3t-121 -3l2 57q86 2 108.5 10.5t26.5 36.5q8 90 9 357v348zM379 874h403q0 156 33 263q-16 63 -70.5 112t-138.5 49 q-152 0 -200 -170q-27 -86 -27 -254z" />
</font>
</defs>
</svg>
